<svg width="50" height="50" xmlns="http://www.w3.org/2000/svg">
 <g>
  <path d="m401.35083,137.44492l0.14099,1.05774l1.05774,-0.14104l1.05777,-0.21153l7.75674,-4.58354q7.75677,-4.58382 13.96216,-10.43665q6.13489,-5.78231 6.34644,-6.48746q0.14105,-0.70516 2.82062,-2.46806q2.60913,-1.76289 9.44919,-5.85282q6.91055,-4.01941 10.08377,-5.07715q3.17325,-1.05775 9.16711,-0.70516q5.99384,0.35258 9.51959,2.82063q3.52579,2.46806 6.20544,8.32089q2.60907,5.7823 2.60907,19.18062q0,13.39803 -3.73734,25.24472q-3.66684,11.77617 -9.30807,20.94325q-5.6413,9.16707 -12.34033,15.86609q-6.69904,6.69904 -15.16095,10.92998q-8.46191,4.23096 -14.80832,6.69901q-6.34647,2.46806 -7.40421,2.82065l-1.05774,0.35258l-1.41028,0.35257l-1.41037,0.35258l-0.70517,0.21155l-0.70514,0.14104l0.14105,0.70517l0.21155,0.70514l0.21155,0.14104l0.14099,0.21155l0.70517,0.35258l0.7052,0.35258l3.66678,2.60909q3.73737,2.67961 1.97449,24.18697q-1.76288,21.50737 -5.99384,41.25185q-4.23096,19.74448 -10.93002,39.84152q-6.69901,20.09705 -12.55185,32.6489q-5.78229,12.48135 -9.30811,19.32138q-3.52576,6.91055 -4.23096,6.91055q-0.70514,0 -3.52579,5.50027q-2.82065,5.42972 -5.78229,9.87222q-3.03223,4.37198 -3.24374,4.51303l-0.14105,0.21152l-0.14102,0.21158l-0.21158,0.14102l-0.35254,0.70514l-0.35257,0.70517l-0.21161,0.14105l-0.14102,0.21155l-0.14099,0.21155l-0.21155,0.14102l-0.21155,0.14105l-0.14105,0.21152l-0.14099,0.21158l-0.21155,0.14102l-0.21155,0.70517l-0.14105,0.70511l-0.14105,0q-0.21155,0 -0.4231,0.3526l-0.14099,0.35257l-9.51965,11.14154q-9.51971,11.07101 -10.22485,11.28256q-0.70514,0.14105 -3.52582,3.52582q-2.82062,3.31424 -3.52579,3.52579q-0.70514,0.14105 -3.17319,3.31427q-2.46808,3.17322 -14.80841,12.48132q-12.34024,9.37863 -23.6228,16.43024q-11.28253,7.05157 -12.69287,7.75671q-1.41034,0.70517 -2.11548,1.05777l-0.70514,0.35257l-1.05774,0.21155l-1.05777,0.14102l-0.14108,-1.05774q-0.21149,-1.05774 -1.9744,-5.99387q-1.76288,-4.9361 -7.05161,-15.51349q-5.2887,-10.57739 -10.57739,-17.27643q-5.2887,-6.69901 -10.71843,-11.6351q-5.50024,-4.93613 -5.64128,-5.6413q-0.21153,-0.70517 -7.75676,-7.19266q-7.61572,-6.55798 -10.43636,-9.02603q-2.82063,-2.46808 -5.2887,-5.07715q-2.46806,-2.67963 -3.17322,-2.82065q-0.70515,-0.21155 -8.10934,-7.61572q-7.40416,-7.40417 -9.87224,-11.14151q-2.46805,-3.66687 -3.1732,-3.66687q-0.70517,0 -1.05774,-1.41028q-0.35258,-1.41034 -1.05775,-1.55136q-0.70514,-0.21155 -4.08992,-6.34644q-3.31425,-6.20544 -8.25037,-22.7767q-4.93611,-16.5712 -10.22481,-45.13019l-5.28871,-28.55899l-0.21155,-1.05771l-0.14104,-1.05774l-0.70515,0l-0.70515,0l-0.14104,0.70517l-0.21155,0.70514l-0.21156,0.14102l-0.14102,0.21155l-0.14104,0.21158l-0.21155,0.14099l-0.21153,0.14105l-0.14104,0.21155l-0.70517,0.35257q-0.70514,0.3526 -1.41031,1.55139q-0.70517,1.26926 -5.64128,4.23096q-4.93611,3.03217 -10.22488,5.14764q-5.2887,2.11548 -13.39804,3.52579q-8.10934,1.41031 -21.86002,0.70514l-13.75054,-0.70514l-0.14111,-0.21155l-0.21147,-0.14102l-0.21155,-0.14102l-0.14103,-0.21158l0.70515,-0.35257l0.70515,-0.35257l1.05775,-0.35257l1.05774,-0.3526l1.41025,-0.3526q1.41032,-0.35257 5.64128,-2.11545q4.23096,-1.76291 9.30818,-6.20541q5.14759,-4.37201 9.02604,-11.07098l3.87838,-6.69904l0.35258,-0.70517l0.35257,-0.70517l0.35258,-0.70514l0.35258,-0.70517l0.21148,-1.05774l0.14111,-1.05774l-0.70516,0.14105l-0.70515,0.21152l-1.41032,0.3526l-1.41032,0.35257l-1.7629,0.35257q-1.76296,0.35257 -7.40424,1.76291q-5.64128,1.41031 -20.80214,1.76291q-15.16096,0.35257 -22.91773,-1.41034q-7.75671,-1.76291 -16.07767,-5.78229l-8.25037,-4.08994l-0.21154,-0.14102l-0.14103,-0.21156l-0.70516,-0.35258l-0.70516,-0.35258l-0.14103,-0.21153l-0.21155,-0.14104l-0.21155,-0.14102l-0.14103,-0.21155l-0.14103,-0.21155l-0.21154,-0.14104l-0.21155,-0.14102l-0.14103,-0.21156l-0.14103,-0.21153l-0.21155,-0.14105l-0.21155,-0.14102l-0.14103,-0.21155l-0.70516,-0.35258l-0.70515,-0.35258l1.05774,0l1.05774,0l10.92998,0q10.92998,0 19.39193,-2.46806q8.46191,-2.46805 21.85999,-9.16705q13.39796,-6.69902 19.8855,-10.43637q6.55798,-3.66682 6.76946,-3.80786l0.14111,-0.21155l0.70515,-0.35258l0.70516,-0.35258l0.70516,-0.35255l0.70516,-0.35258l0.70515,-0.21156l0.70517,-0.14102l-0.14111,-0.70517l-0.21148,-0.70515l-0.21155,-0.14102l-0.14104,-0.21156l-1.05773,-0.35257l-1.05775,-0.35258l-0.70516,-0.35257l-0.70515,-0.35258l-1.05774,-0.35258q-1.05781,-0.35258 -9.16714,-4.37199q-8.10934,-4.08992 -8.10934,-4.79507q0,-0.70517 -2.25652,-1.76291q-2.32703,-1.05774 -4.93612,-2.46805q-2.67953,-1.41032 -2.82064,-2.11549q-0.21147,-0.70515 -3.24373,-2.96165q-2.9616,-2.32703 -10.71839,-10.08379q-7.75676,-7.75676 -11.98775,-14.10321q-4.23088,-6.34642 -6.91056,-12.48132q-2.60909,-6.2054 -2.9616,-15.72505q-0.35265,-9.51967 0.70516,-13.04575q1.05767,-3.5258 3.5258,-8.46192q2.46799,-4.93611 9.02601,-11.42358q6.48746,-6.55799 12.48129,-10.43636q5.99393,-3.87838 13.18655,-6.91057q7.26308,-2.96167 16.21868,-4.93612q9.02604,-1.90393 23.8344,-2.25652q14.80843,-0.35258 25.73837,0.8462q10.92999,1.26929 11.63516,-0.8462q0.70515,-2.11548 1.41032,-2.11548q0.70514,0 2.6796,-3.52579q1.90395,-3.5258 9.30811,-14.1032q7.40417,-10.57739 17.06487,-21.01375q9.73122,-10.36585 12.19926,-12.97494q2.46806,-2.67961 4.93611,-4.4425l2.46806,-1.7629l0.14104,0q0.21155,0 0.42308,-0.35258l0.14105,-0.35258l1.05774,0l1.05774,0l1.05774,-1.26929q1.05772,-1.19877 9.16707,-4.72457q8.10934,-3.5258 16.92384,-3.5258q8.81453,0 14.31471,3.31425q5.42978,3.38476 10.57742,7.61572q5.07718,4.23096 7.5452,6.91057q2.46808,2.60909 5.6413,4.37199q3.17322,1.7629 9.16708,1.41032q5.99384,-0.35258 17.98154,-2.82064q11.98773,-2.46806 21.85995,-2.11548q9.87222,0.35258 12.55185,1.97445q2.6091,1.55135 17.77002,31.87322q15.16095,30.32187 22.21252,46.54054q7.05164,16.21867 8.10938,19.39217q1.05774,3.17322 1.26929,4.23096l0,0zm-19.60345,-9.87251l0.3526,1.05774l0.21149,0.14104l0.14105,0.21155l0.14105,0.21153l0.21155,0.14104l0.3526,0.70515l0.35254,0.70544l0.3526,1.05774l0.3526,1.05774l0.21155,0.14104l0.14105,0.21155l-1.0578,0l-1.05774,0l-0.70514,-0.35258l-0.70514,-0.35257l-0.14102,-0.21155l-0.21158,-0.14104l-0.21155,-0.14104l-0.14102,-0.21155l-0.70517,-0.35257l-0.70514,-0.35258l-0.7052,-0.35258q-0.70514,-0.35286 -2.2565,-1.26956q-1.62186,-0.84619 -11.70569,-5.21819q-10.01321,-4.44251 -19.88547,-6.55798q-9.87222,-2.11549 -23.27023,-2.32703l-13.3981,-0.14104l-0.14099,-3.17322q-0.21155,-3.17323 -0.91672,-8.46192q-0.70517,-5.2887 -3.17319,-16.92383q-2.46808,-11.63513 -3.66684,-24.32803l-1.26929,-12.69285l0.70517,0.14103l0.70517,0.21155l3.17319,0.70516q3.17322,0.70516 12.34033,0.35259q9.16705,-0.35259 15.51349,-1.76291q6.34644,-1.41032 9.02603,-1.62187q2.6091,-0.14103 22.00101,39.34792q19.39185,39.48895 19.74445,40.54668zm-77.92014,26.44376l1.05774,0.35258l1.41031,0.35258l1.41028,0.35258l0.7052,0.21153l0.7052,0.14105l0,0.70517l0,0.70514l-5.6413,-0.14102q-5.6413,-0.21155 -23.97546,-1.26929q-18.33411,-1.05775 -41.95699,-4.58354q-23.62286,-3.5258 -35.61058,-7.05161q-11.98772,-3.52579 -21.29584,-7.96831q-9.37862,-4.37198 -20.16756,-9.16734q-10.71841,-4.72458 -22.00105,-7.8978q-11.28255,-3.17322 -22.56519,-3.52579q-11.28255,-0.35258 -17.62898,0.70516l-6.34637,1.05773l-1.05774,0.35258l-1.05773,0.35258l-0.70517,0.35258l-0.70515,0.35258l-1.41032,0l-1.41032,0l0.70515,-0.35258l0.70517,-0.35258l0.14095,-0.21155l0.21162,-0.14104l0.21156,-0.14103l0.14103,-0.21156l0.14096,-0.21153l0.21162,-0.14104l0.21155,-0.14104l0.14103,-0.21154l0.70515,-0.35258l0.70517,-0.35258l0.70515,-0.35258l0.70516,-0.35258l8.10926,-3.52579q8.10934,-3.5258 17.27641,-5.64128q9.16715,-2.11549 13.39811,-2.82064q4.23096,-0.70516 17.62906,-0.35258q13.39804,0.35258 25.73834,2.82063q12.34029,2.46806 21.1548,5.64128q8.81447,3.17322 35.25797,14.45577q26.4435,11.28284 45.1302,18.33443q18.68677,7.05161 23.27032,8.46193q4.5835,1.41031 5.64127,1.76288l0,0zm118.46683,43.01476l-1.05774,0.35258l-1.05774,0l-1.05774,0l-0.14105,-0.21155l-0.21155,-0.14104l-0.3526,-1.41032q-0.35254,-1.41031 -0.70514,-3.1732q-0.3526,-1.76291 -2.11545,-5.99387q-1.76291,-4.23096 -4.79514,-7.61572q-2.96164,-3.31427 -10.01324,-6.84004q-7.05157,-3.5258 -20.44962,-7.05162l-13.39804,-3.52577l-1.76294,-0.21156l-1.76288,-0.14104l0,-0.70515l0,-0.70515l13.39807,-0.56413q13.39804,-0.49361 24.68054,-2.96165q11.28256,-2.46808 19.03934,-6.34645q7.75674,-3.87839 13.75058,-8.81451q5.9939,-4.9361 11.63519,-12.34056q5.64127,-7.40418 8.10931,-8.81451q2.46805,-1.41032 5.14767,-0.91669q2.6091,0.56412 3.66684,2.32702q1.05771,1.7629 1.05771,12.34058q0,10.57739 -2.82062,18.68674q-2.82065,8.10933 -6.55801,14.59679q-3.66681,6.558 -4.72458,8.46193q-1.05768,1.97446 -3.73727,4.44252q-2.60913,2.46805 -7.05164,6.55798q-4.37201,4.01941 -10.01331,7.19263q-5.64124,3.1732 -6.69897,3.52579l0,0zm-141.03198,2.11548l5.2887,0.35257l0.14105,0.21156l0.21158,0.14104l0.21155,0.14102l0.14102,0.21155l0.14099,0.21155l0.21161,0.14104l0,0.35258l0,0.35257l-0.21161,0.14104l-0.14099,0.21156l-2.11548,0.35255l-2.11545,0.35258l-3.52585,0q-3.52579,0 -6.69897,-0.35258q-3.17328,-0.35255 -4.93616,-1.26929q-1.76288,-0.84618 -1.62186,-0.14102q0.21158,0.70515 -1.41034,1.97446q-1.55136,1.19876 -7.5452,3.31424q-5.99387,2.11548 -11.63513,2.46806q-5.64128,0.35257 -10.57741,-1.76289q-4.93611,-2.11549 -8.10931,-4.93611q-3.17323,-2.82065 -5.99387,-8.10934q-2.82063,-5.28871 -7.05161,-5.64128l-4.23096,-0.35258l-0.14104,0.21155l-0.21155,0.14104l-0.21155,0.14102l-0.14102,0.21155l-0.70515,0.35257l-0.70517,0.35258l-0.70517,0.21156l-0.70515,0.14102l0.14104,-1.05774l0.21155,-1.05774l0.35257,-0.70515l0.3526,-0.70515l0.21152,-0.14104l0.14105,-0.21155l0.14102,-0.21156l0.21156,-0.14101l0.21153,-0.14105l0.14105,-0.21153l0.70515,-0.35258l0.70515,-0.35258l0.14104,-0.21155l0.21155,-0.14104l3.03218,-1.97444q2.96167,-1.90392 6.13489,-2.96167q3.17322,-1.05774 8.46191,-0.70515q5.2887,0.35257 11.77617,2.67961q6.55798,2.2565 16.07765,7.5452q9.51967,5.28871 14.94936,7.96832q5.50027,2.60909 10.78894,2.96165l0,0zm59.9386,3.87839l-6.69901,0l-0.70517,-0.35258l-0.7052,-0.35258l3.17328,-0.35258l3.17319,-0.35255l0.14105,-0.21156q0.21155,-0.14104 2.82062,-1.41032q2.67963,-1.19876 4.44254,-3.10269q1.76288,-1.97446 2.82062,-2.11548q1.05774,-0.21156 2.82068,-1.97446q1.76288,-1.76289 9.51965,-5.64128q7.75671,-3.87837 14.10315,-4.23096q6.34644,-0.35257 8.10938,0.35258q1.76288,0.70515 3.7373,2.32703q1.90396,1.55135 -1.8334,1.90393q-3.66684,0.35258 -4.51303,4.58354q-0.91669,4.23096 -2.67957,6.69902q-1.76294,2.46805 -4.7951,3.73735q-2.96167,1.19876 -3.66687,1.90392q-0.70514,0.70515 -7.40411,1.05774q-6.69904,0.35258 -10.92999,-1.05774q-4.23096,-1.41031 -10.92999,-1.41031l0,0z" stroke-width="0.5px" stroke="#00003F" fill-rule="evenodd" fill="#000000"/>
  <path d="m381.74725,127.57239l0.35263,1.05774l0.21146,0.14104l0.14108,0.21155l0.14105,0.21153l0.21158,0.14104l0.35254,0.70517l0.35257,0.70515l0.35257,1.05774l0.3526,1.05774l0.21152,0.14102l0.14105,0.21156l-1.05774,0l-1.05774,0l-0.70517,-0.35258l-0.7052,-0.35258l-0.14099,-0.21155l-0.21152,-0.14102l-0.21155,-0.14105l-0.14105,-0.21153l-0.70517,-0.35258l-0.70514,-0.35258l-0.7052,-0.35257q-0.70517,-0.35258 -2.25647,-1.26929q-1.62186,-0.84619 -11.70569,-5.21819q-10.01324,-4.4425 -19.88553,-6.55798q-9.87219,-2.11549 -23.27023,-2.32703l-13.39801,-0.14104l-0.14108,-3.17322q-0.21146,-3.17323 -0.91666,-8.46192q-0.70514,-5.2887 -3.17325,-16.92384q-2.46802,-11.63513 -3.66684,-24.328l-1.26929,-12.69288l0.70517,0.14103l0.7052,0.21155l3.17325,0.70516q3.17316,0.70516 12.34021,0.35258q9.16711,-0.35258 15.51355,-1.7629q6.34644,-1.41032 9.026,-1.62187q2.60919,-0.14103 22.00098,39.34792q19.39197,39.48896 19.74451,40.5467z" class="color" fill-rule="evenodd" fill="#FEC20C"/>
  <path d="m303.82724,154.01616l1.05774,0.35258l1.41031,0.35258l1.41028,0.35258l0.7052,0.21153l0.7052,0.14105l0,0.70517l0,0.70514l-5.6413,-0.14102q-5.6413,-0.21155 -23.97546,-1.26929q-18.33411,-1.05775 -41.95699,-4.58354q-23.62286,-3.5258 -35.61058,-7.05161q-11.98772,-3.52579 -21.29584,-7.96831q-9.37862,-4.37198 -20.16756,-9.16734q-10.71841,-4.72458 -22.00105,-7.8978q-11.28255,-3.17322 -22.56519,-3.52579q-11.28255,-0.35258 -17.62898,0.70516l-6.34637,1.05773l-1.05774,0.35258l-1.05773,0.35258l-0.70517,0.35258l-0.70515,0.35258l-1.41032,0l-1.41032,0l0.70515,-0.35258l0.70517,-0.35258l0.14095,-0.21155l0.21162,-0.14104l0.21156,-0.14103l0.14103,-0.21156l0.14096,-0.21153l0.21162,-0.14104l0.21155,-0.14104l0.14103,-0.21154l0.70515,-0.35258l0.70517,-0.35258l0.70515,-0.35258l0.70516,-0.35258l8.10926,-3.52579q8.10934,-3.5258 17.27641,-5.64128q9.16715,-2.11549 13.39811,-2.82064q4.23096,-0.70516 17.62906,-0.35258q13.39804,0.35258 25.73834,2.82063q12.34029,2.46806 21.1548,5.64128q8.81447,3.17322 35.25797,14.45577q26.4435,11.28284 45.1302,18.33443q18.68677,7.05161 23.27032,8.46193q4.5835,1.41031 5.64127,1.76288l0,0z" class="color" fill-rule="evenodd" fill="#FEC20C"/>
  <path d="m422.29407,197.03091l-1.05774,0.35258l-1.05774,0l-1.05774,0l-0.14105,-0.21155l-0.21155,-0.14104l-0.3526,-1.41032q-0.35254,-1.41031 -0.70514,-3.1732q-0.3526,-1.76291 -2.11545,-5.99387q-1.76291,-4.23096 -4.79514,-7.61572q-2.96164,-3.31427 -10.01324,-6.84004q-7.05157,-3.5258 -20.44962,-7.05162l-13.39804,-3.52577l-1.76294,-0.21156l-1.76288,-0.14104l0,-0.70515l0,-0.70515l13.39807,-0.56413q13.39804,-0.49361 24.68054,-2.96165q11.28256,-2.46808 19.03934,-6.34645q7.75674,-3.87839 13.75058,-8.81451q5.9939,-4.9361 11.63519,-12.34056q5.64127,-7.40418 8.10931,-8.81451q2.46805,-1.41032 5.14767,-0.91669q2.6091,0.56412 3.66684,2.32702q1.05771,1.7629 1.05771,12.34058q0,10.57739 -2.82062,18.68674q-2.82065,8.10933 -6.55801,14.59679q-3.66681,6.558 -4.72458,8.46193q-1.05768,1.97446 -3.73727,4.44252q-2.60913,2.46805 -7.05164,6.55798q-4.37201,4.01941 -10.01331,7.19263q-5.64124,3.1732 -6.69897,3.52579l0,0z" class="color" fill-rule="evenodd" fill="#FEC20C"/>
  <path d="m220.12476,18.9778l0.14104,-0.35258l0.35258,0.70516q0.35258,0.70516 1.05774,0.70516l0.70515,0l0.14104,1.7629q0.21155,1.7629 0.42308,2.11548l0.14105,0.35258l-0.35258,0.14103q-0.35258,0.21155 -0.35258,0.4231l0,0.14103l-2.46806,1.7629q-2.46805,1.7629 -4.93611,4.4425q-2.46805,2.60909 -12.19926,12.97494q-9.66069,10.43633 -17.06487,21.01373q-7.40416,10.57742 -9.30811,14.10323q-1.97446,3.52579 -2.6796,3.52579q-0.70517,0 -1.41032,2.11548q-0.70517,2.11549 -11.63516,0.8462q-10.92995,-1.19878 -25.73837,-0.8462q-14.80836,0.35258 -23.8344,2.25652q-8.9556,1.97445 -16.21868,4.93612q-7.19263,3.03219 -13.18655,6.91057q-5.99383,3.87837 -12.48129,10.43636q-6.55802,6.48746 -9.02601,11.42358q-2.46813,4.93612 -3.5258,8.46192q-1.05781,3.52608 -0.70516,13.04575q0.35251,9.51965 2.9616,15.72505q2.67968,6.1349 6.91056,12.48132q4.231,6.34645 11.98775,14.10321q7.75679,7.75676 10.71839,10.08379q3.03226,2.2565 3.24373,2.96165q0.14111,0.70517 2.82064,2.11549q2.60909,1.41031 4.93612,2.46805q2.25652,1.05774 2.25652,1.76291q0,0.70515 8.10934,4.79507q8.10934,4.01941 9.16714,4.37199l1.05774,0.35258l0.70515,0.35258l0.70516,0.35257l1.05775,0.35258l1.05773,0.35257l0.14104,0.21156l0.21155,0.14102l0.21148,0.70515l0.14111,0.70517l-0.70517,0.14102l-0.70515,0.21156l-0.70516,0.35258l-0.70516,0.35255l-0.70516,0.35258l-0.70515,0.35258l-0.14111,0.21155q-0.21148,0.14104 -6.76946,3.80786q-6.48754,3.73735 -19.8855,10.43637q-13.39807,6.69901 -21.85999,9.16705q-8.46196,2.46806 -19.39193,2.46806l-10.92998,0l-1.05774,0l-1.05774,0l0.70515,0.35258l0.70516,0.35258l0.14103,0.21155l0.21155,0.14102l0.21155,0.14105l0.14103,0.21153l0.14103,0.21156l0.21155,0.14102l0.21154,0.14104l0.14103,0.21155l0.14103,0.21155l0.21155,0.14102l0.21155,0.14104l0.14103,0.21153l0.70516,0.35258l0.70516,0.35258l0.14103,0.21156l0.21154,0.14102l8.25037,4.08994q8.32096,4.01938 16.07767,5.78229q7.75677,1.76291 22.91773,1.41034q15.16086,-0.3526 20.80214,-1.76291q5.64128,-1.41034 7.40424,-1.76291l1.7629,-0.35257l1.41032,-0.35257l1.41032,-0.3526l0.70515,-0.21152l0.70516,-0.14105l-0.14111,1.05774l-0.21148,1.05774l-0.35258,0.70517l-0.35258,0.70514l-0.35257,0.70517l-0.35258,0.70517l-3.87838,6.69904q-3.87845,6.69897 -9.02604,11.07098q-5.07722,4.4425 -9.30818,6.20541q-4.23096,1.76288 -5.64128,2.11545l-1.41025,0.3526l-1.05774,0.3526l-1.05775,0.35257l-0.70515,0.35257l-0.70515,0.35257l0.14103,0.21158l0.21155,0.14102l0.21147,0.14102l0.14111,0.21155l13.75054,0.70514q13.75069,0.70517 21.86002,-0.70514q8.10934,-1.41031 13.39804,-3.52579q5.28877,-2.11548 10.22488,-5.14764q4.93611,-2.9617 5.64128,-4.23096q0.70517,-1.19879 1.41031,-1.55139l0.70517,-0.35257l0.14104,-0.21155l0.21153,-0.14105l0.21155,-0.14099l0.14104,-0.21158l0.14102,-0.21155l0.21156,-0.14102l0.21155,-0.70514l0.14104,-0.70517l0.70515,0l0.70515,0l0.14104,1.05774l0.21155,1.05771l5.28871,28.55899q5.2887,28.55899 10.22481,45.13019q4.93611,16.57126 8.25037,22.7767q3.38478,6.13489 4.08992,6.34644q0.70517,0.14102 1.05775,1.55136q0.35257,1.41028 1.05774,1.41028q0.70515,0 3.1732,3.66687q2.46808,3.73734 9.87224,11.14151q7.40419,7.40417 8.10934,7.61572q0.70515,0.14102 3.17322,2.82065q2.46806,2.60907 5.2887,5.07715q2.82063,2.46805 10.43636,9.02603q7.54523,6.48749 7.75676,7.19266q0.14104,0.70517 5.64128,5.6413q5.42973,4.9361 10.71843,11.6351q5.2887,6.69904 10.57739,17.27643q5.28873,10.57739 7.05161,15.51349q1.76291,4.93613 1.9744,5.99387l0.14108,1.05774l1.05777,-0.14102l1.05774,-0.21155l0.70514,-0.35257q0.70514,-0.3526 2.11548,-1.05777q1.41034,-0.70514 12.69287,-7.75671q11.28256,-7.05161 23.6228,-16.43024q12.34033,-9.30811 14.80841,-12.48132q2.46805,-3.17322 3.17319,-3.31427q0.70517,-0.21155 3.52579,-3.52579q2.82068,-3.38477 3.52582,-3.52582q0.70514,-0.21155 10.22485,-11.28256l9.51965,-11.14154l0.35254,-0.14099q0.3526,-0.21158 0.3526,-0.42313l0,-0.14105l0.3526,-0.14099q0.35254,-0.21155 0.49359,-0.4231l0.21155,-0.14102l0.21155,-0.14102l0.14099,-0.21158l0.14102,-0.21155l0.21161,-0.14102l0.21152,-0.14102l0.14105,-0.21158l0.14102,-0.21152l0.21152,-0.14105l0.21158,-0.14102l0.14102,-0.21155l0.14105,-0.21155l0.21152,-0.14105l0.21155,-0.14102l0.14108,-0.21155l0.14102,-0.21155l0.21152,-0.14105l0.21155,-0.14102l0.14105,-0.21155l0.14105,-0.21155l0.21155,-0.14102l0.21152,0.14102l0.14105,0.21155l0.35257,0l0.35257,0l0.14102,-0.21155l0.21155,-0.14102l0.21158,0.14102l0.14105,0.21155l0.70511,0.21155l0.70514,0.14102l0,1.41034l0,1.41034l-0.14099,0.70511l-0.21158,0.70517l-0.35257,0.70517l-0.3526,0.70517l-0.91669,1.41034q-0.84616,1.41031 -1.55133,1.41031q-0.70514,0 -2.46805,2.6796q-1.76291,2.6091 -2.11551,4.23096q-0.35254,1.55139 -1.62186,1.90396q-1.19879,0.35257 -3.31424,3.17322q-2.11548,2.82065 -3.0322,3.17322q-0.84622,0.3526 -0.84622,1.41031q0,1.05774 -2.25647,2.82065q-2.32703,1.76291 -2.53857,2.46805q-0.14105,0.70517 -0.84619,0.70517q-0.70514,0 -2.11548,2.11548q-1.41034,2.11548 -2.11548,2.11548q-0.7052,0 -3.17325,2.6796q-2.46802,2.6091 -5.99384,6.13492q-3.52579,3.52579 -5.28867,4.72458q-1.76294,1.26926 -1.76294,1.97443q0,0.70514 -1.76288,1.05771q-1.76294,0.3526 -2.46805,1.90396q-0.70517,1.62186 -2.25656,2.11548q-1.62186,0.56412 -2.82062,1.83337q-1.26929,1.19882 -1.97446,1.41034q-0.70511,0.14105 -0.70511,0.84622q0,0.70517 -1.26932,1.05774q-1.19882,0.35257 -2.11548,1.62186q-0.84622,1.19876 -2.11551,1.69238q-1.19873,0.56412 -1.41031,1.26929q-0.14102,0.70517 -1.90393,0.70517q-1.76288,0 -1.76288,1.05771q0,1.05774 -2.11551,1.41034q-2.11548,0.35257 -2.46808,1.19879q-0.35251,0.91669 -6.55792,4.23096q-6.13489,3.38477 -6.62851,4.23096q-0.56418,0.91669 -6.91061,3.73734q-6.34641,2.82062 -7.05157,3.17322l-0.70514,0.35257l-0.35257,0l-0.35263,0l-0.14105,-0.21152l-0.21149,-0.14105l-0.35263,-0.70517l-0.35251,-0.70517l-0.21161,-1.76288q-0.14099,-1.76291 -0.84619,-1.76291q-0.70514,0 -1.05774,-3.66684q-0.35254,-3.73734 -2.82062,-10.08377q-2.46808,-6.34644 -3.17322,-8.67346q-0.70517,-2.2565 -1.41028,-2.2565q-0.7052,0 -1.0578,-1.76291q-0.35254,-1.76291 -1.05774,-1.76291q-0.70514,0 -0.70514,-1.41031q0,-1.41031 -0.70517,-1.55136q-0.70517,-0.21155 -2.46806,-3.94888q-1.76286,-3.66684 -2.46803,-3.80786q-0.70517,-0.21158 -1.05775,-1.12827q-0.35258,-0.84619 -1.05772,-0.84619q-0.70517,0 -2.25653,-2.11548q-1.62186,-2.11548 -3.24373,-3.52579q-1.55135,-1.41034 -4.72458,-5.07718q-3.1732,-3.73734 -5.64127,-6.34644q-2.46805,-2.6796 -4.23096,-3.38474q-1.76289,-0.70517 -1.90395,-1.41034q-0.21153,-0.70514 -2.11548,-1.41031q-1.97444,-0.70517 -1.97444,-1.76291q0,-1.05774 -1.26927,-2.11548q-1.19879,-1.05777 -3.5258,-2.46808q-2.25652,-1.41031 -2.25652,-2.11548q0,-0.70514 -0.70517,-0.84619q-0.70515,-0.21155 -1.05772,-1.12823q-0.35258,-0.84622 -1.05774,-0.98724q-0.70517,-0.21155 -4.08994,-3.52579q-3.31424,-3.38477 -4.93611,-4.08994q-1.55136,-0.70517 -1.55136,-1.76291q0,-1.05774 -0.70517,-1.19876q-0.70514,-0.21155 -1.76288,-1.41031q-1.05775,-1.26929 -1.76291,-1.26929q-0.70515,0 -2.11546,-2.46808q-1.41032,-2.46805 -3.87839,-4.44247q-2.46806,-1.90396 -3.17322,-3.52582q-0.70517,-1.55136 -1.41031,-1.69238q-0.70518,-0.21155 -1.2693,-1.41034q-0.49362,-1.26929 -1.41032,-1.62186q-0.84619,-0.35257 -0.98723,-1.41031q-0.21155,-1.05774 -1.8334,-2.32703q-1.55136,-1.19879 -2.60909,-3.31427q-1.05774,-2.11548 -2.46806,-5.42972q-1.41032,-3.38477 -2.11548,-3.38477q-0.70515,0 -2.25652,-5.64127q-1.62186,-5.6413 -2.53857,-9.87225q-0.84619,-4.23096 -1.55135,-4.23096q-0.70517,0 -2.11548,-7.75674q-1.41034,-7.75677 -2.11549,-7.75677q-0.70514,0 -2.11548,-10.22482q-1.41032,-10.22482 -2.11548,-10.22482q-0.70515,0 -1.05775,-6.69901q-0.35255,-6.69901 -1.05772,-6.69901q-0.70515,0 -0.70515,-2.46808q0,-2.46805 -0.70517,-2.46805q-0.70514,0 -0.56412,-0.70514q0.21155,-0.70517 -0.49361,-3.52585l-0.70517,-2.82059l-0.21153,-0.14105l-0.14105,-0.21155l0.14105,-0.21152l0.21153,-0.14108l0,-0.70514l0,-0.70517l-0.21153,0.14105l-0.14105,0.21155l-0.14102,0.21155l-0.21156,0.14102l-0.21153,0.14105l-0.14105,0.21152l-0.70514,0.35257l-0.70517,0.3526l-0.14104,0.21155l-0.21155,0.14105l-0.21153,0.14102q-0.14104,0.21155 -7.8978,4.23096l-7.75682,4.0899l-0.1411,-0.35257q-0.2115,-0.3526 -0.42303,-0.49356q-0.14102,-0.21161 -3.31425,0.49356q-3.17322,0.70514 -17.62906,1.41031q-14.45577,0.70517 -23.2702,-1.05774q-8.81457,-1.76288 -13.04549,-1.97443q-4.23096,-0.14102 -4.23096,-0.84619q0,-0.70517 -5.99385,-1.55136l-5.9939,-0.91672l-0.70516,0l-0.70516,0l-0.14096,-0.21152l-0.21162,-0.14108l-0.21155,-0.14099l-0.14096,-0.21158l-0.14104,-0.21152l-0.21162,-0.14105l-0.21154,-0.14099l-0.14096,-0.21158l0.14096,-0.21155l0.21154,-0.14102l0.21162,-0.14102l0.14104,-0.21158l1.41025,-0.35257l1.41032,-0.35257l5.28873,-0.91669q5.2887,-0.84622 5.64127,-1.69241q0.35258,-0.91672 1.7629,-0.91672q1.41032,0 9.87228,-2.11545q8.46191,-2.11551 13.96208,-4.72458q5.42974,-2.67963 6.84005,-4.08994q1.41032,-1.41031 1.62187,-1.55133l0.14103,-0.21155l0.14111,-0.21155l0.21148,-0.14105l0.21155,-0.14102l0.14103,-0.21158l0.1411,-0.21152l0.21148,-0.14105l0.35258,-0.70514l0.35258,-0.70517l0.21155,-0.14102l0.14104,-0.21158l0.1411,-0.21155l0.21148,-0.14102l0.21155,-0.14099l0.14103,-0.21158l0.14111,-0.21155l0.21148,-0.14102l0.21154,-1.05774l0.14103,-1.05777l-0.70515,0.14108l-0.70515,0.21152l-2.46807,0.3526q-2.46806,0.35257 -20.44955,0.84616q-17.98161,0.56415 -17.98161,-0.14102q0,-0.70514 -5.28873,-1.55133q-5.28863,-0.91675 -15.8661,-5.85284q-10.57739,-4.93613 -22.56504,-14.80836l-11.98772,-9.87222l-0.70516,-0.35258l-0.70516,-0.35257l-0.1411,-0.21156l-0.21148,-0.14102l-0.21162,-0.14104l-0.14096,-0.21155l-0.1411,-0.21155l-0.21148,-0.14102l-0.21162,-0.14104l-0.14096,-0.21155l-0.1411,-0.21155l-0.21148,-0.14104l-0.21162,-0.14102l-0.14096,-0.21156l-0.1411,-0.21155l-0.21148,-0.14102l-0.21163,0l-0.14096,0l0.14096,-0.35258l0.21163,-0.35257l0.21148,-0.14104l0.1411,-0.21155l0.14096,-0.21155l0.21162,-0.14104l0.21148,0l0.1411,0l0,0.14104l0,0.21155l0.14096,0.21155l0.21162,0.14104l0.21148,0.14102l0.1411,0.21155l1.7629,0.35258l1.7629,0.35257l13.75054,3.5258q13.75062,3.5258 16.57126,3.31424q2.82064,-0.14102 2.82064,0.56415q0,0.70515 9.51966,-0.56415q9.51969,-1.19876 19.03936,-5.07713q9.51968,-3.87839 18.33411,-8.8145q8.8145,-4.93611 9.51966,-5.2887l0.70515,-0.35258l0.70516,-0.35258l0.70516,-0.35258l0.14111,-0.21153l0.21147,-0.14102l0.21156,-0.14104l0.14103,-0.21155l0.70515,-0.35258l0.70516,-0.35258l-0.70516,-0.35258l-0.70515,-0.35257l-0.14103,-0.21155l-0.21156,-0.14104l-0.21147,-0.14102l-0.14111,-0.21156l-1.05774,-0.35257l-1.05774,-0.35258l-0.14103,-0.21155q-0.21156,-0.14102 -2.11549,-0.84619q-1.97444,-0.70517 -2.11548,-1.41031q-0.21155,-0.70517 -1.41032,-1.2693q-1.26929,-0.49361 -10.78887,-7.19263q-9.51969,-6.69902 -17.13542,-14.24422q-7.54524,-7.61572 -8.74394,-7.61572l-1.26929,0l-0.14103,-2.11549q-0.21155,-2.11546 -1.62187,-3.52579q-1.41032,-1.41032 -1.62187,-2.11548q-0.14103,-0.70517 -0.84619,-0.70517q-0.70516,0 -2.82064,-4.79507q-2.11548,-4.72458 -3.38477,-7.75676q-1.19877,-2.96167 -1.41032,-5.07715q-0.14103,-2.11548 -0.84619,-2.11548q-0.70516,0 -1.26929,-8.46191q-0.49361,-8.46193 -0.28206,-13.04547q0.14103,-4.58382 0.98722,-4.9364q0.91671,-0.35257 0.70516,-1.05774q-0.14103,-0.70515 0.56413,-0.70515q0.70516,0 0.70516,-1.26929q0,-1.19878 1.41032,-3.66683q1.41032,-2.46806 3.17322,-5.78231q1.7629,-3.38477 2.60909,-3.73734q0.91671,-0.35258 2.82064,-3.03219q1.97445,-2.60909 3.03219,-3.10271q1.05774,-0.56413 2.46803,-2.53857q1.41032,-1.90393 2.11548,-2.11549q0.70515,-0.14103 2.82064,-2.39754q2.11547,-2.32703 8.81452,-6.20541q6.69902,-3.87838 8.46191,-4.08993q1.7629,-0.14103 2.11548,-0.98723q0.35258,-0.9167 6.13489,-2.82064q5.85283,-1.97444 16.92384,-3.94889q11.14152,-1.90393 28.41794,-1.19877q17.27647,0.70515 21.50743,0.70515q4.23097,0 4.93613,-1.41032q0.70515,-1.41032 1.41032,-1.62186q0.70515,-0.14104 1.05772,-1.90393q0.35258,-1.7629 1.05775,-1.7629q0.70515,0 3.87837,-5.50024q3.1732,-5.42973 4.23096,-5.64128q1.05774,-0.14103 2.46806,-3.10269q1.41032,-3.03219 2.11548,-3.24375q0.70515,-0.14104 2.11548,-3.31426q1.41031,-3.17321 2.11549,-3.17321q0.70514,0 1.05771,-0.8462q0.3526,-0.9167 1.05775,-1.12826q0.70517,-0.14103 2.11548,-2.11547q1.41032,-1.90393 2.11548,-2.11548q0.70517,-0.14104 1.76291,-2.11548q1.05774,-1.90394 9.37862,-9.87224q8.25037,-7.89779 8.4619,-8.60295q0.14105,-0.70516 1.90395,-1.26929q1.76291,-0.49361 2.11548,-0.70516l0.35258,-0.14103l0.14104,0q0.21153,0 0.42308,-0.35258l0,0zm-81.51653,274.09587q0.21155,-0.14102 0.42302,0q0.1411,0.21155 -0.21147,0.21155q-0.35258,0 -0.21155,-0.21155z" class="color" fill-rule="evenodd" fill="#FDC10D"/>
  <path d="m326.03979,26.52301l0,-0.14103l9.51965,-0.56413q9.51962,-0.49361 15.51349,1.62186q5.99384,2.11548 7.40417,4.44251q1.41031,2.25651 2.46808,2.25651q1.05774,0 2.82062,4.37199q1.76288,4.4425 2.46808,6.2054q0.70514,1.76291 1.41031,1.97445q0.70514,0.14103 1.76285,3.5258q1.05774,3.31422 1.76294,3.52576q0.70514,0.14103 5.07715,8.95553q4.4425,8.81452 5.35919,11.07103q0.84619,2.32703 1.90393,5.64128q1.0578,3.38477 2.11548,3.38477q1.05777,0 1.76294,1.97445q0.70514,1.90393 2.82065,6.84005q2.11545,4.93612 2.82062,5.1476q0.70517,0.1411 0.70517,1.904q0,1.7629 0.70514,1.7629q0.7052,0 1.55136,3.17321q0.91672,3.17323 3.94888,7.96832q2.96167,4.72457 6.13492,7.89778q3.17319,3.17322 5.28867,3.87838q2.11548,0.70516 4.58356,-1.7629q2.46802,-2.46806 3.52582,-2.6796q1.05771,-0.14104 1.41028,-1.55136q0.3526,-1.41032 1.05777,-1.41032q0.70514,0 0.70514,-0.70516q0,-0.70515 2.96164,-2.82063q3.03223,-2.11549 5.35925,-4.08993q2.25647,-1.90394 3.31421,-3.10271q1.0578,-1.26929 3.03223,-1.97444q1.90393,-0.70516 4.23096,-1.7629q2.25647,-1.05774 2.25647,-2.11548q0,-1.05775 1.26932,-1.05775q1.19876,0 7.33371,-1.55141q6.20538,-1.6218 12.55182,-1.26922q6.34644,0.35258 6.69897,1.26922q0.35263,0.84626 2.46808,0.84626q2.11545,0 2.11545,1.05774q0,1.05774 1.97449,1.7629q1.90393,0.70515 3.10272,3.17321q1.26926,2.46806 2.53854,3.17323q1.19879,0.70515 3.31427,8.81449q2.11548,8.10934 1.76288,20.09734q-0.35254,11.98772 -2.11548,19.39189q-1.76288,7.40417 -1.55133,8.10933l0.14105,0.70517l-1.05777,0q-1.05771,0 -1.19876,0.70515q-0.21155,0.70517 -4.23096,9.30811q-4.0899,8.67348 -4.7951,10.57741q-0.70517,1.97444 -1.55133,2.6796q-0.91675,0.70517 -4.23099,4.37199q-3.38474,3.73735 -4.0899,5.35922q-0.70517,1.55135 -1.41031,1.69237q-0.7052,0.21156 -1.55139,1.83342q-0.91669,1.55135 -2.11545,2.11549q-1.26932,0.49361 -2.32706,1.69237q-1.05774,1.26929 -1.76288,1.41032q-0.70514,0.21155 -1.76288,1.41031q-1.05777,1.2693 -3.73734,2.32704q-2.6091,1.05774 -5.92337,3.03218q-3.38477,1.90393 -9.37866,4.01941l-5.99384,2.11548l-0.14099,0.21155l-0.21158,0.14104l1.05771,2.46806q1.0578,2.46805 -1.76285,29.26411q-2.82065,26.79608 -3.87839,32.08478q-1.05774,5.2887 -0.3526,7.40417q0.70514,2.11548 -1.05771,4.9361q-1.76291,2.82068 -4.7951,13.53906q-2.9617,10.78897 -3.66684,14.80838q-0.70517,4.0899 -1.41031,4.0899q-0.70517,0 -0.35257,0.84622q0.35257,0.91669 -0.3526,1.12827q-0.70514,0.14102 -0.35254,1.41031q0.35254,1.19876 -0.3526,1.41031q-0.70514,0.14102 -2.25653,4.72455q-1.62189,4.58353 -1.62189,6.34644q0,1.76291 0.21161,2.11551l0.14099,0.35257l-0.3526,0.14102l-0.35254,0.21158l-0.14102,0.21155l-0.21155,0.14102l-0.21158,0.70514l-0.14099,0.70517l-0.7052,0l-0.70517,0l-0.14102,1.05774l-0.21152,1.05774l-1.05777,3.17322q-1.05774,3.17322 -1.26932,4.01941q-0.14102,0.91669 -1.41031,2.11548q-1.19873,1.26929 -2.11548,4.79507q-0.84619,3.52582 -1.55133,3.52582q-0.70514,0 -1.05774,2.46805q-0.35254,2.46808 -1.19876,2.82065q-0.91669,0.35257 -2.11548,3.0322q-1.26932,2.60907 -1.97443,2.82065q-0.70517,0.14099 -1.97449,3.66681q-1.19876,3.52579 -2.11548,3.87839q-0.84619,0.35257 -1.5513,3.17319q-0.7052,2.82065 -1.41034,2.82065q-0.7052,0 -1.05774,1.26932q-0.3526,1.19873 -1.05774,1.41034q-0.70517,0.14099 -0.70517,1.19873q0,1.05774 -0.70517,1.05774q-0.70514,0 -2.11548,3.87839q-1.41034,3.87839 -2.82065,4.23093q-1.41031,0.3526 -1.41031,1.41034q0,1.05774 -0.70517,1.05774q-0.70517,0 -0.84622,0.70517q-0.21149,0.70517 -0.4231,0.84619l-0.14099,0.21155l-0.3526,0.21158l-0.3526,0.14102l0,-1.41034l0,-1.41034l-0.70514,-0.14102l-0.70511,-0.21155l-0.14105,-0.21155l-0.21158,-0.14102l-0.21155,0.14102l-0.14102,0.21155l-0.35257,0l-0.35257,0l-0.14105,-0.21155l-0.21152,-0.14102l-0.21155,0.14102l-0.14105,0.21155l-0.14105,0.21155l-0.21155,0.14102l-0.21152,0.14105l-0.14102,0.21155l-0.14108,0.21155l-0.21155,0.14102l-0.21152,0.14105l-0.14105,0.21155l-0.14102,0.21155l-0.21158,0.14102l-0.21152,0.14105l-0.14102,0.21152l-0.14105,0.21158l-0.21152,0.14102l-0.21161,0.14102l-0.14102,0.21155l-0.14099,0.21158l-0.21155,0.14102l-0.21155,0.70511l-0.14105,0.70517l-0.70514,0l-0.70514,0l0.14099,-0.70517l0.21155,-0.70511l0.21155,-0.14102l0.14105,-0.21158l0.14105,-0.21155l0.21155,-0.14102l0.21155,-0.14102l0.14099,-0.21158l0.14105,-0.21152l0.21155,-0.14105l0.21155,-0.14102l0.14099,-0.21155l0.14102,-0.21155l0.21161,-0.14105l0.35257,-0.70517l0.35254,-0.70514l0.21158,-0.14102l0.14102,-0.21158l0.14105,-0.21152q0.21152,-0.14105 3.24374,-4.51303q2.96164,-4.4425 5.78229,-9.87222q2.82065,-5.50027 3.52579,-5.50027q0.7052,0 4.23096,-6.91055q3.52582,-6.84003 9.30811,-19.32138q5.85284,-12.55185 12.55185,-32.6489q6.69907,-20.09705 10.93002,-39.84152q4.23096,-19.74448 5.99384,-41.25185q1.76288,-21.50735 -1.97449,-24.18697l-3.66678,-2.60909l-0.7052,-0.35258l-0.70517,-0.35258l-0.14099,-0.21155l-0.21155,-0.14104l-0.21155,-0.70514l-0.14105,-0.70517l0.70514,-0.14104l0.70517,-0.21155l1.41037,-0.35258l1.41028,-0.35257l1.05774,-0.35258q1.05774,-0.35258 7.40421,-2.82065q6.34641,-2.46805 14.80832,-6.69901q8.46191,-4.23094 15.16095,-10.92998q6.69904,-6.69902 12.34033,-15.86609q5.64124,-9.16708 9.30807,-20.94325q3.73734,-11.84669 3.73734,-25.24472q0,-13.39832 -2.60907,-19.18062q-2.67966,-5.85283 -6.20544,-8.32089q-3.52576,-2.46806 -9.51959,-2.82063q-5.99387,-0.35258 -9.16711,0.70516q-3.17322,1.05774 -10.08377,5.07715q-6.84006,4.08993 -9.44919,5.85282q-2.67957,1.7629 -2.82062,2.46806q-0.21155,0.70515 -6.34644,6.48746q-6.20538,5.85284 -13.96216,10.43665l-7.75674,4.58354l-1.05777,0.21153l-1.05774,0.14104l-0.14099,-1.05774q-0.21155,-1.05774 -1.26929,-4.23096q-1.05774,-3.17351 -8.10938,-19.39217q-7.05157,-16.21867 -22.21252,-46.54061q-15.16092,-30.32187 -17.77002,-31.87321q-2.67963,-1.62188 -12.55185,-1.97445q-9.87222,-0.35258 -21.85995,2.11548q-11.9877,2.46806 -17.98154,2.82064q-5.99387,0.35257 -9.16708,-1.41032q-3.17322,-1.7629 -5.6413,-4.37199q-2.46802,-2.67961 -7.5452,-6.91057q-5.14764,-4.23096 -10.57742,-7.61572q-5.50018,-3.31426 -14.31471,-3.31426q-8.8145,0 -16.92384,3.5258q-8.10934,3.5258 -9.16707,4.72457l-1.05774,1.26929l-0.70517,0.14103l-0.70515,0.21155l-0.70515,0.21155l-0.70517,0.14103l0,-2.46806l0,-2.46806l-0.70515,-0.14103l-0.70515,-0.21155l-0.70517,-0.21154l-0.70515,-0.14104l0,-0.70516l0,-0.70516l4.58354,-1.7629q4.58354,-1.7629 4.58354,-2.46807q0,-0.70516 0.70515,-0.84619q0.70515,-0.21155 1.76289,-0.56413l1.05775,-0.35258l0.14102,-0.21154l0.21155,-0.14103l0.21155,-0.14103l0.14102,-0.21155l0.14104,-0.21154l0.21155,-0.14104l0.21153,-0.35258l0.14105,-0.35258l2.11548,-0.14103q2.11548,-0.21155 7.75676,-1.62187q5.64127,-1.41032 11.42357,-0.9167q5.85286,0.56412 7.75676,1.12832q1.97449,0.49361 5.35925,2.39748q3.31424,1.97444 7.5452,5.50025q4.23096,3.52579 5.85278,4.23096q1.55142,0.70516 4.01944,3.66683q2.46805,3.03218 5.2887,5.14767q2.82065,2.11548 11.9877,1.41032q9.16711,-0.70516 16.21872,-2.46806q7.05161,-1.7629 7.05161,-1.97445l0,0.00007z"  fill-rule="evenodd" class="color" fill="#FCC10D"/>
  <path d="m281.26208,199.14639l5.2887,0.35257l0.14105,0.21156l0.21158,0.14104l0.21155,0.14102l0.14102,0.21155l0.14099,0.21155l0.21161,0.14104l0,0.35258l0,0.35257l-0.21161,0.14104l-0.14099,0.21156l-2.11548,0.35255l-2.11545,0.35258l-3.52585,0q-3.52579,0 -6.69897,-0.35258q-3.17328,-0.35255 -4.93616,-1.26929q-1.76288,-0.84618 -1.62186,-0.14102q0.21158,0.70515 -1.41034,1.97446q-1.55136,1.19876 -7.5452,3.31424q-5.99387,2.11548 -11.63513,2.46806q-5.64128,0.35257 -10.57741,-1.76289q-4.93611,-2.11549 -8.10931,-4.93611q-3.17323,-2.82065 -5.99387,-8.10934q-2.82063,-5.28871 -7.05161,-5.64128l-4.23096,-0.35258l-0.14104,0.21155l-0.21155,0.14104l-0.21155,0.14102l-0.14102,0.21155l-0.70515,0.35257l-0.70517,0.35258l-0.70517,0.21156l-0.70515,0.14102l0.14104,-1.05774l0.21155,-1.05774l0.35257,-0.70515l0.3526,-0.70515l0.21152,-0.14104l0.14105,-0.21155l0.14102,-0.21156l0.21156,-0.14101l0.21153,-0.14105l0.14105,-0.21153l0.70515,-0.35258l0.70515,-0.35258l0.14104,-0.21155l0.21155,-0.14104l3.03218,-1.97444q2.96167,-1.90392 6.13489,-2.96167q3.17322,-1.05774 8.46191,-0.70515q5.2887,0.35257 11.77617,2.67961q6.55798,2.2565 16.07765,7.5452q9.51967,5.28871 14.94936,7.96832q5.50027,2.60909 10.78894,2.96165l0,0z" stroke-width="0.5px" stroke="#FDC10D" fill-rule="evenodd" fill="#FDC10D"/>
  <path d="m341.20068,203.02478l-6.69901,0l-0.70517,-0.35258l-0.7052,-0.35258l3.17328,-0.35258l3.17319,-0.35255l0.14105,-0.21156q0.21155,-0.14104 2.82062,-1.41032q2.67963,-1.19876 4.44254,-3.10269q1.76288,-1.97446 2.82062,-2.11548q1.05774,-0.21156 2.82068,-1.97446q1.76288,-1.76289 9.51965,-5.64128q7.75671,-3.87837 14.10315,-4.23096q6.34644,-0.35257 8.10938,0.35258q1.76288,0.70515 3.7373,2.32703q1.90396,1.55135 -1.8334,1.90393q-3.66684,0.35258 -4.51303,4.58354q-0.91669,4.23096 -2.67957,6.69902q-1.76294,2.46805 -4.7951,3.73735q-2.96167,1.19876 -3.66687,1.90392q-0.70514,0.70515 -7.40411,1.05774q-6.69904,0.35258 -10.92999,-1.05774q-4.23096,-1.41031 -10.92999,-1.41031zm7.54523,-1.19878q-0.14105,-0.21153 0,-0.4231q0.21155,-0.14104 0.21155,0.21156q0,0.35255 -0.21155,0.21153l0,0z" stroke-width="0.5px" stroke="#FEC10D" fill-rule="evenodd" fill="#FEC10D"/>
 </g>
</svg>