<svg xmlns="http://www.w3.org/2000/svg" width="50" height="50">
 <g>
  <title>Layer 1</title>
  <g id="layer1">
   <path d="m31.10575,423.40396c-0.77525,-0.93411 -2.9909,-2.51843 -4.92372,-3.5202c-1.93279,-1.0025 -5.01443,-3.7178 -6.84807,-6.03418l-3.3339,-4.21133l0,-20.31262l0,-20.31323l3.35213,-7.16324c1.84368,-3.93964 3.7273,-7.16318 4.1859,-7.16318c0.45861,0 4.92199,-3.8981 9.91872,-8.66312c4.99667,-4.7644 9.41314,-8.66443 9.81425,-8.66632c1.58501,-0.0083 7.56915,-5.86343 9.18426,-8.9866c0.97659,-1.88864 1.86344,-6.83142 2.06647,-11.51718c0.24309,-5.60959 1.06107,-9.56714 2.58367,-12.49982c1.22536,-2.36044 2.23507,-6.01685 2.2439,-8.1254c0.00877,-2.10794 0.72874,-5.05212 1.59984,-6.54178c0.8711,-1.48901 2.78529,-5.21643 4.2538,-8.28271c1.46843,-3.06631 3.79546,-6.73743 5.17103,-8.15866c13.32673,-13.76892 19.85125,-23.70753 21.82491,-33.24336c1.47818,-7.14145 5.58021,-15.99895 8.98791,-19.40599c0.91875,-0.9194 2.79713,-3.45503 4.17299,-5.63519c2.9608,-4.69022 17.25078,-19.52365 18.80887,-19.52365c0.59457,0 2.60596,-1.28252 4.46901,-2.85022c4.66656,-3.92683 21.22688,-12.3163 24.31044,-12.3163c1.38992,0 4.66019,-0.93025 7.26807,-2.06636c3.69667,-1.61052 8.56465,-2.22427 22.07527,-2.78307c14.56042,-0.60228 18.37346,-1.12654 23.83345,-3.27538c3.57523,-1.40718 7.75462,-2.82397 9.28778,-3.14812c1.53316,-0.32416 4.60135,-1.82022 6.81859,-3.32462c2.21727,-1.50499 4.45686,-2.73639 4.97731,-2.73639c2.6277,0 11.31509,-4.67871 13.89679,-7.48415c6.26746,-6.81221 31.53183,-17.40871 41.5433,-17.42406c5.26117,-0.0083 5.18506,0.03325 21.55042,-11.92506c13.75739,-10.05277 13.7478,-10.04089 14.24454,-17.84129c0.33054,-5.18929 1.03766,-7.64609 2.72748,-9.47762c1.25433,-1.35989 3.00937,-4.66628 3.90063,-7.34755c0.93472,-2.81331 2.39114,-5.0301 3.44284,-5.24171c3.49594,-0.70322 7.04047,0.96169 8.64267,4.05911c2.66095,5.14621 8.04169,9.8493 11.26843,9.8493c4.95941,0 7.39151,-2.70328 9.98785,-11.10196c2.58167,-8.35137 6.16449,-14.86252 8.18936,-14.88464c2.00174,-0.02187 8.95654,8.35078 9.64063,11.60511c2.66995,12.70825 4.37378,16.54816 7.34286,16.54816c0.5965,0 2.59256,1.1097 4.43643,2.46594c1.84387,1.35637 5.18954,3.42203 7.43497,4.59056c2.24539,1.16846 5.90112,4.02678 8.12476,6.35188c10.32672,10.79935 10.52106,10.93872 17.1044,12.28775c3.54065,0.72565 8.56143,1.62968 11.15652,2.00945c9.85617,1.44173 11.95447,9.19377 4.49014,16.58395c-3.46332,3.42882 -4.33347,5.07576 -4.33347,8.20088c0,2.52414 -0.59271,4.13847 -1.67059,4.55214c-0.936,0.35867 -1.53128,1.63287 -1.35413,2.89622c0.50375,3.59245 -6.83783,7.18814 -14.72223,7.20987c-5.811,0.01662 -6.66968,0.33568 -9.75,3.62445c-1.85791,1.98389 -4.9389,6.73677 -6.84607,10.56259c-3.66666,7.35503 -9.28647,13.85143 -15.85577,18.33064c-3.85141,2.62643 -10.46796,11.39249 -10.46796,13.86995c0,1.09967 -1.13226,4.9888 -4.35202,14.94403c-0.8107,2.50623 -0.6713,4.52911 0.54984,7.99051c0.89951,2.54909 1.63544,5.94144 1.63544,7.53854c0,1.59641 1.21857,4.55467 2.70825,6.57372c1.48969,2.01904 2.70825,4.72923 2.70825,6.02263c0,3.7261 3.99527,7.83963 10.64832,10.96283c3.37891,1.58685 8.28525,4.50803 10.90338,6.49124c2.61804,1.98389 5.35446,3.60654 6.08017,3.60654c1.67377,0 7.97769,4.79446 15.96118,12.13925c5.15253,4.73947 7.28723,5.93695 12.45825,6.98547c3.43271,0.69626 10.36765,2.53052 15.41205,4.07584c8.09216,2.48001 10.32285,2.72998 18.95844,2.12772l9.78647,-0.68283l4.54834,3.6564c4.23752,3.40643 4.55212,4.0311 4.60452,9.13049l0.05563,5.47342l-5.68762,2.04465c-3.12766,1.12396 -6.90619,2.68011 -8.39587,3.45691c-1.48904,0.77747 -3.24911,1.41617 -3.90958,1.41934c-0.66107,0.00385 -4.80466,1.65527 -9.2085,3.67047c-4.40381,2.01459 -10.79147,3.99719 -14.19467,4.40576c-5.90372,0.70901 -6.53284,0.53833 -13.67944,-3.70758c-4.18765,-2.4877 -9.81836,-4.8392 -12.77026,-5.33212c-2.90323,-0.48529 -8.1868,-1.92828 -11.74155,-3.20566c-4.86414,-1.74927 -8.96548,-2.32404 -16.58395,-2.32404c-21.11557,0 -31.33743,-3.27472 -44.22089,-14.16852c-3.46841,-2.93204 -6.63831,-5.33148 -7.04553,-5.33148c-0.40668,0 -2.62137,-1.69489 -4.92169,-3.76636c-3.70242,-3.33484 -4.87183,-3.76959 -10.19885,-3.79196c-5.4689,-0.0224 -6.35123,0.32031 -9.69177,3.76703c-2.02097,2.08487 -4.2446,3.79129 -4.94089,3.79129c-0.69687,0 -2.55096,1.0108 -4.12119,2.24539c-3.44864,2.71338 -3.64233,6.04626 -0.68793,11.83807c1.19171,2.33618 2.16675,5.59424 2.16675,7.24057c0,3.91278 9.63553,13.17947 22.26004,21.40845c12.45444,8.11841 15.05911,12.67245 14.983,26.19202c-0.04346,7.64594 -2.5625,12.33997 -8.75388,16.3103c-6.97015,4.4697 -15.71127,4.69345 -27.39078,0.70074c-9.77563,-3.34253 -10.32419,-3.74466 -12.87006,-9.43292c-1.09836,-2.45313 -3.0426,-5.38962 -4.32068,-6.52448c-1.38547,-1.2301 -2.32397,-3.35532 -2.32397,-5.26117c0,-2.49921 -1.69687,-4.94791 -7.76678,-11.20706c-4.27145,-4.40573 -8.67078,-8.0097 -9.77682,-8.0097c-2.28058,0 -4.12314,3.91919 -4.12314,8.7699c0,4.74905 -5.08215,16.26428 -8.63882,19.57285c-1.70511,1.58685 -3.64429,3.90063 -4.30853,5.14224c-1.17639,2.19809 -8.47772,6.59805 -10.94879,6.59805c-2.53882,0 -19.63361,9.17651 -20.6572,11.08878c-0.88165,1.64697 0.06905,3.1373 5.49387,8.61261c7.45668,7.52637 8.48094,11.2908 3.88916,14.29895c-3.80603,2.49405 -48.71806,2.55292 -52.00491,0.06839c-1.17319,-0.88739 -4.08987,-2.13986 -6.48167,-2.78369c-4.90503,-1.32089 -9.10234,-4.69086 -18.36005,-14.74139c-8.98918,-9.75894 -8.54547,-13.32706 3.0695,-24.66843c12.09447,-11.80933 15.24196,-21.50818 9.84523,-30.33304c-1.45767,-2.38348 -3.14365,-5.4306 -3.74716,-6.7713c-1.84325,-4.095 -2.83934,-3.52023 -11.31129,6.52579c-3.40387,4.03616 -7.10504,9.39899 -8.2245,11.91675c-3.36424,7.56473 -21.96916,23.45816 -31.44809,26.86459c-2.6814,0.96353 -6.24767,2.31573 -7.92467,3.00366c-1.67762,0.6886 -3.68967,1.2518 -4.47221,1.2518c-0.78191,0 -3.30412,0.78644 -5.60384,1.74734c-3.14366,1.3132 -6.47144,1.62396 -13.40321,1.24927c-9.60454,-0.51849 -15.17952,0.56201 -15.17952,2.94162c0,1.25119 3.39619,4.52017 11.27612,10.85352c2.08382,1.67508 2.85999,3.58038 3.41812,8.39587l0.72182,6.22913l-23.28357,0c-19.82261,0 -23.4934,-0.25253 -24.69345,-1.69873l0,0z" id="path3594" fill="maroon" class="color" transform="scale(.10)"></path>
  </g>
 </g>
</svg>