<svg width="50" height="50" xmlns="http://www.w3.org/2000/svg">
 <g>
  <path d="m192.8537,51.85416c17.8492,-13.52788 32.46271,-31.06693 43.36819,-50.57979c4.38477,9.70005 6.68993,20.4716 5.7876,31.12331c-1.41696,19.74551 -11.63866,37.5665 -23.79189,52.70166c-13.77463,16.96098 -30.31262,31.45464 -47.61195,44.70761c-2.78453,2.08661 -4.43411,5.31525 -5.52678,8.54391c-1.04332,3.12994 -0.88118,6.78156 1.08562,9.52379c2.84094,4.01817 7.54996,6.14713 12.08275,7.66277c7.34554,2.33336 15.00827,4.10278 22.76268,3.86307c20.83109,0.18329 41.81024,1.80466 62.02103,7.11293c19.56924,4.86411 38.14456,13.52081 54.64728,25.08189c13.74643,9.60841 26.12531,21.10605 37.1506,33.72456c2.86206,3.57408 5.92856,6.98601 8.63553,10.69403c2.59424,3.38371 5.4986,6.8027 9.48151,8.57915c5.76648,3.00308 12.13919,-0.64854 15.98819,-5.02626c8.84702,-9.98201 14.70511,-22.09999 21.53598,-33.4496c6.8028,-11.32848 13.76764,-22.96007 23.89771,-31.67317c6.76044,-5.90039 15.80481,-9.5661 24.87045,-8.26195c-3.71512,6.73221 -6.13303,14.09184 -7.61343,21.62065c-3.33441,18.35675 -1.75531,37.15761 -4.11682,55.62013c-1.44519,11.5047 -4.8924,22.98117 -11.58932,32.56137c-7.20456,10.46844 -17.61655,18.30743 -28.797,24.10913c-9.43219,4.95572 -19.51291,8.52979 -29.69229,11.61038c2.707,10.89142 5.414,21.78989 8.13507,32.68127c3.56702,1.0574 7.09174,2.24878 10.55301,3.63751c6.4855,2.82684 14.16943,7.3808 14.6911,15.24088c-0.28906,9.60135 -7.66281,16.88342 -14.21878,23.06583c7.80377,6.86615 14.05658,15.6709 16.94687,25.73047c3.46127,11.60336 2.1853,24.8493 -4.65964,35.00046c-4.94873,7.50769 -12.84415,12.87936 -21.5361,15.08585c-5.98495,1.58615 -12.25192,1.72711 -18.38492,1.1702c-10.39096,9.43216 -23.39709,15.79077 -37.10828,18.63873c-9.91864,2.03021 -20.36591,2.42499 -30.21399,-0.21149c-5.24475,-1.4028 -10.19348,-4.06046 -13.90851,-8.05753c-1.27594,-1.75528 -2.4744,-3.55994 -3.849,-5.2377c-18.92072,-22.29034 -44.77104,-37.33389 -71.15714,-49.16281c-5.13902,-2.62247 -10.96893,-3.11591 -16.46748,-4.6033c-20.90868,-5.35052 -41.93718,-12.60443 -59.11667,-26.05481c-8.17735,-6.4502 -15.08581,-14.86725 -18.63873,-24.75058c-2.84798,-8.06458 -3.27799,-16.96802 -1.21251,-25.27225c2.50256,-10.39087 8.07867,-19.94992 15.63568,-27.47873c-7.57816,4.18033 -15.79076,7.02829 -23.85534,10.10184c-17.59541,6.16122 -35.44461,11.95584 -53.89302,14.966c-5.20953,0.90936 -10.50365,1.10669 -15.78369,1.04327c-3.77145,-0.31015 -8.64968,-1.0997 -10.26399,-5.06146c-1.31826,-5.24481 1.96677,-10.00317 4.68082,-14.16943c17.7364,-27.61972 42.88883,-49.83252 70.74119,-66.87804c2.22057,-1.31828 4.3918,-2.7211 6.57713,-4.0887c-9.34757,-3.95473 -18.33562,-8.76952 -26.661,-14.57825c-11.87832,-8.45229 -22.12116,-20.04156 -26.54822,-34.14047c-3.75734,-11.72322 -3.04535,-24.51796 0.56396,-36.19185c4.46935,-14.38792 12.72426,-27.38007 22.74856,-38.53227c4.29311,-4.63855 8.74132,-9.21364 14.00725,-12.76657c30.6369,-22.74854 67.5196,-35.40936 97.62074,-58.97564l0,0l0,0z" fill="#030202"/>
  <path d="m205.24664,50.96593c12.44933,-10.24989 23.65088,-22.24807 31.63789,-36.3399c-0.60626,11.59636 -3.39079,23.05171 -8.10687,33.66112c-7.31027,16.70718 -18.74448,31.20788 -31.2079,44.36919c-11.17337,11.82898 -23.35481,22.64989 -34.65508,34.35196c-4.98396,5.46333 -10.24283,11.02532 -12.93571,18.03953c-1.62138,4.08163 -1.48039,8.88232 0.69084,12.73129c2.17122,4.0182 5.93562,6.88028 9.89037,8.98807c5.85808,3.07355 12.27309,4.87822 18.70218,6.29514c11.15929,2.39682 22.53709,3.49655 33.88669,4.59625c6.57713,6.61237 13.24591,13.83804 15.91765,23.00233c1.74826,5.87221 0.70494,12.15326 -1.50153,17.75052c-23.32661,-11.34256 -48.4579,-18.08186 -73.10982,-25.82918c-6.49957,-2.14304 -13.00623,-4.37064 -19.15334,-7.39487c-6.21056,-2.98895 -12.63261,-7.08472 -15.36778,-13.71823c-2.55191,-6.35861 -0.50757,-13.4292 2.35451,-19.32253c5.08265,-10.1653 12.50571,-18.91368 20.07681,-27.30251c15.19861,-16.58736 32.0609,-31.53217 49.043,-46.24437c0.54282,-0.37363 1.47334,-0.6133 1.61433,-1.33234c-1.76236,0.21854 -2.84796,2.0514 -4.37772,2.86913c-26.74559,18.46249 -58.86992,27.76777 -84.45235,48.10542c-15.31139,11.93472 -27.24612,27.87354 -35.21198,45.52531c0.45822,-6.9296 2.09367,-13.78165 4.83591,-20.15436c4.22967,-9.84103 10.99713,-18.37085 18.63168,-25.79392c14.92368,-14.30331 32.80107,-24.95503 50.33305,-35.69135c21.31047,-12.92867 43.20605,-25.20881 62.46516,-41.1617l0,0l0,0z" fill="#fefefe"/>
  <path d="m248.55139,21.59792c1.6566,0.0423 3.31322,0.09871 4.96982,0.15509c0.42299,0.88823 0.83893,1.78351 1.25482,2.68586c0.1692,1.65658 0.39476,3.30616 0.8248,4.92049c1.4874,4.95574 0.65558,10.18646 0.86707,15.26909c0.28198,6.30222 -0.70493,12.59735 -2.1924,18.7022c-3.20044,9.96086 -8.30423,19.25203 -14.09889,27.9299c-7.21858,9.66478 -14.69809,19.27318 -23.84825,27.20381c-2.17123,1.81876 -3.93359,4.02524 -5.94266,5.99909c-6.21062,5.68186 -12.94984,10.72923 -19.47058,16.05158c-4.43416,3.29208 -8.56509,7.31732 -10.82095,12.4493c-0.56395,0.88118 -0.6133,2.34749 -1.84694,2.57307c-4.53279,-1.51564 -9.24182,-3.64459 -12.08276,-7.66278c-1.96678,-2.74222 -2.12895,-6.39383 -1.0856,-9.52377c1.09265,-3.22867 2.74225,-6.45731 5.52679,-8.54391c17.29933,-13.25297 33.83733,-27.74663 47.61195,-44.70761c12.15323,-15.13516 22.37492,-32.95615 23.79189,-52.70166c1.55081,-3.94063 4.32129,-7.23274 6.5419,-10.79976l0,0z" fill="#b4b4b4"/>
  <path d="m219.23976,173.88007c22.02249,1.9245 44.07317,5.63249 64.84084,13.4292c17.64474,6.57007 34.38016,16.29831 47.52737,29.9108c14.86728,15.18449 24.33466,35.09213 28.44452,55.83157c-4.03937,3.24982 -6.54901,8.17737 -6.7605,13.35873c-0.57098,10.39087 3.26392,20.30945 6.62653,29.95309c4.32129,12.38586 9.91861,24.4404 12.14618,37.4537c6.43616,0.00702 12.87234,0.00702 19.31552,0.01407c3.74326,-0.01407 7.79672,1.12088 10.24283,4.13098c1.74124,2.07956 2.05841,5.28705 0.47934,7.55701c-2.18527,3.16519 -6.27396,4.61035 -10.01724,4.38477c-13.40802,-0.66968 -26.82318,-1.26889 -40.23825,-1.91745c-11.77255,-0.81772 -23.74252,0.06348 -35.15555,3.14407c-11.42722,3.0947 -22.30447,9.6084 -28.88867,19.65387c-7.03534,10.41199 -9.16428,23.21381 -9.73529,35.53622c-5.992,-8.43118 -9.48151,-18.79382 -8.87524,-29.19174c0.4653,-10.63763 5.15314,-20.96506 12.71722,-28.4375c7.58521,-7.62747 17.82806,-12.25897 28.37399,-13.95084c12.68198,-2.13599 25.68115,-0.30313 37.92606,3.29208c-11.87128,-22.08591 -24.46863,-43.81937 -38.70853,-64.46719c-9.48148,-13.54901 -19.58334,-26.75967 -31.35596,-38.40535c-11.88535,-11.64569 -25.83621,-22.81906 -42.77603,-25.37799c2.17828,-12.25194 1.30415,-25.20178 -3.72913,-36.6783c-2.989,-7.07059 -7.40193,-13.43622 -12.40001,-19.22382l0,0l0,0z" class="color" fill="#d60000"/>
  <path d="m422.13693,205.82109c7.09879,-11.39191 15.2973,-22.21278 25.27222,-31.25018c-5.6395,13.12607 -7.99408,27.36597 -8.93155,41.54239c-1.14203,15.56517 -1.67783,31.7648 -8.66382,46.06108c-1.77649,3.75735 -4.03937,7.24683 -6.37976,10.6658c4.91345,-15.60748 8.49457,-32.16663 5.96387,-48.57068c-7.16931,13.52084 -14.61359,27.11923 -24.95508,38.53226c-4.71613,5.05444 -10.15115,9.89038 -16.89044,11.96292c-5.62546,1.76236 -12.00522,0.31018 -16.4957,-3.44012c-3.43307,-6.81683 -6.35159,-13.90152 -9.61545,-20.80998c6.60532,3.7926 14.40906,6.97896 22.11407,5.03331c7.85306,-2.01614 13.29529,-8.6003 17.77167,-14.93777c7.64157,-11.16632 13.57019,-23.37596 20.80997,-34.78902l0,0z" fill="#fefefe"/>
  <path d="m462.0791,182.02921c2.56598,-0.58508 5.24475,-0.2608 7.86017,-0.3454c0.74719,0.99397 1.5015,1.99498 2.25571,3.00305c-0.04227,0.58511 -0.13388,1.75533 -0.1832,2.34041c-1.45923,3.2075 -3.5882,6.31631 -3.56702,9.98203c-0.38068,0.58511 -0.7543,1.17726 -1.12793,1.76941c-1.58612,9.17134 -3.45422,18.4061 -2.95374,27.76073c0.47229,6.85912 -1.83282,13.54198 -1.39575,20.39404c-0.69086,8.30424 -1.68488,16.63669 -3.51062,24.77878c-2.67181,8.20557 -6.38684,16.22079 -11.98404,22.86136c-6.65469,8.57211 -15.81897,14.74042 -25.08902,20.16846c-7.47943,3.67279 -15.15631,7.00714 -23.15744,9.38986c-3.10172,0.81775 -5.7453,3.23572 -6.77457,6.26697c0.07056,2.80566 1.50861,5.4281 1.62848,8.26901c1.565,2.86206 1.64954,6.18942 2.03726,9.35461c-3.46127,-1.38873 -6.98599,-2.58011 -10.55301,-3.63751c-2.72107,-10.89139 -5.42807,-21.78986 -8.13507,-32.68127c10.17938,-3.0806 20.2601,-6.65466 29.69229,-11.61038c11.18045,-5.8017 21.59244,-13.64069 28.797,-24.10913c6.69693,-9.5802 10.14413,-21.05667 11.58932,-32.56137c2.36151,-18.46252 0.78241,-37.26338 4.11682,-55.62013c3.0383,-2.62241 6.76044,-4.28607 10.45435,-5.77351l0,0z" fill="#b4b4b4"/>
  <path d="m354.82883,225.31987c2.29813,0.95872 3.55997,3.24275 5.23071,4.96281c3.74326,4.01111 7.62747,7.90242 11.51169,11.79375c0.70496,0.68376 1.00104,1.62842 1.37463,2.51662c-3.98291,-1.77644 -6.88727,-5.19543 -9.48151,-8.57915c-2.70697,-3.70802 -5.77347,-7.11995 -8.63553,-10.69403l0,0z" fill="#b4b4b4"/>
  <path d="m84.29224,235.034c0.05642,-0.86707 0.10572,-1.72005 0.16918,-2.57303c8.32539,5.80873 17.31345,10.62352 26.66098,14.57825c-2.18533,1.3676 -4.35651,2.77042 -6.57711,4.0887c-4.37067,-1.55792 -7.69093,-4.94168 -11.23682,-7.79672c-3.2216,-2.53075 -5.92155,-5.63251 -9.01624,-8.2972z" fill="#b4b4b4"/>
  <path d="m121.70366,254.15916c8.71306,2.56596 17.43326,5.20247 26.39308,6.78862c13.76759,2.6153 27.91583,2.73514 41.81737,1.07147c-0.80368,1.90335 -1.62141,3.8067 -2.45323,5.69598c-6.26697,2.32629 -12.80183,4.08868 -19.51286,4.33539c-9.48152,0.54282 -18.71632,-2.03021 -27.91579,-3.91245c-13.11201,12.97101 -26.74565,25.6741 -42.58573,35.28952c-9.27004,5.56909 -19.43533,10.19351 -30.31968,11.25092c-5.5338,0.57101 -11.13811,-0.07751 -16.43932,-1.74829c24.68012,-18.32852 48.65529,-37.65106 71.01616,-58.77116l0,0z" class="color" fill="#d60000"/>
  <path d="m238.41429,289.84344c0.76131,-6.83795 5.20248,-12.53394 10.08064,-17.08084c10.8562,13.23184 23.15747,25.6882 38.44775,33.74576c-8.06461,3.3978 -16.46051,6.59116 -25.30756,6.9155c-5.64662,0.16913 -11.6245,-0.94464 -16.13622,-4.53281c-4.5186,-5.19547 -7.93062,-11.99112 -7.08463,-19.04761z" fill="#fefefe"/>
  <path d="m109.06397,321.22757c8.06458,-3.07355 16.27718,-5.92151 23.85534,-10.10184c-7.55701,7.52881 -13.13312,17.08786 -15.63568,27.47873c-4.60329,0.69083 -8.67786,3.14401 -13.23181,4.01111c-10.61646,2.89734 -21.12718,6.27402 -31.99742,8.15625c-4.28607,0.22562 -8.3959,1.82581 -12.72426,1.61432c-3.99703,-0.14102 -8.19144,0.48642 -12.0052,-1.04333c-2.45321,-1.06445 -3.78555,-3.55292 -5.40693,-5.53381c0.27492,-2.54486 0.94463,-5.01218 1.83285,-7.40192c-1.46628,-0.36658 -2.91847,-0.74728 -4.3636,-1.17023c5.28004,0.06342 10.57416,-0.13391 15.78369,-1.04327c18.44841,-3.01016 36.29761,-8.80478 53.89302,-14.966l0,0l0,0z" fill="#b4b4b4"/>
  <path d="m410.8085,363.2634c5.39279,2.24173 10.41199,6.04141 13.03439,11.37781c0.54285,1.93155 0.37366,3.98999 0.35956,5.98499c0.00705,3.01718 -1.73422,5.60434 -3.05951,8.19144c-2.16418,4.06757 -6.18939,6.78864 -8.22668,10.92664c-0.63446,3.01016 1.79056,5.36465 3.4472,7.55707c6.21759,7.72617 11.18744,16.91159 12.13202,26.92883c1.39587,6.21762 -0.16913,12.59036 -1.79053,18.61053c-2.79861,8.08578 -8.16327,15.52292 -15.70618,19.77368c-4.33536,2.41098 -8.90344,4.62448 -13.88733,5.23077c-4.99811,1.08557 -10.16534,0.38065 -15.16339,1.5015c-2.65765,1.431 -4.9205,3.45425 -7.409,5.13907c-5.25888,3.26389 -10.77151,6.11185 -16.46045,8.55096c-2.69995,1.19135 -5.65369,1.65659 -8.3606,2.84088c-6.71112,1.42404 -13.52795,2.74225 -20.42932,2.41098c-9.19254,0.43707 -18.79385,-1.63547 -26.28738,-7.16934c-3.34143,-2.34744 -5.21664,-6.0484 -7.86017,-9.0444c-2.38977,-2.86914 -5.85809,-4.89935 -7.41599,-8.38889c3.71503,3.99707 8.66373,6.65472 13.90851,8.05753c9.84808,2.63647 20.29535,2.2417 30.21399,0.21149c13.71118,-2.84796 26.71741,-9.20657 37.10825,-18.63873c6.13309,0.55692 12.39999,0.41595 18.38504,-1.1702c8.69186,-2.20648 16.58728,-7.57816 21.53601,-15.08585c6.84494,-10.15115 8.12091,-23.39709 4.65964,-35.00046c-2.89029,-10.05957 -9.1431,-18.86432 -16.94687,-25.73047c6.55597,-6.1824 13.92972,-13.46448 14.21878,-23.06583z" fill="#b4b4b4"/>
  <path d="m137.13487,388.62729c17.17949,13.45038 38.20799,20.70428 59.11667,26.05481c5.49855,1.4874 11.32846,1.98083 16.46748,4.6033c26.38609,11.82892 52.23642,26.87247 71.15714,49.16281l-0.38776,0.3736c-0.66968,0.02823 -1.32529,-0.02112 -1.97382,-0.14096c-2.31219,-2.79861 -5.51266,-4.61743 -8.21265,-6.99307c-10.70102,-8.17734 -22.44542,-14.85318 -34.31667,-21.16238c-5.39282,-2.7352 -11.05353,-4.89941 -16.48163,-7.55707c-2.284,-1.28302 -5.14609,-0.52872 -7.28912,-2.14301c-3.25682,-0.03525 -6.0907,-2.10077 -9.38986,-1.67776c-0.59917,-0.40887 -1.19838,-0.8107 -1.79054,-1.21252c-1.72006,-0.13397 -3.46127,-0.28903 -5.08969,-0.90231c-7.76851,-2.81979 -15.81897,-4.89935 -23.28432,-8.50867c-14.79681,-6.14008 -28.61371,-15.38898 -38.3913,-28.24011c-0.03525,-0.41592 -0.09868,-1.24069 -0.13394,-1.65665l0,0l0,0z" fill="#b4b4b4"/>
  <path d="m317.43854,413.25812c2.18536,-8.88232 8.81891,-15.95294 16.43933,-20.64078c-2.75635,7.18335 -4.1944,15.49463 -1.00098,22.79083c3.22858,7.48648 10.63757,12.24484 18.22281,14.46548c8.17728,2.46729 17.32755,3.66568 25.45551,0.3736c5.46329,-2.19943 9.46039,-7.50061 9.97501,-13.37982c0.95868,-8.64969 -2.81982,-16.84113 -6.84503,-24.25009c8.90344,1.24066 16.24896,7.75436 20.40814,15.46646c3.7926,6.92258 5.06851,15.60745 1.78345,22.96707c-3.17224,7.28912 -10.15817,12.08981 -17.40509,14.78268c-12.4986,4.51169 -26.27319,5.39285 -39.25128,2.51666c-9.02328,-2.00906 -18.01837,-6.33038 -23.6015,-13.95087c-4.47638,-5.95676 -6.09073,-13.92966 -4.18036,-21.14124l0,0z" fill="#fefefe"/>
  <title>Layer 1</title>
 </g>
</svg>