<svg xmlns="http://www.w3.org/2000/svg" width="50" height="50">
 <g>
  <title>Layer 1</title>
  <path d="m75.08293,411.96332c3.41422,-2.84497 8.5349,-6.82846 15.36206,-6.25925c6.82716,0.56931 22.18793,1.70651 27.87787,0.56931c5.68865,-1.13852 10.24008,0.56924 11.94655,-3.98218c1.70776,-4.55148 2.27573,-19.34424 6.82715,-25.0329c4.55145,-5.68994 17.06856,-11.94785 18.77502,-17.63782c1.70772,-5.68863 2.2757,-7.96436 0,-13.65427c-2.27576,-5.68863 -7.39644,-10.80936 -14.79155,-14.22354c-7.39642,-3.41296 -14.22356,-5.68866 -14.22356,-5.68866c0,0 -14.79281,13.65427 -15.36076,17.06726c-0.56927,3.41418 1.13721,6.82715 -2.27571,8.53485c-3.41423,1.70651 -9.10416,-3.41418 -10.24138,-12.51709c-1.1385,-9.10287 2.84496,-19.91217 2.27571,-26.17142c-0.56924,-6.25784 -4.55144,-11.94656 -1.1385,-18.20569c3.41422,-6.2579 11.37988,-15.93005 17.63779,-20.48141c6.25789,-4.55148 17.06721,-5.12073 18.77499,-10.80939c1.70647,-5.68991 -10.81063,-27.30859 -10.81063,-32.42932c0,-5.12068 1.70773,-14.79277 -2.2757,-22.75713c-3.98218,-7.96568 -8.53365,-25.03343 -25.60216,-35.84314c-17.06725,-10.80974 -29.01508,-15.36116 -31.86005,-23.32619c-2.84495,-7.96515 -0.56797,-7.96515 2.84498,-10.24086c3.41421,-2.27583 -9.10287,-15.36126 -13.08506,-27.8777c-3.98347,-12.5166 -10.81063,-37.54974 -7.96566,-39.82546c2.84498,-2.27571 11.37859,0 13.08506,4.55146c1.70776,4.55155 8.5349,32.42928 8.5349,32.42928c0,0 -1.70645,-21.05061 1.13723,-27.30888c2.84496,-6.25829 6.25919,-12.51651 9.67211,-10.80972c3.41422,1.70684 1.70647,38.68744 1.70647,38.68744c0,0 3.41421,-8.534 5.68993,-13.6543c2.27573,-5.12041 3.98219,-9.67199 6.82716,-6.82727c2.84498,2.84471 0.56925,30.15357 0.56925,30.15357c0,0 4.55144,-6.82729 7.96437,-8.534c3.41422,-1.70684 5.12068,-2.8447 7.39641,1.13788c2.27571,3.98241 1.70646,9.10287 1.70646,9.10287c0,0 1.70774,-5.68932 5.68996,-5.68932c3.98217,0 9.10285,1.70674 7.39638,6.25829c-1.70773,4.55143 15.36079,0.56886 14.22227,8.53401c-1.13719,7.96501 0,15.36115 4.55147,15.36115c4.55141,0 7.39638,6.25829 16.49925,3.98257c5.68994,3.41359 -2.84369,24.46416 1.1385,21.61945c3.98216,-2.84471 13.08507,-5.12044 16.49925,1.13788c3.41293,6.25829 -4.55142,13.65442 0,19.34319c4.55147,5.68993 0,10.81062 6.82718,15.36206c6.82713,4.55142 7.39639,1.13724 9.10286,11.37859c1.70645,10.24008 1.70645,14.79153 4.55145,18.77501c2.84496,3.98219 6.25789,6.82715 5.68861,15.36075c-0.56793,8.53363 -5.68861,16.4993 1.13853,15.36078c6.82712,-1.13724 9.67213,-7.96439 14.79149,-10.80933c5.1207,-2.84497 6.25919,-3.41295 13.08636,-8.53363c6.82715,-5.12068 7.96437,-11.94783 11.94785,-13.65428c3.98218,-1.70776 7.3951,-1.1385 13.08504,-3.41423c5.68869,-2.27571 11.3786,-7.39642 14.22357,-9.67215c2.84369,-2.2757 2.84369,-3.41292 7.96436,-7.96434c5.12073,-4.55142 10.24136,-7.39639 13.6543,-14.7928c3.41422,-7.39642 2.84497,-7.96436 6.82715,-18.77448c3.98349,-10.80972 2.84497,-14.22345 5.12073,-18.77487c2.2757,-4.55144 2.2757,-8.534 6.2579,-12.51656c3.98346,-3.98247 7.39636,-8.53387 7.96561,-4.55145c0.56927,3.98257 0.56927,9.67186 0.56927,13.08556c0,3.41359 5.1207,-5.12041 9.67209,-13.65443c4.55145,-8.53398 2.27576,-9.67186 3.98221,-17.06799c1.70645,-7.39616 0,-12.51656 0.56924,-21.05058c0.56793,-8.53402 1.70645,-9.103 2.2757,-21.61945c0.56799,-12.51659 1.57928,-14.61845 1.57928,-23.72137c0,-9.10296 -0.33023,-12.78497 -0.44205,-19.51766c1.97504,-5.16771 4.18903,-6.74786 5.68994,-6.25829c1.84784,0.48957 4.33044,0.5217 5.81586,7.39614c1.13721,7.39617 2.16394,12.91161 3.28699,26.7399c-1.13846,13.65443 -1.70773,25.60201 0.56799,29.01569c2.27573,3.41358 3.98346,2.8446 5.68991,-1.13798c1.70645,-3.98244 1.70645,-5.68929 3.98221,-12.51644c2.2757,-6.82729 2.13309,-11.30112 3.30243,-20.82946c-0.56924,-14.22334 0.11182,-20.70271 0.68106,-31.51258c0.5679,-10.80971 -0.06302,-11.12531 1.13721,-17.63687c1.0267,-6.16371 2.46463,-7.63245 7.39639,-6.82727c2.84497,3.41371 3.41296,11.94771 4.55142,19.34385c1.13724,7.39615 1.13724,6.82716 1.70645,20.48156c0.56927,13.65442 0.07968,19.10571 -1.05881,23.65721c-0.26859,5.07314 -1.27856,10.11418 -0.64764,12.18559c3.4129,-2.27573 3.4129,-6.25816 6.82715,-14.2233c3.41293,-7.96507 6.2579,-14.79226 7.39645,-23.89522c1.13718,-9.10295 4.17233,-12.43712 6.11649,-22.45683c4.55142,-9.67186 5.54733,-12.01003 8.67499,-12.24814c3.30243,2.3703 4.86752,4.50428 4.55145,11.94758c-1.70651,7.96515 -1.70651,11.94772 -4.55145,19.91272c-2.84369,7.96508 -2.27573,11.37868 -6.2579,19.91269c-2.41708,7.49067 -2.71649,10.03479 -3.98215,12.51648c5.68866,0.569 5.61026,-1.69155 9.10284,-5.68928c5.75293,-10.95327 3.57227,-8.64544 5.68866,-11.94761c3.1611,-6.60605 5.8634,-9.03876 8.53485,-7.96506c2.84375,4.55146 3.98221,5.68933 1.70648,10.80973c-2.27567,5.12042 -0.56921,1.70681 -3.98215,9.10294c-3.41422,7.39613 -6.82715,10.24085 -2.2757,9.67185c4.55136,-0.56886 5.11938,0 7.96436,-4.55143c2.84491,-4.55148 0,-5.12042 6.25787,-7.96508c6.25919,-2.84467 10.24139,-7.96508 11.94785,-3.98255c1.70776,3.98255 2.27576,3.4136 -1.70645,9.10291c-3.98221,5.68944 -7.9657,7.39615 -6.2579,10.24087c1.70648,2.84457 6.2579,3.41357 9.67212,3.41357c3.41296,0 3.98218,0.569 2.2757,6.25829c-1.7077,5.68929 -2.2757,5.68929 -2.84494,8.53398c-0.56927,2.84472 2.27573,5.12044 2.27573,5.12044c0,0 5.12067,-3.41357 1.13724,5.12043c-3.98224,8.53399 -6.25793,6.25815 -8.53366,10.24072c-2.2757,3.98257 -4.55142,7.96515 -1.13849,7.96515c3.41422,0 6.82843,-0.569 6.25919,2.27572c-0.56927,2.84457 -5.68994,5.68927 -2.84497,7.39615c2.84497,1.70671 5.1207,-0.569 7.39639,1.70671c2.2757,2.27574 0,6.25829 0,9.10301c0,2.84459 -0.56921,5.12042 0.56924,7.96503c1.13721,2.8447 3.41296,5.68939 1.70645,8.53397c-1.70645,2.84473 0.56927,3.41371 -3.98218,6.2583c-4.55267,2.84471 -7.39636,2.27573 -7.39636,5.12044c0,2.8447 -0.56927,2.27573 2.2757,4.55144c2.84497,2.27571 6.25793,0.569 3.98224,5.6898c-2.27579,5.11938 -1.70651,4.55145 -2.84503,9.10286c-1.13721,4.55145 0.56924,2.27573 -4.55142,13.08505c-5.12073,10.80934 -10.24008,18.77501 -15.36081,21.61995c-5.12064,2.8437 -3.98215,9.10289 -0.56921,10.24011c3.41422,1.13849 3.98221,6.25917 0.56921,13.6543c-3.41415,7.39639 -7.39636,17.06851 -8.53357,22.18921c-1.13852,5.1207 -2.27573,5.68866 -7.96567,11.94785c-5.68866,6.2579 -10.24136,11.94656 -15.36078,13.65424c-5.1207,1.70651 -5.68994,7.39514 -9.10284,10.24011c-3.41425,2.845 -4.55145,4.55148 -11.94788,4.55148c-7.39639,0 -7.39639,-1.70648 -14.79276,0.56921c-7.39645,2.27579 -10.80939,4.55148 -11.37863,7.96442c-0.56924,3.41422 -2.84497,5.12067 -7.39639,3.98343c-4.55145,-1.13846 -1.13724,2.27573 -6.82715,4.55145c-5.68866,2.2757 -3.98218,5.1207 -10.80936,4.55142c-6.82718,-0.56921 -10.24136,-5.68991 -11.94781,0c-1.70645,5.68869 -2.2757,10.24011 -9.67215,5.1207c-7.39511,-5.1207 -11.37854,-18.77496 -15.36075,-4.55142c-3.98218,14.22226 -3.98218,17.63647 0.56927,21.61862c4.55142,3.98224 5.68866,7.39645 15.93002,11.37866c10.24005,3.9834 10.24005,8.53488 17.63644,11.37854c7.39642,2.84497 7.96567,3.98352 19.34424,9.67215c11.37863,5.68988 14.2236,7.39639 21.05072,11.37854c6.82718,3.98221 8.53363,7.9657 10.24005,11.94788c1.70779,3.98218 9.10291,8.5336 6.25922,14.22354c-2.84497,5.68866 -8.53491,2.2757 -8.53491,5.12073c0,2.84363 1.13855,5.11935 -1.13718,10.8093c-2.27573,5.68863 -1.70779,7.96567 -9.67212,10.24139c-7.96567,2.2757 -12.51712,3.41293 -16.4993,1.70645c-3.98218,-1.70645 -5.1207,5.12067 -9.10287,3.41293c-3.98218,-1.70645 -5.68866,-6.82718 -8.5336,-3.98215c-2.84497,2.84494 2.2757,4.55139 -4.55142,6.2579c-6.82718,1.7077 -7.39645,-2.84372 -7.96567,1.13843c-0.56924,3.98218 1.70645,7.96439 -5.68863,3.98218c-7.39645,-3.98218 -5.12073,-11.94781 -10.81067,-6.25784c-5.68863,5.68863 -2.84369,12.51575 -13.08502,6.82715c-10.24139,-5.68991 -6.82715,-6.25793 -14.79279,-5.68991c-7.96439,0.56921 -7.96439,1.13843 -10.80937,-5.11945c-2.84499,-6.25919 2.84499,-4.55142 -9.67212,-5.12067c-12.51578,-0.56927 -6.25789,7.39639 -14.22357,-3.41425c-7.96434,-10.8093 -9.67082,-21.61865 -13.08505,-9.67212c-3.4129,11.94785 0,14.79282 -5.12067,18.20703c-5.11942,3.41293 -31.29082,2.27573 -31.29082,2.27573c0,0 -0.56924,13.08505 -2.84494,15.36078c-2.27571,2.2757 -7.96437,-2.27573 -13.08508,2.2757c-5.12067,4.55145 -1.70647,7.39645 -6.25789,11.3786c-4.55142,3.98218 -13.65556,4.55142 -13.65556,4.55142c0,0 6.25919,-5.12067 7.96565,-9.67212c1.70644,-4.55145 3.98219,-12.51581 3.98219,-12.51581c0,0 -9.10291,3.41296 -13.08508,3.98221c-3.98219,0.56924 -10.24136,-0.56924 -10.24136,-0.56924l1.70776,13.08505c0,0 -10.81062,0 -10.81062,-4.55145c0,-4.55145 3.4142,-17.06726 6.25916,-18.77371c2.8437,-1.7077 6.82718,-1.13849 6.82718,-1.13849c0,0 -1.13853,-5.68866 1.70647,-6.82712c2.84496,-1.13724 4.55142,0 9.10284,0c4.55147,0 25.03291,-6.2579 25.03291,-6.2579c0,0 -0.56929,-14.79285 1.70647,-21.05075c2.27571,-6.2579 13.08633,-23.89572 7.96562,-26.74066c-5.12065,-2.84369 -9.10283,-0.56793 -11.94781,2.27704c-2.84497,2.84369 -7.96439,11.37857 -18.77499,13.6543c-10.80933,2.27573 -19.34294,3.41293 -19.34294,3.41293c0,0 -2.27574,1.13849 -2.27574,5.68994c0,4.55139 3.98218,9.10287 -1.70773,14.79153c-5.68865,5.68988 -10.24008,10.81061 -16.49799,7.96567c-6.25919,-2.84503 -7.39639,-6.25922 -7.39639,-6.25922c0,0 4.55141,2.84497 11.94781,1.13849c7.39514,-1.70648 4.55145,-15.93002 3.9822,-18.77499c-0.56924,-2.84497 -6.25793,-5.68863 -9.67213,-2.84497c-3.41295,2.84497 -7.96566,10.24139 -5.12069,13.08636c2.84496,2.84366 -7.96436,-6.25919 -7.3964,-10.24139c0.56924,-3.98218 2.27572,-6.82718 2.27572,-6.82718c0,0 -7.39513,0 -11.94655,-0.56921c-4.55145,-0.56796 -7.96567,-2.84369 -7.96567,0.56921c0,3.41425 2.27571,18.77505 -2.84495,9.10291c-5.11942,-9.67212 -7.39513,-11.94781 -2.27574,-17.06723l0,0z" id="path10416" stroke-width="1.0000000pt" stroke="#000000" fill-rule="evenodd" fill="royalblue" class="color" transform="scale(.10)"></path>
 </g>
</svg>