<svg width="50" height="50" xmlns="http://www.w3.org/2000/svg">
 <g>
  <title>Layer 1</title>
  <g>
   <path d="m2.85001,57.43221c2.70421,-1.13862 5.69306,-1.13862 8.68192,-0.99628c57.64224,3.98515 114.85751,15.22893 170.22252,32.45045c33.01978,10.38982 65.32787,23.0569 96.21275,38.71283c44.83282,24.62246 88.10007,52.80309 125.53195,87.95776c27.46906,26.04576 51.66455,56.21899 66.89349,91.08899c6.12003,13.521 10.38983,27.75366 14.51727,41.84396c1.99255,7.68564 6.8317,14.09033 8.96655,21.63367c2.41962,6.68933 1.28094,13.94797 1.56561,20.92197c1.70795,26.61508 -22.34528,50.66824 -48.53333,51.52222c-9.96289,-0.71164 -20.06805,1.13861 -29.88861,-1.85028c-8.82422,-2.27719 -17.2215,-6.12 -25.33411,-10.3898c5.83545,-0.99631 12.38242,-0.85397 17.07919,-4.69678c2.70419,-1.99258 2.56186,-5.97772 1.13861,-8.68192c-2.98886,-5.83539 -8.39725,-9.82053 -13.521,-13.52103c-11.52847,-7.97028 -24.48013,-13.521 -37.43188,-18.50244c-30.31552,-11.24377 -61.91202,-18.64478 -93.93552,-22.34528c-8.11261,-1.13861 -16.2252,-0.56931 -24.33783,-1.85022c11.10149,-6.83167 22.77222,-13.09406 35.58163,-16.22522c-2.41953,-0.99631 -4.69675,-1.85028 -7.25867,-2.41959c-48.39102,-12.80939 -98.06296,-19.64102 -147.73491,-25.04947c25.76111,-35.86624 55.93433,-68.31671 88.24245,-98.3476c-4.8391,-3.84283 -10.10519,-6.97403 -15.22896,-10.38986c-33.01973,-20.92197 -68.31671,-38.42813 -104.89462,-52.51846c26.75737,-6.26236 54.36873,-8.53958 81.83775,-8.39725c-2.41957,-1.85023 -4.98143,-3.55817 -7.54332,-5.12378c-51.94917,-31.16949 -104.46766,-62.05436 -160.82896,-84.82665l0,0.00005z" id="path6" stroke-width="0.09375" stroke="#00295c" fill="#000000"/>
   <path d="m109.59489,90.16732c41.84401,9.10889 82.6917,22.62994 121.97383,39.85143c44.26355,19.07173 85.82285,44.1212 123.96643,73.72511c22.91452,18.07547 44.83282,38.00119 61.48499,62.19669c11.67084,16.36755 21.9183,33.73141 28.75,52.51849c4.12744,10.10519 6.26233,21.20667 12.52472,30.31558c3.4158,4.98141 8.53961,8.39725 13.09406,12.38235c-22.91458,-3.55814 -45.82916,-13.80563 -60.34644,-32.30807c-9.67822,-12.80939 -14.80197,-28.4653 -23.48389,-42.12866c-12.09775,-19.49875 -28.89233,-36.00864 -47.39478,-49.5296c-4.98138,0.85393 -9.53583,3.55812 -14.09027,5.69307c-10.6745,5.55072 -21.20667,12.66704 -27.46899,23.19917c11.95538,-4.26978 25.04947,-6.26236 37.43185,-2.41956c9.10886,2.98886 17.7908,7.97028 23.91086,15.51358c-9.67825,-0.99625 -20.21036,-1.70789 -29.31927,2.70422c-7.401,3.8428 -10.38989,13.09402 -9.25122,20.922c0.56931,4.98141 3.4158,9.10889 6.12,13.09406c-50.81055,-9.53589 -102.04807,-16.93686 -153.71262,-18.92941c9.39355,-11.81314 19.78337,-22.77225 30.45787,-33.30444c17.22151,-17.07919 35.86629,-32.87744 56.64595,-45.40216c-1.70789,-1.56554 -3.4158,-2.98883 -5.26607,-4.41208c-20.49501,-14.09036 -41.98633,-27.04202 -64.18927,-38.28586c-1.85023,-0.85397 -3.41583,-1.99257 -5.12373,-3.1312c31.16951,0.71167 61.3427,10.38986 89.52338,22.62993c5.40842,2.1349 10.38983,5.12376 16.08289,6.83165c-48.67564,-46.68307 -108.45279,-79.98746 -170.22251,-106.03324c-3.98515,-1.85025 -8.6819,-2.70419 -12.09776,-5.69305l0,0z" id="path8" class="color" stroke-width="0.09375" stroke="#e2363d" fill="#e2363d"/>
   <path d="m358.23932,312.90833c-0.99628,-8.39728 8.82422,-14.5173 15.94058,-12.80939c5.69302,12.52475 12.09775,24.90714 21.34897,35.15466c-8.39728,-3.1312 -16.93689,-5.69305 -25.47644,-8.39728c-6.40469,-1.42325 -10.6745,-7.82797 -11.81311,-13.948l0,0z" id="path10" stroke-width="0.09375" stroke="#ffffff" fill="#ffffff"/>
   <path d="m350.12668,341.65829c24.7648,5.26605 48.10641,15.94055 70.02469,28.4653c5.55072,0.71164 11.24377,-1.56561 16.93686,-1.13864c10.53214,-0.71164 20.06805,4.26981 29.88858,6.8317c2.41956,0.71164 4.98141,1.13861 7.11627,2.56186c5.55078,16.50989 -2.41956,37.00491 -19.07172,43.55194c-6.83173,2.70419 -14.23267,2.70419 -21.49133,2.41953c2.70422,-2.98883 7.54333,-6.974 4.41217,-11.38614c-8.11267,-9.82053 -18.78711,-17.3638 -29.31931,-24.62247c-4.41214,-2.84653 -5.97769,-8.11264 -9.53586,-11.81308c-13.37872,-15.22897 -31.88113,-24.62253 -48.96036,-34.87l0,0z" id="path12" class="color" stroke-width="0.09375" stroke="#bfc0c2" fill="#ececec"/>
   <path d="m444.48923,377.3822c5.26608,-3.2735 10.53214,2.84653 13.37869,6.8317c0.71161,4.26981 -4.12747,2.27725 -6.26236,1.13861c-2.84653,-1.99255 -6.26239,-4.26981 -7.11633,-7.97031z" id="path14" stroke-width="0.09375" stroke="#00295c" fill="#000000"/>
  </g>
 </g>
</svg>