<svg xmlns="http://www.w3.org/2000/svg" width="50" height="50">
 <g>
  <title>Layer 1</title>
   <path d="m160.21567,63.86328c-1.6796,0.86248 -4.45853,0.64412 -6.38441,0.22065c-0.85675,-1.51078 -3.18457,-2.57194 -3.81386,-4.29805c-1.50128,-1.07442 -3.19971,-0.63844 -4.26506,-0.87045c0,-1.69997 2.96846,-0.42234 2.76378,-1.92062c2.77893,-0.43181 5.31514,-1.29013 8.08656,-2.15035l-0.4171,-0.23618l1.9032,0c-0.20477,0 -0.20477,0 -0.40192,0.23618c1.48242,0.63957 2.32782,1.2765 3.17325,2.15035c0.87199,2.36873 0.63689,4.72531 -0.64444,6.86846m-45.34248,19.35733c-0.86438,0.44205 -1.51645,0.85416 -1.71359,1.07557l-4.26125,0c1.06534,-0.85416 1.92971,-1.72993 2.56663,-3.22287c0.40945,-1.29433 -1.0843,-2.57081 -1.50129,-4.30714c-1.06534,-0.19791 -2.12304,-0.85418 -3.60918,-0.19791c-0.23509,-1.29089 2.13058,-0.21648 1.89558,-1.73105c1.49747,-0.21951 3.42719,-0.21951 5.10664,0l-0.19714,0c-0.41696,1.27649 2.32401,0.85414 1.9222,1.92896c0.85674,0.86247 1.27383,2.15867 1.05771,3.64935c0.21613,1.30987 -0.65589,1.7322 -1.26631,2.8051zm380.15943,74.84867c1.49387,-3.24713 -1.48605,-5.81792 -2.54764,-8.18475c-3.62805,-4.08348 -7.88937,-6.65428 -11.51373,-10.09776c-2.98361,0.20815 -3.83282,-2.36682 -5.94824,-2.80698c0,0.22064 0.20453,0.6604 -0.2124,0.85831c2.32782,1.5085 4.89056,3.66719 7.24103,5.59842c1.04266,2.58104 3.41211,2.80659 3.82541,4.93723c0.62936,1.51079 1.47861,3.87762 0.21609,5.39673c-0.62939,-0.44014 -2.13068,-0.23428 -2.13068,-1.29315c-3.19211,-0.22595 -5.11798,-1.10172 -8.10547,0c-1.69086,1.29315 -2.54401,4.08119 -2.13074,6.2285c-0.19717,2.78726 3.21109,3.42722 2.13074,6.45676c0,0.85414 -1.27383,1.27649 -0.83398,1.72572c-1.49393,1.27647 -4.27667,0.63882 -6.38837,0.42273c-0.44327,-1.5108 -2.77509,-0.87196 -4.27634,-1.29431c-0.43204,-0.42271 0.64828,-0.21649 0,-0.63881c-4.88681,-1.09755 -9.80008,-3.24487 -14.88797,-4.73897l0.40958,-0.42233c-3.40451,0 -6.60056,-1.51079 -9.7963,-2.38161c-5.73999,-0.84583 -11.28265,-0.63957 -17.25378,-0.20815c-2.97589,0.65663 -6.39178,1.71892 -8.72723,3.86623c-5.55023,5.39522 -8.72357,12.04834 -12.35922,18.08046c-1.4747,0.21762 -0.84531,2.78842 -2.55899,2.15074c0.85291,-3.44389 4.26132,-6.68877 4.26132,-10.53793c0.43204,-2.36491 -0.83414,-5.59235 -1.91455,-7.10275c-3.17703,-2.36493 -5.30771,-6.45674 -8.30267,-9.03664c-2.76773,-1.27649 -5.32666,-3.20959 -7.87039,-4.72227c0,0 0.21985,-0.22595 0.41699,-0.22595c-0.64844,-0.41173 -1.49762,-0.63654 -2.13068,-0.2142c-0.1972,1.49107 2.13068,0.44016 1.93353,1.95284c0.62936,0 1.04633,0.414 1.67941,0.414c2.99124,3.43329 5.75504,5.81792 8.5188,9.24171c-0.84921,0.63995 0.86429,1.51042 0.4473,1.95058c0.83417,3.64142 -0.4473,6.87073 -2.99496,9.24477c-2.3468,2.34709 -5.32666,4.08156 -7.65054,6.65311c-8.52252,10.32904 -3.63202,23.65425 -0.21985,34.8598c3.18073,9.45819 8.52252,19.54575 8.08258,29.00473c-1.27753,5.80618 0.20483,12.49075 -4.25369,17.4147c-2.13046,0.22595 -2.13046,2.37518 -3.82889,2.37518l0.41699,0.44244c-1.28149,0.64185 -4.04156,0 -3.82916,1.49182l-10.86163,0.22479c-2.99887,-1.49939 -4.88684,-1.95093 -7.89337,-3.22552c0.22375,-0.22443 0.22375,-0.22443 0.43597,-0.22443c-5.53894,-3.45111 -9.80396,-7.74268 -14.05743,-11.17599l0.21588,-0.23389c-2.76355,-2.1496 -5.12567,-4.7276 -7.8894,-6.45258l0.22003,-0.19449l-2.13458,-0.85413l0.22003,-0.22562c-4.06052,-1.51266 -7.24496,-5.59196 -11.93091,-6.67094l-5.53888,-0.85414l0.21609,0c-5.97855,-0.4337 -12.36667,-3.0045 -18.11032,-3.86697c0,-0.08229 0.12122,-0.08229 0.23877,-0.08229c-1.47464,-0.94475 -3.47644,-0.59406 -4.90952,-1.21431c0.21219,0 0.21219,-0.21611 0.41702,-0.21611c-1.28516,-0.87079 -3.19211,-0.42041 -4.67831,-1.0706c0.21982,-0.22179 0.42087,-0.22179 0.62936,-0.22179c-1.2778,-0.41591 -2.54395,-0.85303 -4.0376,-1.07025c0.06061,0 0.09464,-0.03868 0.14783,-0.05612c-3.14304,-0.51218 -3.88974,-2.51465 -7.38513,-2.51465l0.21219,-0.23428c-4.4697,-1.91531 -8.96219,-3.21152 -12.99237,-4.93652l0.21613,-0.42538c-0.86426,-0.42877 -2.13071,0 -2.99496,-1.08841l0.21222,-0.20282c-2.1268,-0.21759 -3.61301,-2.15038 -5.32275,-2.15038l0.41693,-0.44203c-3.8252,-1.2746 -7.67328,-4.07135 -10.43314,-6.00409l0.21614,-0.22595l-1.7137,-1.0786l0.23116,-0.1956c-0.64813,-0.875 -2.55898,-0.21649 -2.13045,-1.5127l0.22351,0c-2.13068,-1.08842 -3.41582,-2.36302 -5.34543,-3.23764c0.21614,-0.20398 0,-0.64601 0.21614,-0.84583c-2.9989,-2.80508 -6.80139,-4.52171 -9.14821,-7.75937c-0.84921,-3.42494 0.41328,-7.94514 2.76378,-10.30176c1.90321,-1.51039 3.62433,-3.65886 5.5162,-4.51529l-0.19713,-0.23201c3.4119,-0.42235 4.9095,-1.92439 8.32535,-2.35509l0,-0.21646l1.67575,-0.63806c0.64075,-1.51039 -1.67575,-0.44205 -1.28146,-1.95244c-2.7485,-1.49106 -5.10664,-2.13065 -8.06757,-3.20772l0,-0.2339l-2.77907,-1.27649c0.19345,-0.63994 -1.06508,-1.08009 -0.84921,-1.73634c0.84921,-0.63995 2.127,-0.414 2.97621,-0.19791c2.77882,1.51077 5.97113,2.57079 8.95079,2.78726c4.04524,-1.07063 7.43843,-0.21648 11.06279,-1.49295c2.12671,1.27647 5.98242,1.27647 8.3063,0.63994c1.30045,-0.42348 -0.63309,-1.08009 -0.63309,-1.73634c-1.6908,-0.83673 -3.19208,-2.34712 -4.90576,-3.44467l0.23511,-0.19676c-2.77887,-1.95056 -6.172,-1.2943 -8.95477,-1.95056c0,0 0,-0.19791 0.19717,-0.19791c-1.04639,-0.86436 -2.75986,-0.44205 -4.02631,-1.07895c-0.23114,-0.87387 -2.77879,-2.15036 -3.8365,-2.57269c0.64075,-0.87198 -1.70238,-0.44849 -1.06535,-1.94221c0.64075,-0.65662 1.91457,-0.42271 2.77119,-0.20625c1.70238,1.06041 4.68227,1.27649 7.02516,1.93427c1.91455,-1.29657 5.32275,-0.23428 6.60794,-1.93427c5.95212,-0.45036 12.564,0.42349 18.08023,-0.65625c0.86823,-1.7083 -1.89191,-2.36491 -2.76007,-3.00145c-1.04639,-0.22595 -2.54007,0 -3.17706,-0.86591l0.19714,-0.23581c-1.90692,-0.63692 -3.63196,-1.49107 -5.32275,-2.34521c0.10223,-0.20815 0.20087,-0.2343 0.30334,-0.2343c-4.54572,-0.0997 -8.70831,-2.12117 -13.07959,-1.9153c-1.26245,-0.86324 -3.19208,-2.37402 -4.69336,-3.86472c0.21613,-0.65663 -0.41721,-0.87386 0.42831,-1.09868c2.13437,-0.19791 4.67834,0.22482 6.60791,-0.41211l0.43991,-0.88222c2.97598,-0.41397 6.38812,0 8.9281,-1.05089c-1.06137,-0.64186 -2.12671,-1.73409 -3.40817,-1.93199c0.21609,-0.22025 0.21609,-0.22025 0.21609,-0.43976c-3.19604,0.21951 -5.11053,-1.73143 -8.1055,-1.73143c-0.19717,-1.49373 -2.97617,-0.63768 -3.17706,-2.7869c1.28909,-1.49826 4.89816,-0.65779 7.23734,-0.65779c0,0.23431 -1.06531,0 -0.21222,0.23431c4.04135,0.85831 7.44952,0.63957 11.06647,-1.29317c0.64447,-0.85416 2.77118,-0.43181 2.77118,-1.72838c5.97882,-1.2765 11.29022,3.24295 16.84418,0.63995c-0.21982,0 -0.45105,0 -0.45105,-0.20169l1.9259,-0.86061c0.43594,-0.85416 0,-0.85416 0,-1.9267c-4.68222,0 -9.57648,-5.16316 -13.6254,-4.10089c-3.62827,-1.93311 -8.7312,-0.41853 -12.77255,-1.5108c0,-1.28063 -3.41586,-0.6441 -4.69733,-1.49712l0.436,-0.42345c-2.35049,-0.23393 -4.064,-1.72501 -5.54263,-3.01932c4.04523,-0.64258 8.72339,0.436 13.20847,-0.22026c3.82913,-1.2943 7.44583,-1.93425 10.86542,-3.44464c5.30765,-0.20094 9.99734,0.23921 15.54385,-0.42235c-0.43219,-1.27686 1.49738,-0.63274 2.13068,-1.27686c-0.6333,-0.65208 1.27759,-0.65208 0.62549,-1.72498c-2.12695,-0.22141 -4.68967,-1.5157 -6.60052,-1.93388l0.22006,-0.21648c-2.35049,-0.87576 -4.26135,-2.57078 -6.38812,-2.3729l0.21219,-0.19788c-5.53888,0.19788 -11.29758,0.85413 -16.60904,0.41817c-3.40451,-1.29089 -6.82037,-3.22932 -9.80026,-5.37664c1.28149,-1.29394 1.91458,-1.94639 3.18079,-2.59052c0.45117,-2.14846 -2.76746,-1.27649 -2.97992,-3.00145c4.26135,-1.07555 8.10181,-1.71855 12.14709,-3.22289c0,-1.08009 2.56656,-1.28406 2.12671,-1.93842c3.84808,-1.29621 8.52252,0.20206 11.93463,-1.29621c3.18842,-0.19675 4.68973,-1.07251 7.04019,-3.00146c0.2009,-3.22326 -4.26505,-1.49826 -6.39572,-2.36909c-4.4696,-2.57269 -10.01245,-3.88367 -15.12674,-3.42682c-3.84048,1.69462 -8.74625,1.05808 -13.2085,0.85413c-1.69073,-1.72496 -4.25742,-0.85413 -5.95215,-2.58746c0.41721,-1.07558 2.13461,-1.50661 2.34683,-2.15035c3.81384,-1.92896 7.86667,-2.5708 11.28253,-4.08159c-0.22375,-0.21608 -1.50128,-1.09222 -0.84918,-0.85794c-2.56668,-1.2924 -4.90955,-1.2924 -7.26004,-2.3888c-4.04153,-0.63276 -8.72726,-0.20207 -12.77251,-0.83671l0.21611,-0.21837l-3.00258,-0.85416c0.23883,-0.87388 1.73616,0 2.1344,-0.87388c0,0 -0.39824,0.21761 -0.39824,0c2.52499,-0.64183 5.52016,-0.64183 8.30267,-0.86248c5.30405,-1.48651 9.56906,-5.59196 14.47098,-5.80845c2.97992,1.51078 5.74362,-0.41817 8.7196,-0.41817c0.45123,-1.07365 2.36578,-1.93197 2.13074,-3.44276l-5.51996,0c-0.64072,-1.73521 -3.62805,-0.64298 -5.12933,-1.49713c0,-0.23808 0.23489,-0.23808 0.45102,-0.23808c-1.3002,-1.27762 -3.62436,0 -4.06033,-1.69579l-5.95978,-0.65663c0,0 0.20111,-0.21837 0.41721,-0.21837c-10.43333,-2.36872 -20.86299,-0.41817 -31.08391,-0.85415c0,-1.0748 1.48232,-1.2962 1.70238,-1.93312c3.4119,-1.95056 7.03622,-2.36455 10.64554,-3.66075l-0.21243,-0.21989l2.99126,-0.85301l-0.64444,-0.42347l2.12672,-0.87273c0.43225,-0.63767 1.28146,-2.14845 1.4976,-3.01094c-0.21614,-0.19979 -0.64839,0 -0.84554,-0.19979c-0.65207,0.41854 -0.65207,0.63995 -0.65207,1.06229c-2.75983,-0.64374 -5.34544,-1.28066 -8.08653,-1.28066c-0.43201,-1.51078 -3.19211,-0.43598 -3.84415,-1.93312c-5.73975,-1.09223 -12.3441,0.20094 -17.68202,-0.2214c3.20735,-2.80092 8.09789,-3.02119 10.44839,-6.22472c-5.54262,0.63274 -11.7374,-0.22141 -17.89421,-0.87803c0.22365,-0.21648 0.42078,-0.21648 0.63689,-0.21648c-1.47859,0 -3.196,-0.85832 -4.6745,0.43296c-0.4512,6.23382 -2.57796,11.40989 -3.19971,17.8602c0.84921,0 1.27,0.42233 1.89929,0.63994c-0.41319,0.21837 0,0.21837 -0.41319,0.41817c2.12308,-0.19979 1.91075,1.95056 3.62436,2.15149c2.54764,2.36872 5.3076,4.93763 7.88557,7.32416c2.52878,3.64521 5.73602,7.30862 8.30267,11.17561c3.60927,5.37247 6.15695,10.7544 8.73492,16.77819c7.02881,16.76646 4.89445,37.83852 1.91824,56.77087c-2.13068,13.10266 -6.172,25.59114 -9.58784,38.494c-0.64825,0.21648 -1.06532,0.85416 -1.70976,0.42235c0.41315,-1.93312 -2.13449,-2.13898 -1.7137,-3.86586c-3.41576,-3.01094 0.23128,-7.73209 0.64835,-11.39207c5.10664,-19.1348 11.927,-41.08037 8.95103,-60.21779c-0.43987,-1.72612 0.2159,-3.24108 -0.2314,-4.29881c-2.13068,-9.23795 -3.81381,-17.00111 -8.52249,-24.94932c-2.52878,-6.44611 -8.06767,-10.96861 -11.2636,-16.34637c-2.77893,-1.71246 -4.26125,-4.08157 -6.62317,-6.23609c-2.54768,-0.2142 -3.41205,-3.01928 -5.73976,-3.44162c0.20084,0 0.20084,-0.21724 0.43211,-0.21724c-2.12685,-1.27686 -4.6935,-2.57003 -6.82034,-4.08043c0.19345,-0.85415 1.48242,-0.44016 2.12685,-0.44016c3.41217,-0.41399 2.77893,-4.28099 4.46222,-6.44839c0.65207,-7.94819 3.215,-16.98823 2.99124,-24.29268c-2.75996,5.59198 -4.25743,13.55722 -10.0011,17.20281c-1.5126,2.58633 -4.04132,2.36872 -5.31895,4.09673l0.19713,0.20094c-1.69843,0.44016 -2.13068,1.73219 -4.0452,2.36872c-1.90694,1.93425 -1.2625,5.81375 -4.25743,5.57984c-1.71744,-1.49107 0.41315,-5.15637 0.86818,-7.09025c1.26236,-3.00563 4.88681,-2.78727 7.23732,-4.72418l0,-0.21533l2.75995,-1.0748c0.43216,-0.43599 0.64444,-0.85832 0.85304,-1.49106l-5.9635,-0.87803c0,0 0.22365,-0.21648 0.41696,-0.21648c-2.97606,-0.42006 -6.58905,-0.63767 -9.78496,-0.20169c0.22362,0.63464 -0.64824,0.63464 -0.86057,0.63464c-3.8291,1.93805 -4.04524,7.30861 -4.67453,10.10081c-2.97989,0.65245 -5.97493,2.36909 -9.1595,3.6653l0.20097,0.21458c-2.32785,0.22026 -3.19221,1.93274 -5.53889,2.15453l0.21982,0.21004l-3.19974,1.06644c0.2085,0 0.43224,0 0.43224,0.23429c-4.48882,2.14694 -8.51495,4.06339 -12.5602,6.01431l0.20479,0.19753l-3.18457,1.09223l0.20468,0.22066l-2.33536,1.07289l0.20464,0.22141c-2.54764,1.05508 -5.32274,1.92894 -7.04385,3.64558l0.23878,0.20397l-2.5628,0.87045l0.19714,0.22178c-2.75996,1.50433 -6.59289,3.65394 -8.71976,5.15599c-3.8253,2.14315 -7.66576,2.5833 -11.49857,3.65923l0.21983,0.20056c-2.3467,-0.41817 -2.77883,2.15073 -4.91332,2.36909c-0.84159,1.07556 -2.32401,2.5727 -2.77513,4.08878c-4.67451,5.38991 0.23511,11.62299 -2.12685,16.99657c-0.20096,2.15034 3.21118,0.8405 3.83665,1.92857c5.12943,0.86249 10.02389,0 15.12684,0.86249c0,0 -0.2123,0.19791 -0.42843,0.19791l4.89434,0.2339c1.70989,0.42235 0.84551,1.49829 1.07668,2.57307c-4.68967,1.94638 -8.51485,4.30602 -13.01122,6.03214c0.23129,0 0.45111,0 0.64825,0.22028c-1.69461,0.63388 -3.17705,1.0562 -4.67451,1.69502c-0.84921,1.51041 2.12688,1.09223 1.49747,2.38237c1.91457,0.64374 1.27013,1.27647 3.17705,1.92023c-0.19714,0 -0.19714,0.2343 -0.41697,0.2343c0.41697,0.85832 1.49747,0.41626 2.34669,1.0767c-0.2123,0.20396 -0.4511,0.20396 -0.64455,0.20396c0.64455,0.63275 2.12687,0.2104 2.32401,1.50434c3.41586,1.51495 7.25632,0.86058 10.88446,-0.21952c-0.23509,-1.07442 1.04637,-0.65207 1.69463,-1.07442l-0.19716,-0.2104c1.48244,-0.8644 2.12687,-2.15871 4.04523,-2.5727l-0.23878,-0.21874c2.36566,-1.5157 4.9095,-3.22514 7.4761,-4.72113c4.47357,-1.9464 9.56889,-2.14923 14.06152,-3.24677c2.34668,1.73219 4.67439,4.30296 7.00603,5.81754c3.2074,-0.21838 3.85182,1.72726 7.03639,1.2765c4.05658,-0.64185 8.51878,-1.69884 12.12796,-3.84727l-0.20096,-0.22028c2.33163,-0.65245 3.19603,-3.02649 5.32657,-3.44466l-0.21983,-0.21874c2.56665,-1.71439 3.21107,-5.37362 6.19479,-5.59388c1.06535,1.51458 -0.65208,3.22514 -1.5013,4.29766c-1.08049,1.73637 -2.97606,3.44466 -4.47366,5.59843c-2.54764,2.36872 -4.47354,3.0064 -6.60411,4.72115c-2.54396,0 -3.62814,2.37289 -6.17592,2.37289c0.21611,0 0.64835,0 0.64835,0.2104c-1.91071,0.66156 -4.49632,0.22141 -6.17209,1.29394c-1.9334,0.22062 -3.21486,0.6388 -4.06029,2.15073c-3.8291,4.30183 -8.93193,7.96486 -12.13177,12.68941c-10.01625,10.9633 -16.61667,24.30821 -24.72221,36.99461c-1.28134,1.70717 -3.17693,3.20959 -5.0953,4.93648c-1.9259,2.8047 -4.46973,4.96376 -6.38811,7.966c-2.77893,2.57306 -3.62433,6.67094 -5.32277,10.31425c-2.36578,-1.51266 -4.49634,-3.8689 -7.0403,-5.16206c0,0 0.21995,-0.21761 0.41708,-0.21761c-1.4823,-0.85301 -2.75994,-1.72499 -3.80631,-2.36153l0.19714,0l-1.92972,-1.27991l0.23129,-0.23201c-2.36566,-0.20775 -1.0805,-1.5013 -3.41203,-2.15869c-4.68967,-4.93459 -9.15189,-10.74377 -13.20847,-16.32666c-0.41708,-3.02118 -2.13068,-5.59198 -2.97989,-8.37886c-0.84921,-0.22595 -1.69462,-1.51382 -1.69462,-2.37859c-2.2178,-0.40262 -1.79702,-1.94107 -3.93151,-2.11281c-5.30761,2.7247 -12.07856,0 -16.32095,5.34441c-1.05007,3.44238 -3.40821,6.01544 -4.89436,9.89911c-3.39317,4.72115 -9.16703,9.01881 -11.91185,13.9534c-2.99505,1.95094 -3.6433,4.10129 -6.3881,6.03214l0.21601,0.21761c-2.58179,2.15871 -4.9095,4.30791 -7.4686,6.45448c-4.91332,2.35847 -5.11046,9.03775 -6.39182,13.10872c0.43213,3.23764 1.08038,4.53384 1.71361,7.9588c1.69843,6.03403 -2.36196,10.96632 -5.34175,15.0498c-2.75996,1.73447 -5.93701,3.2388 -8.93588,3.2388c0.41326,0 0.21994,0.42041 0.21994,0.63652c2.55898,0 4.90578,0 7.03265,0.86362c0.63691,0.85341 1.05007,2.57915 1.2662,3.6581c-1.06535,3.22932 -1.06535,8.59648 -1.91457,12.24626l1.05019,0.65851c-0.20098,0.20395 -0.40182,0.42047 -0.40182,0.63995c4.26125,0.85001 8.92062,0.19943 12.78004,-0.21948c0.4018,-1.07898 2.97977,-0.63693 3.81002,-1.07898c1.93353,-1.08011 4.49254,-1.70831 6.83933,-2.5708c-0.21612,-1.2829 2.76378,-1.07898 2.52868,-2.15036c3.64713,-2.80396 2.99505,-8.83382 4.06411,-12.68333l-13.43212,-0.45038c0.65207,-1.05396 -0.83025,-1.91646 0,-3.00453c2.97991,-1.05809 6.62321,-1.93314 10.02008,-2.99124c0.43225,-2.6011 0.62939,-5.5961 2.76378,-7.10464c1.2928,-2.80507 4.4887,-3.86697 6.83551,-5.79176c2.33152,-0.88031 -0.64837,-3.24182 0,-4.96378c-1.0805,-1.06645 -1.28148,-2.58708 -1.92973,-3.86586c-1.92971,-1.72612 -2.97989,-3.44275 -5.32658,-4.29576c-0.2123,-1.50851 1.49748,-2.58823 2.13057,-4.08347c6.1721,-6.02986 12.56404,-10.96748 17.90577,-17.1994c0.398,-0.45685 1.04637,-0.65663 1.67564,-0.45685c2.36566,-0.63995 1.71741,1.311 3.431,1.95056c1.91457,3.44389 5.32278,5.81793 6.80521,8.60521c2.34669,4.29578 5.52374,7.74118 6.38812,12.03696c2.99505,5.16356 2.54764,10.31311 4.47736,15.70149c0.43594,1.06609 1.28136,1.72499 1.49748,2.80473c2.33163,1.7083 6.58524,3.64139 9.80394,4.71169c3.17706,-0.41592 3.60919,2.37135 6.58526,1.73444c0.2048,-4.73782 -1.6946,-10.32982 -0.19714,-15.92178c0.84551,-1.72195 1.48242,-4.08348 2.52879,-6.23383c0.86437,-0.63805 1.27752,0 1.92971,0.41589c-2.33165,7.10048 -0.41708,13.7809 0.84921,20.44351c-0.41708,2.57076 1.28136,4.08345 1.48232,6.45447c-3.39687,2.5666 -6.79004,0.85414 -10.4182,0.85414c0.4171,-0.42953 0.84923,-0.22179 1.27766,-0.22179c-3.84046,-0.41591 -7.03255,-1.72878 -10.87682,-2.36682c0.23128,0 0.23128,-0.21611 0.44358,-0.21611c-6.38811,-0.19487 -11.09306,-5.35805 -17.2537,-6.2289l0.41708,-0.21722c-2.32784,-0.42044 -4.67451,-1.29657 -6.80521,0c0.21613,0 0.61424,-0.20816 0.61424,0.21722c-3.80633,1.0873 -4.87167,6.67094 -6.3881,9.88777c-4.65937,6.03403 1.28134,11.41293 1.51643,17.20053c0.41328,2.80698 1.69462,5.60751 1.69462,7.94855c0.84922,10.75821 1.05019,21.95996 2.56281,32.49374c0.84923,2.36682 3.39699,3.86621 4.02628,6.21637c1.93354,0.23392 3.21117,2.1492 5.11047,2.1492c-0.19716,0.23434 -0.19716,0.23434 -0.40182,0.23434c0.84922,0.65015 2.13068,0.2081 2.75996,1.27417l-0.23129,0c1.92971,0.44244 2.78275,1.9426 4.71248,2.37631l-0.21613,0.21649c1.49377,1.29199 2.75995,1.92477 4.02626,3.44159c0.64825,1.71667 0.4473,3.65887 1.51263,5.15906c0.61793,3.64139 1.06534,6.88324 0.21612,10.95001c1.48231,0.89282 1.26248,-1.49182 2.33154,-1.69049l-0.20467,-0.22595c0.85674,-1.08386 2.33153,-0.43369 3.40069,-0.43369c1.91075,2.58444 4.47356,4.30072 6.80508,6.65842c0.64455,1.08392 1.49377,2.15036 2.12685,3.43326c0.85306,0.22562 2.57797,0.6593 3.21107,-0.39841c0.84922,-1.08429 1.69855,-2.15076 2.54776,-3.45947c3.60918,-8.81711 9.15189,-19.99274 3.20726,-28.80075c-1.9259,-1.30948 -2.57797,-3.45905 -4.25743,-4.29123c-2.34299,5.55634 -4.9058,8.79929 -7.03648,14.39127c-1.08421,0 -2.34669,-0.23389 -3.21107,-0.65851c0.64825,-5.13324 3.21107,-10.09171 5.34175,-14.62671c-1.70225,0 -3.41203,0 -4.6935,-0.86664c-0.41697,-0.83218 -1.26618,-1.70831 -1.91073,-2.5488c-1.27002,-5.18405 0,-9.25085 1.26247,-15.28525c-0.39812,-0.41586 -1.68328,0.23428 -1.4823,-0.85834l-7.65442,-0.84885c0.61793,-0.20813 1.2663,-0.20813 1.8994,-0.20813l-4.89065,0c0.2123,0 0.62558,0 0.86437,0.20813c-2.36566,-0.20813 -4.49634,1.29132 -6.17962,0.19867c-1.27752,-8.17529 -1.27752,-16.35056 -1.49747,-24.29459c4.89434,-1.70749 9.80396,1.73413 14.91824,2.80472c-0.24261,0.20395 -0.43977,0.42047 -0.64443,0.42047l2.98359,0.86969l-0.4511,0.41589c2.13438,0.22592 2.78263,1.94257 4.91332,2.15903l-0.65208,0.64188c1.08421,0.21646 2.13438,0.21646 2.99493,0.63235l-0.62926,0.65854c0.84921,0.23428 1.89941,0.23428 2.54384,0.85834l-0.41316,0.42572c1.89558,0 2.54384,1.9411 4.25742,1.9411l-0.43213,0.41626l2.33154,1.10059l-0.40194,0.4079c2.52879,-0.4079 2.12688,2.15872 4.46221,1.93314l-0.42078,0.65964c0.85303,0.19867 1.69844,0.19867 2.54765,0.85834c-0.20466,0 -0.20466,0.22443 -0.41696,0.22443c3.39687,1.72614 7.00604,3.22552 10.21722,5.37589c3.41203,0.85001 7.04018,2.14087 10.65318,3.64142c2.55898,0.21609 5.95204,1.09225 8.30264,0c0.64444,-1.50055 2.12675,-2.55753 2.77133,-3.86734c4.48117,-6.66678 4.67448,-14.39966 5.11427,-21.72382c0.41698,0.43793 1.28146,-0.64105 1.6908,0.21194c1.93735,8.82053 -0.40933,17.87082 -0.8454,26.68793c2.32782,0.1998 2.32782,2.35846 4.6935,2.35846l-0.43225,0.42426c0.64836,0.42575 2.13068,0.42575 2.13068,1.30075l2.56282,1.04977l-0.235,0.22443l2.13057,0.87616l-0.63689,0.65018c0.87199,0.20813 1.93735,0.20813 2.77138,0.62439c-0.6407,0.22559 -0.20859,0.44208 -0.20859,0.64188c0.85303,0 1.28528,0.65018 2.13071,0.88409l-0.42844,0.20816c2.34679,1.9509 5.12189,1.9509 7.02132,3.85788l-0.20096,0c2.56279,0.64182 4.68967,2.59241 7.04018,3.88367l-0.21997,0l2.97993,1.05811l-0.43214,0.43372l2.97597,0.875l-0.41315,0.44205c1.04253,0.1998 2.12685,0.1998 2.75995,1.05811l-0.21614,0c0.63312,0.65851 1.93355,0.65851 2.75996,0.84998l-0.19713,0.86667c2.7751,-0.86667 2.9837,2.14087 5.75502,1.92477c0,0 -0.2085,0.21609 -0.45111,0.21609c4.26125,1.9426 9.38686,3.8848 13.4321,4.74313l-0.19714,0.43292c5.74358,0.21725 12.12796,3.64145 17.2346,5.35809c4.47366,-0.19867 6.39195,1.95056 10.64938,1.95056c0,0 -0.19322,0.19983 -0.19322,0.42535c4.88683,0.86667 9.34903,1.72501 14.05743,2.14963c0,0.21719 -0.86794,0 -0.45097,0.21719c2.78275,0.86667 5.97113,0.42462 8.75365,1.0748l-0.2388,0.23431c7.47241,-0.23431 13.64441,2.35849 21.10181,2.35849c-0.21613,0 -0.21613,0.19867 -0.43222,0.19867l2.34286,0.84995c0.86816,6.69257 1.06531,12.70081 1.91455,19.15109c0.86816,2.35849 1.50128,5.14996 2.13065,7.30862c2.35049,1.95056 -1.26248,2.38464 -0.21606,4.29993c-1.04642,-0.41626 -1.47864,-2.14957 -2.32785,-2.79974c-1.50128,-3.0087 -2.1268,-5.16736 -3.84415,-7.71619c-1.49368,-4.0918 -2.97989,-8.19305 -3.62833,-12.27655c-0.20078,-3.00754 -4.89047,-1.2746 -7.2334,-2.1496c0.42834,-0.22559 1.08044,-0.22559 1.49365,-0.22559l-12.564,-0.83218c0,-0.15616 0.16684,-0.2081 0.33762,-0.23425c-3.17706,-0.86667 -6.97588,-0.65021 -9.9178,-1.28296c0.19714,-0.1994 0.43222,0 0.64444,0c-1.27754,-0.64182 -2.57405,-0.85791 -4.05661,-0.64182c2.77907,8.15857 5.97115,16.99277 11.07779,24.09326c3.41585,3.21677 6.39207,7.08264 9.15953,10.31805c1.90326,-0.21991 1.06161,1.93347 2.77142,1.69843c1.69839,3.88214 6.39182,6.03555 7.87042,10.32712c0.21616,9.48172 1.50128,16.99963 -1.26248,26.46616c-7.04019,8.5946 -12.36295,19.35391 -19.81641,26.46237c-2.76378,2.76376 -6.19096,4.29916 -9.15189,7.06674c-4.70865,3.02536 -7.23735,9.04193 -11.30525,12.68906c-3.60535,1.50885 -8.31403,3.4613 -12.33644,3.4613c-0.23883,1.05774 1.27763,1.28143 1.27763,2.14963c0.216,6.64969 -5.54271,12.4502 -6.17581,19.134c1.687,0.21613 3.18074,1.91455 5.3076,1.27383c4.26125,1.73257 10.00481,0.87576 14.91063,0.64072c2.34679,-1.49753 5.12561,0.23505 7.02513,-1.69843c4.70473,-2.14963 7.68462,-6.89993 9.17085,-11.84363c-0.42461,-0.22369 -1.28146,-0.42462 -0.85313,-0.62173c-4.06029,0 -8.31772,-1.52783 -11.92703,-1.75153c-0.41696,-1.05777 0,-2.78271 0.42857,-4.07553c4.47725,-1.05771 10.64922,1.53543 14.05743,-1.51648l-0.23116,-0.20093c1.93353,-1.48993 2.99493,-3.85941 5.54263,-4.29916l-0.2009,-0.21613c4.04523,-1.08423 8.52252,-2.99121 12.34793,-2.99121l0,-0.23505l3.19208,-0.42462c0.41693,-3.02533 0.41693,-7.53305 -1.7135,-9.68262c-0.41324,-1.30042 -2.12323,-1.94485 -1.67969,-3.44241c5.52386,-7.09329 10.64948,-15.703 17.66306,-21.05994c2.55154,-1.70981 5.55045,-2.37708 7.67725,-3.65848c3.61667,-2.35809 7.43814,-4.31058 9.99734,-6.89236c0.42072,-1.29279 3.00256,-3.85938 1.69849,-6.00897c-0.83423,-5.40244 -1.90692,-10.9679 -2.54028,-16.57501c0.8418,-0.21988 1.70605,0 2.12698,0.65588c-0.21982,0.22748 -0.21982,0.22748 -0.42093,0.22748c2.97229,0.83408 5.0993,3.84048 8.07523,4.93231c-0.20084,0 -0.20084,0.2009 -0.41324,0.2009c2.34308,0.43979 3.40845,2.8093 5.75128,3.45758l-0.62939,0.64447c1.05008,0.20474 1.91455,0.20474 2.95721,0.64072c-0.19339,0.22372 -0.41327,0.22372 -0.62567,0.22372c4.06024,1.4899 7.66583,4.07547 12.12415,4.95126c-0.19324,0 -0.19324,0.19708 -0.40936,0c0.86432,1.2738 3.62433,0.19708 4.04129,1.69083c4.89447,5.59198 10.6456,11.64267 15.11938,17.65927c1.50125,2.35812 -0.20877,4.0831 -0.84183,6.2251c-2.76376,9.88358 -7.8894,18.27722 -12.99976,26.66708c-5.53891,5.81943 -9.58044,10.11862 -13.84155,16.76834c-1.06534,1.07672 -2.34308,2.58557 -4.04153,3.44998l0.19342,0.20093c-4.45456,2.37326 -9.14813,4.52664 -13.8226,5.59952c1.04639,0.84927 1.91455,2.57422 1.70215,3.89352c-1.50494,5.35696 -3.62805,10.0921 -6.81268,13.94772c-1.08044,1.10321 -0.86057,1.94485 0.21979,2.59317c2.32416,0.65964 4.25372,1.27383 6.8053,1.71744l-0.2124,0.19714c6.17963,0.90225 14.26251,0.90225 20.44208,0c6.17572,-1.91458 10.00482,-6.86584 11.71854,-13.31464c-0.63327,-0.22363 -1.50128,-0.22363 -1.50128,-0.65207l-7.43448,-0.84921l0.19717,-0.23129c-1.91458,-0.6445 -4.67465,0 -6.58554,-0.86057c0.83051,-1.4975 1.26251,-3.20734 2.54028,-4.0831c4.26505,0 9.15555,-0.2085 12.56775,0.21609c2.33911,-2.98364 4.05658,-5.80048 7.01752,-8.37466c2.35046,-1.71741 5.34174,-3.01779 7.88937,-3.20734l-0.19348,-0.24265l8.06387,-0.85681c1.28522,-3.44238 0.44733,-7.10083 -1.89948,-9.25046c-0.42834,-1.06909 -1.71741,-2.55902 -2.55899,-2.7941c-0.84927,-1.07291 -1.4747,-2.35049 -1.28152,-3.66605c2.34686,-6.44122 5.10297,-12.2417 8.1095,-18.91794c4.46591,-9.44 13.82257,-15.05093 15.53607,-25.8027c-0.21985,-2.97983 1.49384,-6.89233 -1.91431,-8.38226c-1.08063,-1.48993 -2.13074,-2.36569 -2.76379,-3.20731c-2.13068,0 -1.29675,-1.9487 -3.2113,-1.9487c-2.12674,-2.35052 -4.26508,-5.59576 -6.17203,-7.74533c-2.97989,-5.15601 -6.38806,-8.81445 -8.95468,-13.55722c-1.27753,-0.84164 -2.75986,-1.9335 -3.17706,-2.7941l-0.23117,-1.4975c4.90189,-9.90216 11.72989,-19.14389 16.18442,-28.60287c4.48517,-10.10837 11.08545,-24.50912 5.11432,-36.75955c0.8645,-0.45987 1.71368,-0.45987 1.92981,-1.30872l3.4082,0c1.50128,2.58331 2.54767,3.90149 3.82916,6.25052c2.34656,0.1998 1.28143,1.70828 3.4119,1.9422l-0.64816,0.4068l2.77515,0.44241c0.43591,0.65024 -0.64447,0.41589 0,0.85834c1.0614,0.2081 2.12671,0.2081 3.19971,0.84998c-0.21246,0 -0.21246,0.21609 -0.41696,0.21609l3.1694,1.09262c-0.2085,0 -0.2085,0.20816 -0.40564,0.20816l2.32391,1.07553c-0.19348,0.21649 -0.19348,0.21649 -0.42093,0.21649c0.42093,0.43372 2.13461,0.85834 1.27383,1.49106c2.99121,3.45908 0,9.04269 -1.48233,13.12616c2.76007,-3.20734 4.05661,-7.96713 6.82407,-10.7597c0.62939,-2.56552 0.84921,-4.91565 0.84921,-7.51639c0.62943,-0.2081 1.06534,0.2081 1.47488,0.84998c0.43225,2.15869 2.34686,2.59241 2.98364,4.10089c2.99493,0.85834 6.18726,0.19907 9.38309,0.63278c0,1.31818 2.54391,0.87573 2.12695,2.15033l1.50128,0c0.41324,-2.35849 -0.23886,-4.72531 -0.65204,-6.884c-2.12698,-3.2077 -5.97119,-5.35803 -6.608,-9.44153c-1.49384,-1.30872 -2.75635,-2.36682 -3.82144,-3.85751c0.84525,-0.65967 2.32761,-0.24338 3.40817,0.39807l-0.42853,0.43411c0.8418,0.21646 1.9259,0.21646 2.75616,0.87497l-0.41302,0.19983c1.91455,1.0744 4.67438,0.86664 6.80508,0.23392c2.77884,-0.23392 3.20731,2.15036 5.97113,1.71661c0.85294,-0.45987 2.55136,-0.21646 2.35043,-1.30872l7.01758,-0.64182c0.6557,-1.70831 -1.05795,-2.80927 -1.47864,-4.06604l0.20084,0c-2.11536,-0.88409 -4.24234,-1.94223 -5.95959,-2.38425c-1.06531,-1.07483 -2.13062,-1.90698 -2.99884,-3.22556c-0.84921,0 -1.8956,-0.21609 -2.75244,-0.44205c-0.22379,-0.62363 -0.63702,-1.4903 0.21243,-2.34067c2.54001,-0.64148 5.53885,-0.44241 7.8855,0.40829c0,0.88409 1.91449,0.64072 2.54761,1.93237c4.04523,1.31818 5.97113,-2.54883 8.51505,-2.98251c-0.21234,0 -0.40952,0 -0.63303,-0.21646c0.85291,-0.87616 2.35419,-0.24231 3.39688,-0.87616c-0.84549,-0.85831 -0.62943,-2.77362 -2.33154,-2.56549c-0.64465,-1.29202 -2.97623,-0.65018 -4.25369,-1.29202l0.43201,-0.44208l-2.78253,-0.85864c-0.42859,-1.29205 -2.13074,-2.34903 -2.34314,-3.0087c-1.50494,-0.65851 -1.91455,-1.95056 -3.62805,-2.14923c0,-0.43405 0.2312,-0.43405 -0.19342,-0.85828c1.6908,-0.85001 3.82147,-0.1915 5.53128,-0.43414c0.4209,-1.51678 2.54785,-0.85751 2.54785,-1.70825c2.56271,-1.29892 5.12564,-2.14886 7.4722,-1.51685c0.63702,1.0748 3.17709,0.65015 4.67834,0.21793l-0.21985,-0.21793l2.12677,-0.63202c-0.41696,-1.30869 1.06537,-1.10095 0.6333,-2.15903c-0.40955,0 -1.27777,0 -1.47485,-0.85837l0.19708,-0.23428c-2.97986,-1.4903 -5.74362,-2.78308 -7.87411,-5.13931c-4.9021,-1.31287 -10.01263,0.83939 -14.47098,-0.44208c-0.85684,-1.29654 -3.41211,-1.07056 -5.11426,-1.50848c0,-0.21646 0.22357,-0.21646 0.42072,-0.21646c-2.77881,-0.42459 -5.54266,0.65439 -7.67328,1.50851l0.21985,0c-1.48608,0 -2.76355,1.29846 -4.04504,0.44205c1.47839,-1.95056 2.75616,-3.66724 4.90582,-4.29575c1.2662,-1.29587 3.81384,-2.59244 5.94055,-3.01285l-0.19708,-0.23393c4.68588,-1.27875 10.64572,0.23393 15.55893,-1.06194l-0.21609,-0.21681l2.97986,-0.87163l-0.22351,-0.20773c1.91452,-0.63692 2.55139,-1.70755 3.84784,-2.78767c2.96094,-0.2123 5.5199,0.83673 8.30264,0.64227c1.69852,-1.29662 4.25772,-1.49602 5.11063,-3.44656c1.4747,-0.65477 3.41217,-0.42044 4.88681,-0.1949c2.35049,0.63695 2.35049,-1.73863 4.47726,-1.73863c0,-0.87079 1.06531,-1.07022 1.47858,-1.92474c-2.97992,-1.29204 -5.73602,-3.66719 -8.9281,-5.3922c-1.49762,-1.69962 -4.68201,-0.42575 -7.25629,-1.06227c0,-1.72459 -1.6795,-0.21611 -2.13074,-1.50853c2.55905,0.42007 4.70502,-1.49597 7.0365,-1.49597c0,-0.2343 0.21982,-0.43675 0,-0.65471c2.35052,-1.49034 4.6897,-2.78654 7.02887,-2.57045c1.70978,0.196 5.33411,2.99086 8.09784,1.93388c-0.21606,-1.29584 1.49371,-0.64148 2.12683,-1.29584c-0.41312,-0.63805 0.85309,-1.29695 0.62933,-1.94298c-1.04245,-0.20813 -2.34286,-0.20813 -3.39316,-0.64563c-0.43204,-0.41664 -2.12674,-1.71663 -2.9873,-2.34938c0,-0.22557 -0.22379,-0.65436 0,-0.85416c-2.55154,0.41589 -1.91452,-1.95927 -4.26511,-1.95927c0,0 0.04932,-0.04321 0.15164,-0.08151c-2.46045,-0.75482 -4.72763,-0.77264 -7.38895,-0.77264c-2.54391,-2.15034 -5.75873,-4.51147 -9.16714,-5.36563c0.64835,-2.3763 3.40842,-0.65018 5.34177,-0.88029c-0.21619,0.23012 -0.21619,0.23012 -0.43964,0.23012c1.7211,1.07857 4.26501,0.65018 6.17569,0.42422c3.19601,-1.29619 5.54651,-3.64104 8.95468,-3.22136c0.85315,1.71286 3.82544,0.21761 4.47748,1.92517c3.18079,0.64185 6.5853,0 8.71594,-1.50851c0.21982,-0.83633 1.7135,-1.69884 1.50134,-2.5708c-2.9762,-0.21684 -5.1106,-1.27838 -7.45349,-2.36569c-1.2662,-1.71701 -3.41583,-2.35431 -4.47351,-4.30563c-0.85321,-0.63197 -2.55167,0.22218 -2.76776,-1.27875l-12.77621,-0.42955c-2.35416,-1.29468 -4.04132,-2.78877 -6.60794,-2.78877c0,-0.22597 0.43594,-0.22597 0.62939,-0.22597c-1.04266,-0.853 -3.17331,-0.43105 -4.45087,-1.0873l0.63309,-0.42311c-2.13828,-0.63654 -4.69727,-0.21419 -6.82797,-0.85338c1.08429,-2.14847 4.26141,-2.14847 5.75504,-3.44278c2.97992,-0.21646 6.19485,-0.21646 8.95474,0c1.91452,1.93427 5.73605,0.42235 7.67352,1.93427c4.8905,0.63654 9.14423,0.43108 14.25848,0.2142c1.0614,-0.85416 2.97595,-1.49371 4.25372,-2.36493c0.65576,-1.05962 0.87195,-2.15869 2.13446,-2.79597c1.27747,-2.78766 0.21606,-7.52547 -1.71747,-9.88965c-0.41699,-2.37328 -3.80649,-3.6418 -3.17334,-6.45712c3.82541,-0.63728 7.02142,2.81532 10.64185,1.07935c0,-0.20509 -0.42834,-0.20509 -0.42834,-0.42235l2.13068,-0.657c-0.84924,-0.85416 0.436,-1.06834 0.63681,-1.49069l0,0l0,0z" id="path1364"  stroke-width="1.0000000pt" stroke="#000000" fill-rule="evenodd" fill="royalblue" class="color" transform="scale(.10)"/>
 </g>
</svg>