<svg width="50" height="50" xmlns="http://www.w3.org/2000/svg">
 <g>
  <title>Layer 1</title>
  <g id="svg_1">
   <path class="color" d="m303.68796,4.60299l4.77188,0c7.06708,0.33113 14.17496,2.62634 19.659,7.18954c6.36395,5.17556 10.2377,12.89582 11.82983,20.84287c2.42221,12.10202 0.33115,24.82093 -4.71289,35.99761c-2.83499,-4.65393 -2.68982,-10.33752 -4.25021,-15.43143c-2.25894,-7.39367 -5.64276,-14.76465 -11.4942,-20.00825c-5.66092,-5.1302 -13.29953,-7.53881 -20.81567,-8.00602c-5.72443,-0.41278 -11.57132,-0.1134 -17.10519,1.50595c-3.12076,0.91627 -6.30502,2.48572 -7.96521,5.42958c10.62784,0.4037 21.5369,-0.03629 31.7973,3.24323c5.80151,1.80986 11.1041,5.45226 14.42444,10.59607c4.34549,6.48193 5.15741,14.55599 5.22092,22.16284c-0.06805,6.19163 -0.7439,12.4014 -2.24533,18.41611c5.08942,1.77357 10.85013,2.34058 15.94403,0.25856c5.33432,-2.09563 9.19446,-6.77224 11.68472,-11.79811c3.91455,-8.05592 5.17554,-17.10975 5.43408,-25.98215c0.06805,-7.5751 -0.81192,-15.16381 -2.73065,-22.49851c2.34058,0.03629 3.69229,2.20449 4.87164,3.92363c4.81723,7.72025 8.4415,16.1708 10.89545,24.92073c2.51297,8.83611 3.03003,18.37529 0.63959,27.29758c-1.98676,7.47531 -6.0737,14.44712 -11.94781,19.5229c-3.92813,3.5154 -8.70911,5.90585 -13.67148,7.57964c9.09921,3.34303 18.95139,4.02343 27.95987,7.64767c6.65427,2.835 12.61456,7.07614 18.09406,11.75728c11.16306,9.69795 20.37112,21.51421 27.86911,34.21951c9.38498,16.31142 13.82568,35.01331 15.48135,53.629c0.37195,4.86711 0.70761,9.73877 0.68494,14.62857c-6.02835,5.44771 -12.65088,10.29214 -17.95346,16.49738c-2.76242,2.76244 -5.51123,6.11453 -9.49384,7.01265c-5.5838,0.26309 -10.62781,-2.66263 -15.8941,-4.08238c-9.79318,-2.59457 -19.69528,-4.81723 -29.35693,-7.90623c-8.8588,-2.86221 -17.71756,-6.39575 -25.0795,-12.22902c-2.46304,-1.9278 -4.0098,-4.80815 -6.6044,-6.57718c-1.22467,-0.98886 -2.63992,0.04082 -3.72855,0.70306c-7.18048,4.79454 -14.02075,10.40556 -22.23544,13.36302c-8.31445,2.97107 -17.2821,2.06841 -25.93225,2.17276c-5.50214,0.14513 -11.0043,-0.17691 -16.50192,0.08163c-3.32034,0.25403 -6.93553,0.93896 -9.36227,3.41106c-1.17482,1.23834 -2.12738,2.79872 -2.26346,4.53145c-0.30391,7.53883 1.72821,14.93703 4.51331,21.88164c6.15536,15.86688 15.40421,30.24142 24.09064,44.79288c7.05798,11.28101 15.87595,21.28741 24.01352,31.7746c-26.54462,-11.3808 -52.12758,-24.98422 -79.18022,-35.18567c-5.44771,-1.9913 -10.86368,-4.15494 -16.47017,-5.65637c1.6012,2.11377 3.83743,3.61972 6.23244,4.71289c7.47986,3.27954 14.80548,6.90378 22.21274,10.34204c18.90602,8.93137 37.80748,17.94891 55.8607,28.53137c11.35361,6.56812 22.11295,14.08426 32.91769,21.50513c17.05078,11.75278 33.90198,23.78674 50.88925,35.63477c4.84442,3.30219 9.1355,7.35281 14.0661,10.53253c3.05725,1.97769 6.41846,3.76489 10.11072,4.05972c3.0618,0.2767 5.62009,-1.76904 7.84274,-3.5925c5.09845,-4.44528 9.50742,-9.67526 13.14075,-15.37701c8.89056,-13.7395 14.70566,-29.24805 18.73364,-45.04236c4.64938,-18.39798 6.8811,-37.32666 7.81097,-56.25079c2.78055,1.56946 4.06427,4.70834 5.04855,7.58868c2.05933,6.75864 4.27289,13.49911 5.44318,20.48456c3.97806,21.48242 0.93896,43.6861 -5.64276,64.34299c-8.08313,25.74173 -21.40988,49.33344 -33.68878,73.21994c-2.63544,5.35248 -5.71988,10.53253 -7.48441,16.26605c-1.29727,3.93726 -1.62839,8.08768 -1.77808,12.20636l-1.5105,0c-1.53772,-0.71667 -2.79871,-1.89154 -3.81931,-3.22055c-2.87128,-4.04611 -6.45923,-7.49802 -9.71158,-11.22205c-14.00711,-15.42688 -28.29547,-30.6134 -43.13724,-45.24197c-34.06979,-33.77496 -71.31937,-64.69681 -112.81458,-88.96887c-32.21913,-18.91507 -66.86502,-33.70242 -102.8717,-43.69974c4.54959,-1.38345 9.25795,-2.15912 13.96178,-2.82138c9.73422,-1.29276 19.5229,-2.43127 29.09384,-4.70383c7.44356,-1.86884 14.62856,-4.71741 21.50058,-8.11942c7.72025,-3.90546 15.07309,-8.98123 20.36205,-15.92584c3.12531,-4.02795 4.90794,-8.8497 7.14873,-13.37213c3.51085,-7.00354 6.51369,-14.25204 9.18083,-21.61397c6.3141,-17.43634 11.10411,-35.36711 16.56544,-53.07559c2.90758,-9.43488 4.9669,-19.19632 9.19899,-28.17303c1.45602,-3.20695 3.91907,-5.77885 5.88318,-8.66374c8.05136,-12.52841 19.04208,-23.37849 32.31439,-30.27773c9.63898,-4.99866 20.51172,-6.72688 31.15768,-8.14211c0.58969,-0.05897 1.64658,-0.14515 1.49689,-1.01606c0.43546,-7.2984 -5.45227,-13.74858 -12.31976,-15.39968c-2.77148,-0.60329 -6.09634,-0.91174 -8.39157,1.10224c-1.89151,1.38348 -3.50632,3.91456 -6.15079,3.58797c-4.32733,-1.10225 -7.43451,-4.64485 -11.44882,-6.42296c-3.70593,-1.46513 -7.72028,-2.02305 -11.68475,-2.10017c-9.51648,0.17237 -18.9332,3.1253 -26.96643,8.21014c-4.36362,2.7352 -7.9924,6.51368 -10.93628,10.714c-4.35907,6.18256 -7.59778,13.2088 -9.07649,20.64783c-3.24326,15.52669 -2.7715,31.47977 -2.81232,47.25139c0.05896,5.42958 0.08618,10.86371 0.01814,16.29329c-0.6169,17.93076 -3.72859,35.82071 -9.59816,52.78528c-2.51294,7.04442 -5.47495,13.99809 -9.57549,20.27589c-5.13019,7.64316 -12.44221,13.71231 -20.65234,17.81284c-6.57719,3.33847 -13.86198,4.96692 -21.10596,6.07822c-9.88846,1.50143 -19.92206,1.62842 -29.8967,1.22925c-12.4014,-0.68494 -24.77104,-2.49478 -36.7506,-5.81516c-0.95709,-0.24493 -1.90965,-0.52161 -2.78056,-0.99789c14.9733,-4.93063 30.74495,-8.07861 44.57971,-15.93042c3.79208,-2.11829 7.20314,-4.84442 10.36018,-7.81094c3.95085,-3.61972 7.92891,-7.22128 11.58038,-11.14493c4.49516,-4.83084 8.16478,-10.4464 10.65051,-16.56543c3.95538,-9.60269 5.60194,-19.93114 8.886,-29.74702c2.64449,-7.59778 5.7471,-15.01413 8.65466,-22.51212c1.38348,-3.44281 2.94386,-6.97635 5.68813,-9.57092c-0.18597,7.73386 -0.65771,15.47224 -1.42429,23.17436c-0.55794,4.88525 -1.28822,9.74783 -1.68286,14.65125c-0.9072,10.03813 -1.34265,20.23958 -4.35454,29.93298c-4.5995,15.40422 -14.0162,29.02579 -25.67371,39.95755c7.25758,-1.55585 14.17496,-4.80817 19.82228,-9.64352c5.72441,-5.01227 10.43277,-11.22658 13.48549,-18.20747c2.95747,-7.08975 4.5768,-14.66031 5.75162,-22.22635c2.47212,-17.22768 2.52203,-34.66856 2.90758,-52.03687c0.63506,-18.00334 1.01607,-36.29698 6.00566,-53.74239c2.1319,-7.71118 5.7879,-14.98691 10.73215,-21.28287c3.76033,-4.68114 7.78375,-9.1627 12.18365,-13.24962c6.7178,-6.2143 14.77373,-11.2674 23.7822,-13.27684c8.37799,-1.95954 17.20047,-1.05688 25.33353,1.56038c4.6539,1.59667 8.58661,4.71743 13.17249,6.48647c2.43127,0.99792 5.04404,1.45152 7.66129,1.59213c0.67133,-3.05726 -1.06595,-6.10091 -3.30222,-8.06952c-5.55203,-4.76279 -12.65536,-7.28027 -19.77234,-8.53674c-12.474,-2.21809 -25.52405,-0.85277 -37.37202,3.5789c-12.68263,4.77186 -23.41479,13.91187 -31.07607,24.99783c-8.58662,12.29707 -14.02075,26.48565 -17.98067,40.86927c-0.42639,1.41522 -0.6169,2.91209 -1.26102,4.25928c-1.54677,-5.03493 -1.13852,-10.41463 -0.38554,-15.55389c1.35626,-8.35529 2.91209,-16.69244 5.16649,-24.85722c4.2457,-15.55391 10.5235,-30.64515 19.36414,-44.16693c7.45717,-11.42616 16.79222,-21.67749 27.78293,-29.79238c7.13512,-5.32979 14.99599,-9.64805 23.21974,-13.05004c9.25793,-3.89191 18.95135,-7.21225 29.04391,-7.87451l0,0.00001l0,0.00001z" fill="#122b5d"/>
   <path class="color" d="m267.23224,98.96518c6.22791,-3.00282 13.28592,-4.64486 20.20331,-3.72858c4.22299,0.75751 8.61383,2.26799 11.56677,5.52937c2.19086,2.35871 2.44034,6.15079 0.71213,8.83157c-1.12494,1.49688 -2.87582,2.31789 -4.54504,3.04819c-5.06671,2.03665 -10.52805,2.88035 -15.56299,5.0032c-7.56601,3.51085 -14.15683,8.89054 -19.69528,15.08671c-4.92154,5.73347 -8.82703,12.46489 -10.6777,19.8268c-1.27914,4.60857 -1.9641,9.35776 -3.09355,13.99806c-2.90756,-4.2094 -3.1389,-9.61177 -2.81683,-14.54691c0.27669,-8.47324 2.07747,-16.84668 4.74916,-24.87991c2.41315,-7.34377 6.04195,-14.28837 10.67773,-20.48c2.32697,-3.03458 4.94421,-6.05101 8.4823,-7.6885l0,0l0,0z" fill="#122b5d"/>
   <path class="color" d="m424.61292,245.39597c3.27951,-2.32697 6.99902,-4.22751 11.01791,-4.79451c-5.16647,6.72231 -7.26666,15.17285 -8.45963,23.4193c-0.70761,4.27744 -0.76657,8.63654 -1.50595,12.90942c-2.07748,9.75238 -3.9599,19.59549 -4.4498,29.5701c-2.83954,-0.08618 -4.62216,-2.81683 -5.6337,-5.16647c-2.14099,-6.12814 -2.47211,-12.67355 -3.65601,-19.01031c-1.20203,-6.67245 -2.68985,-13.29953 -3.44736,-20.04001c0.02722,-0.63959 -0.29483,-1.45605 0.186,-1.97772c5.45224,-4.82173 9.98822,-10.65956 15.94852,-14.90979z" fill="#122b5d"/>
   <path class="color" d="m284.99969,243.73581c17.69943,-0.80742 35.49414,-0.76204 53.10284,1.38347c12.69623,1.45152 25.29718,3.80116 37.63055,7.15326c8.67279,2.30429 18.18933,1.66925 26.2135,6.16893c-0.06805,2.28162 -3.07996,1.46967 -4.27292,2.81686c0.43091,7.17593 1.70099,14.27475 2.31335,21.4371c0.13608,4.39084 0.18597,8.79526 0.54883,13.18158c0.22226,1.66016 0.49899,3.34302 1.14764,4.90793c1.64655,3.95084 7.3483,4.20938 8.43692,8.57755c-13.36301,-1.90967 -26.38132,-6.01926 -38.72827,-11.44882c-20.67502,-9.18085 -38.99591,-22.74799 -56.51843,-36.87305c-2.01398,-1.45609 -4.20032,-2.92572 -6.72232,-3.25232c-0.62143,1.8779 -0.96164,3.93271 -0.29938,5.8605c1.24741,3.96445 4.37268,6.88565 7.01263,9.95648c5.94666,7.0943 13.02283,13.17252 20.58887,18.47964c13.84836,9.65256 28.62662,18.3118 44.79288,23.4465c10.61874,3.42923 21.74554,5.28442 32.90405,5.43866c0.18146,3.01642 -3.89639,3.41107 -4.3772,6.14172c-0.43549,2.76694 0.99792,5.41144 0.87543,8.18747c0.12698,16.02112 -8.86331,30.35031 -9.70703,46.23077c-0.28577,4.66302 0.24948,9.35776 1.55585,13.84387c2.04575,-0.1134 3.95993,-1.22925 5.08939,-2.93024c1.93234,-2.83499 2.34058,-6.32773 3.31583,-9.53922c5.0304,-15.9848 9.41217,-32.29623 10.96802,-49.02496c0.05896,-2.10468 0.53976,-4.20483 0.19958,-6.30502c-0.17239,-2.07294 -0.43094,-4.30463 0.54886,-6.22794c1.07956,-2.13187 3.12527,-3.55618 4.29102,-5.63367c5.85144,-9.89755 8.69553,-21.15134 13.26779,-31.62491c2.57642,3.47 2.68076,8.01508 2.61725,12.16098c0.05444,8.1557 -3.56982,15.68542 -4.9805,23.60074c-2.40408,15.01865 -6.40936,29.77423 -11.8707,43.97189c-1.30637,3.57889 -3.20694,6.90378 -4.52692,10.47815c-1.53769,4.13681 -1.28824,8.76349 -3.2659,12.7597c-2.05936,4.00528 -5.08939,7.38913 -7.60684,11.09958c-2.21356,3.13437 -4.38632,6.50458 -7.70667,8.58661c-2.74881,1.75543 -6.29596,1.76453 -9.2988,0.68948c-3.94629,-1.3381 -7.30292,-3.89188 -10.67316,-6.25964c-4.28198,-3.10263 -8.67734,-6.05103 -12.73706,-9.44849c-7.56149,-6.31409 -15.93039,-11.54865 -23.90015,-17.31384c-12.45581,-8.82706 -22.88406,-20.09448 -33.25333,-31.20309c-11.13132,-12.03397 -21.51419,-24.85721 -29.92847,-38.96414c-5.15741,-8.70911 -9.84763,-17.71756 -13.6669,-27.09348c-2.03665,-4.79001 -3.81021,-9.707 -6.30954,-14.28381c-1.58759,-3.09357 -3.25684,-6.21432 -4.02344,-9.63445c-0.38104,-2.00945 -0.37653,-4.37271 1.12946,-5.95122c1.71002,-1.83707 4.34549,-2.18636 6.70416,-2.54018c6.33224,-0.87544 12.73709,-0.8709 19.1192,-1.00697z" fill="#122b5d"/>
   <path class="color" d="m39.14001,304.22321c11.43523,-0.87997 22.92035,-1.53766 34.39187,-1.1113c24.50341,0.54431 48.90704,4.40445 72.48058,11.09048c35.89781,10.1561 69.6002,26.92566 101.06183,46.78421c11.19026,7.13058 22.34428,14.34732 32.88139,22.4259c11.58035,8.85883 22.58469,18.47058 32.93582,28.74002c6.41388,6.29144 12.39685,13.00922 18.80618,19.30972c5.78339,6.02835 11.67566,12.15643 15.80341,19.48209c-12.88675,-9.43484 -25.90958,-18.69733 -39.44043,-27.18872c-21.70016,-13.6987 -44.62506,-25.52853 -68.66127,-34.56879c-8.83157,-3.37479 -17.85818,-6.18707 -26.79861,-9.24887c-18.27551,-6.17349 -36.57823,-12.37872 -55.34814,-16.88751c-22.308,-5.41141 -45.25557,-8.39157 -68.22581,-8.18744c-6.17802,0.04538 -12.4014,1.08411 -18.5522,0.08618c-1.98222,-0.26761 -3.9327,-1.11133 -5.21185,-2.69437c-2.44943,-2.87582 -3.94177,-6.38669 -5.74709,-9.6662c-2.66262,-4.85806 -5.4704,-9.62991 -8.192,-14.44711c-4.39537,-7.67944 -9.4031,-15.13208 -12.18366,-23.60077l0,-0.31754l0,0l0,0z" fill="#122b5d"/>
   <path class="color" d="m66.47842,362.84183c18.80621,-1.05237 37.71674,-1.90512 56.50935,-0.15878c20.29402,1.84161 40.23421,6.68152 59.41692,13.46735c17.31387,6.05103 34.0426,13.59439 50.80309,21.00162c23.62798,10.33301 46.87038,21.57318 69.55031,33.8476c12.728,6.84479 25.1929,14.16589 37.58069,21.60489c-5.76071,-0.77109 -11.21298,-3.0527 -16.5972,-5.15741c-9.38495,-4.01434 -18.81528,-7.91983 -28.20023,-11.92966c-10.20145,-4.38174 -20.47546,-8.61838 -30.96268,-12.26984c-13.9527,-4.92609 -28.0551,-9.40311 -42.18016,-13.79849c-19.8903,-5.90131 -40.36124,-9.50745 -60.78679,-12.99106c-16.36584,-2.79419 -32.86324,-5.0531 -49.46497,-5.6564c-5.75163,-0.29028 -11.5078,0.41733 -17.26398,0.05896c-1.96861,-0.16327 -3.98259,-0.59875 -5.65184,-1.70551c-3.75126,-2.42221 -6.40028,-6.09637 -9.25796,-9.44394c-2.57191,-3.15704 -5.55659,-5.93762 -8.25096,-8.98126c-2.15006,-2.30881 -4.73557,-4.604 -5.2436,-7.88806l0,0l0,0z" fill="#122b5d"/>
  </g>
 </g>
</svg>