<svg width="50" height="50" xmlns="http://www.w3.org/2000/svg">

 <g>
  <title>Layer 1</title>
  <g id="layer1">
   <g id="text11467" display="inline" fill="#000000">
    <path d="m217.9655,99.1824l-5.61101,40.608l-5.12,6.189l-0.94701,0.86l-2.297,2.647l-2.121,3.05101l-1.964,3.40219l-1.806,3.752l-1.57799,4.05l-1.403,4.34801l-1.17401,4.59398l-0.91199,4.85701l-0.70201,5.05l-0.403,5.25999l-0.15799,5.38301l0.15799,5.36499l0.403,5.26001l0.70201,5.04999l0.91199,4.85701l1.17401,4.59399l1.403,4.34801l1.57799,4.05099l1.806,3.769l1.964,3.384l2.121,3.05099l2.297,2.64801l2.42,2.209l2.56001,1.789l1.297,0.70099l1.351,0.59601l1.38499,0.474l1.367,0.33299l1.403,0.19301l1.438,0.06999l1.42,-0.06999l1.403,-0.19301l1.38499,-0.33299l1.368,-0.474l1.35001,-0.59601l1.315,-0.70099l2.54199,-1.789l2.42001,-2.209l2.297,-2.64801l2.121,-3.05099l1.99899,-3.384l1.771,-3.769l1.59601,-4.05099l1.40199,-4.34801l1.158,-4.59399l0.929,-4.85701l0.68399,-5.04999l0.33301,-4.20801l-0.438,0.07001c0.741,-15.04401 -1,-27.98502 -7.47,-43.448l-2.823,-4.98021l-1.26199,-1.806l-2.297,-2.64799l-2.42001,-2.209l-2.54199,-1.78801l-1.315,-0.702l-1.017,-0.455l-2.209,-4.59399l-5.243,-37.908l0,0zm67.33,3.068l-8.46902,42.958l-1.29797,0.701l-2.55902,1.789l-2.41998,2.209l-2.297,2.64799l-1.245,1.80521l-2.84003,4.98c-4.87698,13.953 -7.84396,28.32899 -7.46997,43.44901l-0.43802,-0.07001l0.33301,4.20799l0.68399,5.05l0.92902,4.85701l1.17499,4.59299l1.40302,4.34901l1.578,4.04999l1.78796,3.77l1.98102,3.384l2.12201,3.05099l2.297,2.647l2.41998,2.21001l2.55902,1.78799l1.29797,0.701l1.35004,0.597l1.36798,0.47299l1.38501,0.33301l1.40298,0.19299l1.41998,0.07001l1.43802,-0.07001l1.40201,-0.19299l1.38498,-0.33301l1.36801,-0.47299l1.35001,-0.597l1.298,-0.701l2.56,-1.78799l2.41898,-2.21001l2.29703,-2.647l2.12198,-3.05099l1.96402,-3.384l1.806,-3.77l1.578,-4.04999l1.40198,-4.34901l1.17502,-4.59299l0.92999,-4.85701l0.68301,-5.05l0.40399,-5.25999l0.15701,-5.383l-0.15701,-5.366l-0.40399,-5.26001l-0.68301,-5.049l-0.92999,-4.85701l-1.17502,-4.59399l-1.40198,-4.349l-1.578,-4.04999l-1.806,-3.752l-1.96402,-3.40201l-2.12198,-3.0502l-2.29703,-2.64799l-0.94598,-0.85901l-5.12,-6.18999l-5.61099,-40.60801l0,0l0,0zm-139.9202,74.9042l-0.07001,0.03601l-0.08771,0l-0.0701,0.01698l-0.07019,0l-0.1579,0l-0.15771,0l-0.15779,0.03502l-0.1403,0.01799l-0.3156,0.052l-0.0701,0.01801l-0.10521,0.052l-0.15788,0.05299l-0.1403,0.035l-0.15771,0.05299l-0.15779,0.07001l-0.1579,0.08699l-0.2805,0.123l-0.1403,0.105l-0.1402,0.106l-0.28049,0.15701l-0.57872,0.42099l-0.31549,0.28099l-0.28049,0.263l-0.52611,0.543l-1.05211,1.35001l-1.01678,1.614l-0.912,1.841l-0.87651,2.086l-0.754,2.26201l-0.7189,2.472l-1.1046,5.45299l-0.7014,6.067l-0.263,6.435l0.263,6.45201l0.7014,6.067l1.1046,5.45299l0.7189,2.472l0.754,2.26201l0.87651,2.08699l0.22809,0.45601l-0.035,0.245l-0.08769,3.612l0.1402,3.77l0.42081,3.892l0.68379,4.06801l0.9644,4.103l1.2274,4.20801l1.5079,4.24298l1.78839,4.22601l2.0164,4.138l2.1918,3.91l2.3141,3.66498l2.47301,3.40103l2.56,3.13898l2.64699,2.84l2.735,2.543l2.75301,2.24402l2.771,1.87598l2.787,1.526l2.75299,1.19202l2.73502,0.789l2.666,0.42099l2.61198,-0.035l1.24501,-0.15799l1.22699,-0.263l1.19301,-0.38602l1.174,-0.491l1.123,-0.59598l1.052,-0.70099l0.99899,-0.80701l0.929,-0.89401l1.666,-2.017l1.42001,-2.367l1.15799,-2.647l0.911,-2.94601l0.649,-3.19098l0.36801,-3.41901l0.10599,-3.612l-0.14099,-3.77002l-0.42101,-3.89197l-0.683,-4.06799l-0.965,-4.10303l-1.22701,-4.20799l-1.508,-4.244l-1.78799,-4.22499l-2.01701,-4.138l-2.157,-3.91l-2.349,-3.66499l-2.455,-3.401l-2.577,-3.13901l-2.62999,-2.84l-2.718,-2.543l-2.75301,-2.209l-2.78801,-1.911l-2.78799,-1.526l-2.76999,-1.192l-2.73502,-0.789l-2.68298,-0.42101l-2.57701,0.035l-1.263,0.158l-1.2272,0.263l-0.87669,0.28099l-0.0172,-0.088l-1.19221,-3.29601l-1.1048,-3.45499l-0.91168,-3.61201l-0.75391,-3.769l-0.5787,-3.80499l-0.33301,-3.735l-0.15779,-3.612l0,-3.524l0.2278,-3.367l0.42081,-3.20799l0.10519,-0.49101l0.08771,-0.491l0.15779,-0.92899l-0.01781,0l-0.03499,-0.03601l-0.0179,0l-0.035,0l-0.07019,0l-0.05281,0l0.00041,0l0,0zm209.07318,0.05299l-0.035,0.03502l-0.017,0l0.15802,0.929l0.08798,0.49098l0.10501,0.491l0.42099,3.20901l0.22702,3.36699l0,3.524l-0.15701,3.612l-0.33301,3.735l-0.57898,3.804l-0.754,3.77l-0.91202,3.612l-1.104,3.45399l-1.19299,3.297l-0.017,0.08701l-0.87701,-0.28l-1.22699,-0.263l-1.26199,-0.158l-2.578,-0.03499l-2.68301,0.42099l-2.73499,0.789l-2.76999,1.192l-2.78802,1.52499l-2.78799,1.912l-2.75299,2.209l-2.71802,2.54201l-2.62997,2.841l-2.57703,3.138l-2.45499,3.40199l-2.349,3.664l-2.15701,3.91l-2.01599,4.138l-1.789,4.226l-1.508,4.243l-1.22702,4.20799l-0.96399,4.10303l-0.68399,4.06799l-0.42099,3.89301l-0.14001,3.76898l0.10501,3.612l0.36801,3.42001l0.64899,3.19101l0.91101,2.94498l1.15799,2.64798l1.41998,2.367l1.66602,2.01602l0.92899,0.89499l0.99902,0.806l1.052,0.702l1.12299,0.59601l1.17401,0.491l1.19299,0.38501l1.22699,0.263l1.245,0.15799l2.61301,0.035l2.66501,-0.42001l2.73499,-0.789l2.75302,-1.19299l2.78799,-1.52499l2.76999,-1.87601l2.75302,-2.245l2.73499,-2.54199l2.64801,-2.841l2.56,-3.138l2.47198,-3.40198l2.314,-3.66403l2.19202,-3.90997l2.01599,-4.13803l1.789,-4.22598l1.508,-4.24298l1.22702,-4.20802l0.965,-4.103l0.68298,-4.06799l0.42102,-3.89301l0.13998,-3.769l-0.08701,-3.612l-0.035,-0.246l0.22803,-0.45601l0.87598,-2.086l0.755,-2.26199l0.71802,-2.472l1.10498,-5.453l0.70102,-6.067l0.263,-6.452l-0.263,-6.435l-0.70102,-6.067l-1.10498,-5.453l-0.71802,-2.472l-0.755,-2.26199l-0.87598,-2.08701l-0.91202,-1.841l-1.017,-1.61299l-1.052,-1.35001l-0.526,-0.54401l-0.28101,-0.263l-0.315,-0.27998l-0.57898,-0.42102l-0.28,-0.15799l-0.14001,-0.105l-0.14099,-0.10501l-0.28,-0.12299l-0.15802,-0.088l-0.15799,-0.07001l-0.15799,-0.052l-0.14001,-0.035l-0.15799,-0.05299l-0.10501,-0.05299l-0.06998,-0.01701l-0.31601,-0.05299l-0.14001,-0.017l-0.15799,-0.035l-0.15799,0l-0.15802,0l-0.06998,0l-0.07001,-0.01799l-0.08801,0l-0.07001,-0.03502l-0.05197,0l-0.07101,0l-0.035,0l-0.017,0l-0.00101,0l0,0zm-105.711,88.61601l-3.68199,0.20999l-3.56,0.56201l-3.45401,0.94601l-3.314,1.29797l-3.138,1.61301l-2.981,1.89401c-9.71399,10.54898 -12.70099,21.09897 -17.51599,31.64798l-2.069,2.92801l-2.332,2.70102l-2.578,2.47195l-2.75301,2.20905l-2.98,1.89398l-3.13899,1.61301c-11.44101,2.87601 -18.632,7.16898 -24.86301,11.78302l-2.577,2.47198l-2.332,2.69998l-2.052,2.94598l-2.77,5.29504l-0.56099,1.20999l-1.21001,3.50699l-0.877,3.664l-0.561,3.78699l-0.175,3.91003l0.175,3.89297l0.561,3.80502l0.877,3.664l1.21001,3.50699l1.508,3.332l1.823,3.173l2.052,2.92801l2.332,2.70099l2.577,2.47198l2.75301,2.20898l2.98099,1.91101l3.138,1.59601l3.31401,1.315c6.521,3.33002 12.16899,3.39398 19.26999,0.61398l0.035,-0.05298l2.069,-0.561l3.314,-1.315l3.138,-1.59601l2.998,-1.91101c18.08801,-11.65302 38.071,-18.68698 69.224,1.508l2.98102,1.91101c9.93399,6.62903 20.39801,6.12103 31.15698,1.61298l3.121,-1.61298l2.99899,-1.91101l2.75302,-2.20996l2.577,-2.47202l2.314,-2.70001l2.069,-2.92798l1.806,-3.17404l1.508,-3.33099l1.228,-3.50696l0.85901,-3.66501l0.561,-3.80399l0.19299,-3.89301l-0.19299,-3.91003l-0.561,-3.78699l-0.85901,-3.66498l-1.228,-3.50702l-1.508,-3.33099l-1.806,-3.17401l-2.069,-2.94498l-2.314,-2.70102l-2.577,-2.47198l-2.75302,-2.20905l-2.99899,-1.89395l-11.34399,-3.29605l-3.314,-1.31494l-3.13901,-1.61304l-2.97998,-1.89398l-2.75302,-2.20898l-2.577,-2.47205l-2.332,-2.70096l-2.052,-2.94504l-1.823,-3.15601l-8.978,-22.72397l-2.069,-2.94601l-2.31403,-2.69998l-2.57797,-2.47299l-2.75302,-2.20901l-2.97998,-1.89301l-3.13901,-1.61301l-3.314,-1.29797l-3.45399,-0.94702l-3.57701,-0.561l-3.664,-0.20999l0,0l0,0z" id="path5127" fill-rule="evenodd" class="color"/>
   </g>
  </g>
 </g>
</svg>