<svg width="50" height="50" xmlns="http://www.w3.org/2000/svg">
    <metadata id="metadata7">image/svg+xml</metadata>
    <g>
        <g display="inline" id="layer3"/>
        <g display="inline" id="layer2">
            <path fill="#ffffff" fill-rule="evenodd" stroke="#000000" stroke-width="1px" id="path3992"
                  d="m337.50562,229.7567c25.60327,-13.15685 54.35455,-31.77698 76.80981,-52.04303c8.58783,-18.88933 47.46829,-52.88451 45.33038,-11.77165c-1.91455,10.73027 2.55264,17.97147 15.73975,20.44551l7.55508,12.39116c3.86295,16.56367 -7.69156,25.54129 -44.07132,22.30415c-45.59851,2.48477 -76.14969,26.12332 -110.80756,43.98872l1.25922,-1.23914l-141.65738,58.85825c-33.32549,18.19122 -73.46358,38.38644 -84.36485,50.1842c-14.07945,23.76605 -58.6364,40.3399 -54.77415,12.39124c2.55425,-12.89661 -9.86662,-15.96881 -22.0356,-19.2063c-15.97417,-10.94562 -5.04675,-34.28232 13.22136,-32.83667c45.33532,16.15723 89.97148,-11.11975 128.43602,-26.02151l169.35924,-77.44493z"/>
            <path fill="#ffffff" fill-rule="evenodd" stroke="#000000" stroke-width="1px" id="path3994"
                  d="m317.9884,319.59283c33.84784,16.09885 83.9772,43.67126 100.10449,59.47769c4.81818,5.99399 5.29504,14.9519 11.60199,19.16531c7.71942,5.15714 21.35089,3.82391 27.43262,-11.11096c-0.0925,-9.77502 4.71692,-17.4826 16.36932,-22.3042c21.28009,-4.92725 17.58273,-41.59619 -23.92441,-27.26062c-44.87476,-0.05292 -76.50626,-19.65454 -112.0668,-33.45627l-27.70184,-17.34769l-209.65295,-87.97742c-8.39447,-6.19557 -16.789,-12.39117 -25.18349,-18.58682c-15.34308,-48.30092 -46.0105,-30.05458 -30.22026,-2.47821c-0.17173,7.88522 -3.61651,12.54962 -8.81422,15.48898c-24.7872,-2.8858 -36.70976,33.01822 9.44381,30.35846c15.41332,-1.14728 30.98745,-0.89723 48.47832,4.33687l224.13342,91.69487z"/>
            <path fill="#000000" fill-rule="evenodd" stroke="#000000" stroke-width="1px" id="path3996"
                  d="m44.43228,200.94713c0.42068,-2.22838 6.54408,-4.83434 8.18465,-8.05428c2.42702,-1.00583 7.76714,5.8902 12.59178,7.43474c0.32541,3.05008 0.85709,6.17627 -5.3515,6.81517c-8.81084,0.34196 -15.82748,-4.06316 -15.42493,-6.19563z"/>
            <path fill="#000000" fill-rule="evenodd" stroke="#000000" stroke-width="1px" id="path3998"
                  d="m441.70251,183.59949c-31.25577,21.8013 -9.5376,22.40541 9.75864,16.10852c-10.69955,-3.67844 -9.5654,-10.04417 -9.75864,-16.10852z"/>
            <path fill="#000000" fill-rule="evenodd" stroke="#000000" stroke-width="1px" id="path4000"
                  d="m420.61127,361.10333c5.60825,-3.31137 17.87863,10.07513 14.16577,13.94012c-2.09946,2.18555 -15.67703,-13.04779 -14.16577,-13.94012z"/>
            <path fill="#000000" fill-rule="evenodd" stroke="#000000" stroke-width="1px" id="path4002"
                  d="m421.24084,353.35883c-1.09735,-2.3786 34.45239,-4.69073 33.05353,3.09775c-9.26489,14.39206 -18.40747,-3.45743 -33.05353,-3.09775z"/>
            <path fill="#000000" fill-rule="evenodd" stroke="#000000" stroke-width="1px" id="path4004"
                  d="m55.1353,355.8371c-1.50234,6.2876 17.18578,6.20184 14.79531,23.54321c6.12043,-3.75293 11.45197,-9.05847 12.59176,-22.61389c-6.33014,0.14923 -27.36673,-3.9722 -27.38707,-0.92932z"/>
            <path fill="none" fill-opacity="0.75" fill-rule="evenodd" class="color" stroke="#000000" stroke-width="6"
                  stroke-miterlimit="4" id="path3117"
                  d="m169.09077,309.67984c-22.63882,22.0748 -4.92958,77.85483 31.47939,39.03223"/>
            <path fill="#ffffff" fill-rule="evenodd" stroke="#000000" stroke-width="3" stroke-miterlimit="4"
                  id="path1343"
                  d="m343.80157,187.6266c5.10028,14.27866 -0.40839,30.64531 -3.14795,46.467c-5.44989,24.19952 36.61484,44.87036 -5.03674,73.72754c-10.96765,9.26642 -8.66925,30.94608 -24.55389,47.70615c-12.34326,14.68781 -14.63312,45.10187 -35.25702,48.94519l-28.96104,-0.61951c-17.00883,1.13068 -31.66629,-20.87823 -45.33032,-52.66263c-12.022,-47.04916 -42.17041,-26.06647 -38.74464,-69.5199c9.82932,-18.95676 0.19136,-37.9135 -5.95612,-56.87022c-4.91866,-29.97284 3.62753,-56.56262 76.80975,-66.91246c94.42981,-13.0193 105.02563,7.79044 110.17798,29.73885z"/>
            <path class="color" fill="#cb3326" fill-rule="evenodd" stroke="#000000" stroke-width="3" marker-start="none"
                  marker-mid="none" marker-end="none" stroke-miterlimit="4" stroke-dashoffset="0" id="path2218"
                  d="m151.14749,208.69165c-2.01926,-115.27589 173.04602,-121.9064 195.17239,-22.92372c-61.47565,2.75322 -128.82794,37.00186 -190.76524,37.79318c6.62785,10.11945 7.17245,20.23888 10.70299,30.35838c-3.86273,3.63156 -9.72681,7.16418 -9.29033,12.18686c2.39175,27.52234 -9.7903,43.57462 -16.52281,61.54074c-31.16364,-28.70627 -8.81819,-56.17337 -6.92543,-76.82539c-21.56275,-0.47397 -39.26545,-11.80086 -49.10793,-45.22783c22.24545,-13.06308 44.49091,-2.62315 66.73636,3.09778z"/>
            <path fill="#000000" fill-rule="evenodd" stroke="#ffffff" stroke-width="3" marker-start="none"
                  marker-mid="none" marker-end="none" stroke-miterlimit="4" stroke-dashoffset="0" id="path2220"
                  d="m272.39233,259.64169c1.16602,-6.13232 -0.74414,-12.26601 -1.78043,-18.39963c15.35193,-12.09628 29.41812,-19.12581 43.62784,-26.72404c11.82751,0.12018 16.68042,51.14705 -4.00656,59.58177c-17.08832,-1.04584 -29.05295,-6.41245 -37.84085,-14.4581l0,0z"/>
            <path fill="#000000" fill-rule="evenodd" stroke="#000000" stroke-width="3" marker-start="none"
                  marker-mid="none" marker-end="none" stroke-miterlimit="4" stroke-dashoffset="0" id="path2222"
                  d="m247.01617,319.66089c14.53223,-15.56448 10.66272,-11.80502 21.81403,-1.31335c8.93002,8.40118 -3.56097,-50.27234 -9.79395,-49.94272c-6.23164,0.32837 -20.93507,60.80484 -12.02008,51.25607l0,0z"/>
            <path fill="#000000" fill-rule="evenodd" stroke="#ffffff" stroke-width="3" marker-start="none"
                  marker-mid="none" marker-end="none" stroke-miterlimit="4" stroke-dashoffset="0" id="path2224"
                  d="m194.039,310.02301c-5.94501,-14.93301 2.407,-17.38 10.239,-17.52402c16.229,1.81 1.88901,48.103 31.61,52.57101l48.96899,-1.75201c24.93201,-0.90399 15.53601,-57.94998 27.15701,-57.828c22.14099,-2.42398 16.42099,8.85901 13.35599,18.83801c-9.41501,-1.52899 -12.466,8.87299 -12.466,22.78101c-2.16098,14.39899 -12.466,37.09698 -26.711,41.181c-11.18399,3.20599 -36.133,5.65601 -49.41499,1.75198c-10.22099,-3.00299 -24.286,-19.02899 -27.157,-28.03699c-7.28801,-15.039 -0.117,-39.69699 -15.582,-31.98199l0,0l0,0z"/>
            <path fill="#ffffff" fill-rule="evenodd" stroke="#ffffff" stroke-width="1px" id="path2226"
                  d="m238.11301,343.75699l2.226,10.51401l7.56799,0l0.89,-15.33301l-10.68399,4.819l0,0z"/>
            <path fill="#ffffff" fill-rule="evenodd" stroke="#ffffff" stroke-width="1px" id="path2228"
                  d="m257.70148,341.7854l0.89035,12.26605l7.5676,0l0.89026,-15.33282l-9.34821,3.06677l0,0z"/>
            <path fill="#ffffff" fill-rule="evenodd" stroke="#ffffff" stroke-width="1px" id="path2230"
                  d="m274.17303,340.03278l1.78076,13.14282l7.56802,0l0.89041,-15.33331l-10.2392,2.19049z"/>
            <path fill="#ffffff" fill-rule="evenodd" stroke="#ffffff" stroke-width="1px" marker-start="none"
                  marker-mid="none" marker-end="none" stroke-miterlimit="4" stroke-dashoffset="0" id="path2232"
                  d="m235.88698,377.05179l2.22589,-3.9429l0.89038,-10.95239l6.23259,0.87619l0.89038,16.20956"/>
            <path fill="#ffffff" fill-rule="evenodd" stroke="#ffffff" stroke-width="1px" marker-start="none"
                  marker-mid="none" marker-end="none" stroke-miterlimit="4" stroke-dashoffset="0" id="path2234"
                  d="m255.92029,379.6803c0,-2.19043 -1.33557,-15.33325 -1.33557,-15.33325l8.90375,-0.87622l0.44531,15.77142"/>
            <path fill="#ffffff" fill-rule="evenodd" stroke="#ffffff" stroke-width="1px" marker-start="none"
                  marker-mid="none" marker-end="none" stroke-miterlimit="4" stroke-dashoffset="0" id="path2236"
                  d="m274.61816,377.05179l-1.78073,-12.70474l9.34897,-3.06671l0.89035,17.08569"/>
            <path fill="#000000" fill-rule="evenodd" stroke="#000000" stroke-width="3" marker-start="none"
                  marker-mid="none" marker-end="none" stroke-miterlimit="4" stroke-dashoffset="0" id="path3111"
                  d="m165.548,253.509l-5.343,-17.524c58.099,-4.959 134.30299,-59.319 152.438,-101.381c8.08499,4.67299 12.19199,9.34599 15.582,14.019c-15.065,27.52 -51.29102,55.71899 -89.66701,79.91499c15.702,49.01102 -47.168,62.91202 -61.436,21.466l-11.57399,3.505l0,0z"/>
            <path fill="#000000" fill-rule="evenodd" stroke="#000000" stroke-width="1px" id="path3113"
                  d="m139.72672,240.80428c5.02841,7.65164 -31.38558,-19.49521 -29.82745,-23.21902c1.55817,-3.72382 36.95686,3.82813 36.06008,8.32379c-0.27715,1.38948 -9.56042,9.83133 -6.23264,14.89523z"/>
            <path fill="#000000" fill-rule="evenodd" stroke="#000000" stroke-width="1px" id="path3115"
                  d="m134.38452,298.63278c13.84927,-12.99683 18.85699,-32.12695 14.69113,-38.99042c-10.53395,1.90259 -7.42529,23.20813 -14.69113,38.99042z"/>
        </g>
        <title>Layer 1</title>
    </g>
</svg>