<svg width="50" height="50" xmlns="http://www.w3.org/2000/svg">
 
 <g>
  <title>Layer 1</title>
  <g id="layer1">
   <g id="g2170">
    <path id="path2164" d="m177.66992,406.56604c-1.72604,-0.12552 -4.97395,-0.51291 -7.21788,-0.86252c-2.24397,-0.34958 -6.19803,-0.93027 -8.78659,-1.2908c-2.58955,-0.36053 -7.78062,-1.56372 -11.53648,-2.67419c-6.40019,-1.89142 -7.08943,-2.25891 -10.9837,-5.85144c-4.35345,-4.01483 -7.75276,-6.06851 -11.7875,-7.11926c-7.99078,-2.08063 -11.83626,-3.24496 -12.32132,-3.72998c-0.30276,-0.3028 -0.45614,-1.21808 -0.34061,-2.03479c0.17727,-1.25293 1.07764,-1.78381 5.7777,-3.40927l5.56656,-1.92526l-10.86022,0.28192c-7.05455,0.1832 -12.65298,0.00397 -15.97758,-0.51395c-4.79766,-0.746 -5.66715,-0.69028 -13.85016,0.88742c-4.80264,0.92529 -10.12617,2.26587 -11.83109,2.97797c-2.65669,1.10953 -3.95665,1.24603 -9.10081,0.95221c-7.28394,-0.41632 -14.26379,-1.25897 -21.3784,-2.58063c-2.93417,-0.5448 -7.02906,-1.29578 -9.09961,-1.66925c-8.32354,-1.50098 -14.57862,-5.96198 -13.9892,-9.97876c0.20319,-1.38443 -0.01016,-1.95911 -0.82318,-2.2171c-1.84725,-0.58661 -5.05043,-4.21997 -6.34502,-7.19897c-0.67518,-1.5527 -1.60015,-3.67117 -2.05531,-4.70703c-1.22526,-2.78769 -5.34555,-21.78113 -6.05867,-27.92938c-0.34033,-2.93414 -0.87726,-7.45294 -1.19319,-10.04248c-1.08443,-8.88818 -1.49497,-34.62341 -0.63753,-39.95987c1.67455,-10.42001 5.5575,-16.97562 13.13464,-22.17461l2.11796,-1.45316l-1.63471,-0.85657c-2.76465,-1.44913 -7.57167,-7.05157 -8.40173,-9.79251c-1.39547,-4.60941 -1.6117,-9.91998 -0.52608,-12.92685c0.5454,-1.50995 0.99957,-3.34653 1.00923,-4.07959c0.049,-3.71796 3.63176,-9.20883 13.17349,-20.18759c9.67559,-11.13312 17.064,-19.9884 18.77639,-22.50327c0.4948,-0.72705 1.79267,-2.30969 2.88407,-3.51779c2.3562,-2.60849 5.46198,-7.2468 7.28444,-10.87854c0.72189,-1.43881 1.81079,-3.18091 2.41974,-3.87131c0.60895,-0.69041 1.44498,-2.31047 1.85781,-3.6002c0.41294,-1.28969 1.0159,-2.50865 1.3399,-2.70894c0.32399,-0.20033 1.60464,-1.96948 2.84593,-3.93147c1.24119,-1.9621 2.8776,-4.27345 3.63654,-5.13647c1.68401,-1.91498 6.01723,-9.05232 6.01723,-9.91115c0,-0.59311 6.56653,-10.67676 8.28161,-12.71732c2.34355,-2.78886 6.99081,-5.09636 12.90298,-6.40637c4.71599,-1.04489 8.05851,-2.35104 14.59018,-5.70062c4.66021,-2.38977 9.17998,-4.96558 10.0425,-5.72401c2.69913,-2.37184 18.21657,-7.99716 28.55786,-10.35217c3.10649,-0.70764 6.63724,-1.55742 7.84537,-1.88858c3.59749,-0.98611 18.11595,-2.52034 23.84984,-2.52034c10.35924,0.00009 23.84985,4.77992 23.84985,8.45023c0,2.83199 -1.35753,3.16763 -8.36427,2.06717c-6.16615,-0.96829 -13.30737,-0.82149 -21.99831,0.45229c-5.21001,0.76372 -14.92979,4.76239 -16.66881,6.85753c-0.45216,0.5448 -1.09956,0.99043 -1.43919,0.99043c-0.33965,0 -1.42924,0.63553 -2.42223,1.41219c-12.42191,9.71902 -13.4209,11.01491 -13.43283,17.4169c-0.00499,2.99333 0.33664,4.66458 1.28281,6.27638l1.2888,2.19673l6.93506,0.17659l6.93402,0.17659l3.18515,-2.14316c1.75195,-1.17863 4.97098,-3.21405 7.15318,-4.52286c2.18318,-1.30893 4.98987,-3.24831 6.23885,-4.30981c2.54573,-2.16438 11.53548,-7.89259 12.38605,-7.89259c0.30377,0 1.22505,-0.5197 2.04874,-1.15483c0.82271,-0.63516 2.45013,-1.48022 3.61543,-1.87793c1.1653,-0.39771 3.44112,-1.53621 5.0556,-2.5298c1.61551,-0.9937 3.62738,-2.01787 4.47098,-2.27592c0.84361,-0.25816 1.9581,-0.82608 2.47603,-1.26222c0.51791,-0.43614 1.64735,-1.00105 2.51088,-1.25534c0.86252,-0.25427 1.99297,-0.81908 2.50987,-1.25523c0.5179,-0.43614 1.64836,-1.00136 2.51088,-1.25594c0.86353,-0.25467 2.98097,-1.12 4.70702,-1.92305c8.89514,-4.138 16.72954,-6.66692 31.06874,-10.02907c9.21382,-2.16028 10.45784,-2.29813 23.53609,-2.60687c12.74463,-0.30089 14.04938,-0.23018 16.94571,0.91928c4.05661,1.60962 4.53769,3.5742 1.44513,5.89903c-2.87936,2.16386 -3.8096,2.44414 -10.23172,3.08096c-3.10648,0.30815 -7.76666,0.82965 -10.35623,1.15892c-4.96701,0.63176 -19.23744,5.05663 -22.06606,6.84183c-5.34743,3.37469 -8.8981,6.18695 -12.34125,9.7719c-3.27179,3.40715 -3.87836,4.38901 -3.87836,6.27571c0,1.63042 0.38248,2.48398 1.41231,3.14958c7.89018,5.10182 28.70728,6.74899 52.25034,4.13445c16.1001,-1.7881 19.41571,-2.22284 25.41949,-3.33376c6.92911,-1.28215 19.14383,-3.3295 25.1058,-4.20795c2.58856,-0.38156 6.40216,-1.02905 8.47281,-1.4389c2.51489,-0.4976 11.58728,-0.73831 27.30194,-0.72449l23.53711,0.02084l13.24161,2.96046c7.28262,1.62831 14.14099,2.96046 15.23953,2.96046c1.09958,0 3.03876,0.43433 4.30865,0.96518c1.27087,0.53088 5.82449,1.80504 10.12018,2.8315c10.28357,2.45778 27.80093,9.91472 32.42026,13.80164c1.36551,1.14868 8.56949,5.13101 17.55923,9.70706c8.94394,4.55244 11.91101,6.70192 14.16791,10.26582c3.65924,5.77713 1.40131,7.6416 -6.32257,5.21936c-6.62726,-2.07962 -10.8024,-3.17242 -13.80731,-3.61572c-1.55371,-0.22916 -4.37833,-0.81491 -6.27667,-1.30176c-5.47296,-1.40326 -17.45865,-2.96744 -42.99268,-5.61066c-19.0054,-1.9675 -42.75858,-2.42763 -51.46646,-0.99718c-6.12631,1.00632 -12.30438,2.56093 -13.26257,3.33711c-0.39038,0.31635 -2.22601,0.98145 -4.07953,1.47797c-1.85352,0.49661 -4.7598,1.61966 -6.45798,2.49564c-1.69812,0.87604 -3.46301,1.59317 -3.92218,1.59317c-0.45914,0 -0.8356,0.27188 -0.8356,0.60455c0,0.33267 -1.01892,1.29776 -2.26489,2.14435c-3.4003,2.3107 -9.26862,8.08145 -10.89609,10.71481c-3.1214,5.05063 -0.90933,13.47766 4.88037,18.59305c6.59937,5.83047 13.22964,9.39407 23.08093,12.40594c4.98489,1.52386 8.22781,2.0408 16.2684,2.59357c12.47568,0.85754 28.99908,2.40631 33.57761,3.14728c1.89935,0.30679 5.99484,0.87152 9.10129,1.25296c3.10651,0.38147 7.06058,1.08765 8.78662,1.5687c8.32938,2.31964 16.01837,4.85837 16.35205,5.3992c0.20514,0.33069 2.11646,1.48105 4.24887,2.55771c7.5386,3.80365 15.60507,13.80734 21.76123,26.98717c1.61551,3.46005 1.91928,4.81262 1.76288,7.8454c-0.18124,3.48395 -0.27585,3.67517 -1.92917,3.86542c-1.78085,0.20416 -3.75488,-1.06769 -9.87222,-6.36237c-1.55371,-1.3446 -4.94305,-3.50986 -7.53162,-4.81058c-15.90491,-7.99477 -31.21716,-10.80943 -51.56909,-9.47878c-5.63925,0.3685 -15.33716,0.96707 -21.55112,1.3316c-10.76956,0.63046 -16.56119,1.25397 -20.71152,2.23001c-2.66324,0.62646 -11.80038,7.39619 -14.64291,10.84926c-3.14035,3.8136 -4.1174,6.37531 -3.68515,9.66101c0.28189,2.13644 0.88144,3.11646 3.06262,5.00784l2.71307,2.35251l7.63821,0.00101c9.19293,0.00198 16.35605,-1.53781 30.64743,-6.5914c12.62509,-4.46399 13.60416,-4.69611 19.7713,-4.70105c5.03867,-0.00299 19.37289,2.4093 21.8559,3.67813c0.57864,0.29587 2.0975,0.69821 3.37439,0.89438c1.27783,0.19626 3.62238,1.11853 5.21097,2.04877c2.76782,1.6225 2.87939,1.79877 2.69812,4.28073l-0.18921,2.5896l-7.53165,0.07568c-7.9231,0.08066 -7.77365,0.0488 -25.10577,5.38828c-3.45209,1.06268 -7.97089,2.72 -10.04251,3.68109c-2.07068,0.96118 -6.02472,2.77982 -8.78659,4.04074c-2.76184,1.26193 -6.04462,2.81168 -7.29559,3.44614c-3.72198,1.88641 -14.5155,4.99182 -19.57806,5.63428c-2.5965,0.32867 -5.94302,0.87946 -7.43799,1.22308c-1.49594,0.34357 -8.79156,1.21411 -16.21262,1.9342c-7.42209,0.72006 -17.02536,2.0318 -21.33997,2.91422c-4.31461,0.88345 -9.18597,1.84158 -10.82538,2.12946c-1.6384,0.28879 -3.23795,0.68423 -3.55267,0.87842c-0.3157,0.19522 -6.31848,0.92126 -13.3392,1.6145c-17.06317,1.6832 -21.98636,2.64133 -27.85373,5.41916c-1.80475,0.85455 -3.92516,2.23892 -4.71297,3.0766c-1.41331,1.50491 -1.41629,1.53973 -0.2291,2.85449c0.66032,0.73108 2.75493,2.10751 4.65324,3.0567c8.0097,4.00781 15.70966,5.35834 30.44028,5.34039c11.31039,-0.01392 14.14993,-0.3924 23.53708,-3.13629c3.44016,-1.00595 13.60217,-2.74792 23.84985,-4.08954c2.93417,-0.38446 7.73584,-1.09256 10.66998,-1.57565c10.34128,-1.70016 27.03299,-2.97299 33.32065,-2.53976c6.4241,0.44226 16.10007,2.72504 20.45853,4.82657c3.36838,1.62344 7.10138,5.72391 7.10138,7.80051c0,2.20813 -1.98599,2.80768 -9.29852,2.80573c-3.34351,-0.00104 -9.04453,0.27386 -12.66895,0.61053c-27.45132,2.55267 -34.97495,3.38135 -40.48273,4.45901c-8.56848,1.67722 -17.56421,3.64633 -21.33902,4.67215c-1.72604,0.46912 -4.26877,1.05573 -5.6492,1.30377c-1.38043,0.24796 -3.41922,0.82965 -4.52975,1.29376c-1.11151,0.46317 -2.63138,0.84259 -3.37735,0.84259c-1.8107,0 -22.82001,9.93799 -26.69339,12.62708c-4.1622,2.88934 -3.8465,2.71307 -15.40189,8.59933c-5.63828,2.87241 -10.81543,5.71396 -11.50562,6.31552c-0.69025,0.60062 -3.65627,2.46014 -6.59042,4.13135c-2.93417,1.6713 -7.55952,4.7608 -10.27757,6.8653c-8.87523,6.87137 -11.84921,8.1004 -25.81192,10.67004c-4.83252,0.88937 -11.1869,2.07367 -14.12108,2.63141c-5.34644,1.01489 -15.7724,1.56268 -21.65369,1.13739l0,0z" fill="black"/>
    <path id="path2162" d="m199.32361,400.41583c28.40349,-5.34747 26.84378,-4.82657 36.17117,-12.05438c2.71603,-2.10452 7.33942,-5.19409 10.27357,-6.8653c2.93417,-1.67133 5.90022,-3.52679 6.59042,-4.12344c0.69022,-0.59659 5.79964,-3.35446 11.35323,-6.12924c5.55359,-2.77383 10.45984,-5.47992 10.90305,-6.01379c0.44321,-0.53381 1.07367,-0.9711 1.40036,-0.9711c0.32666,0 1.83661,-0.85452 3.35547,-1.89932c3.35947,-2.31171 18.30319,-9.46582 24.76715,-11.85818c4.73587,-1.75189 7.44397,-2.55368 13.80832,-4.08853c1.89832,-0.45715 4.72296,-1.1424 6.27667,-1.52084c15.5563,-3.79471 25.98523,-5.59048 40.48276,-6.9689c24.94345,-2.37244 26.95038,-2.53876 30.75403,-2.54776l3.76581,-0.00894l-1.88339,-1.19818c-2.75391,-1.75195 -11.08929,-3.69507 -17.90482,-4.17511c-6.18106,-0.43427 -22.93851,0.84753 -33.24695,2.54175c-2.93414,0.483 -7.73581,1.19513 -10.66998,1.58362c-12.62708,1.67023 -20.94058,3.23889 -28.87158,5.44901c-5.43408,1.51392 -7.01971,1.66629 -17.88785,1.72208c-12.85321,0.06573 -17.8909,-0.5528 -26.36072,-3.23297c-6.33749,-2.00696 -11.47375,-4.57056 -13.49362,-6.7359c-2.34454,-2.51483 -2.23003,-7.0864 0.24301,-9.66693c2.07564,-2.16632 6.4221,-4.34753 12.30939,-6.17517c5.89819,-1.83157 10.0614,-2.50085 24.37671,-3.92316c7.02072,-0.69717 13.0235,-1.42728 13.3392,-1.62244c0.31573,-0.19522 1.91428,-0.59064 3.55267,-0.87848c1.6394,-0.28882 6.51077,-1.24695 10.82538,-2.12939c4.31461,-0.88245 13.91788,-2.19415 21.33997,-2.91431c7.42105,-0.72006 14.71667,-1.59058 16.21262,-1.93417c1.49496,-0.3436 4.82053,-0.89142 7.38922,-1.21713c4.87036,-0.61746 12.61108,-2.70508 15.31125,-4.12933c0.86349,-0.45514 4.11142,-1.99295 7.2179,-3.41718c3.10648,-1.42526 7.34338,-3.37936 9.41504,-4.34451c2.07065,-0.96414 4.89526,-2.10449 6.2757,-2.53378c1.38043,-0.42926 3.42715,-1.16528 4.54666,-1.63541c1.12048,-0.47006 4.79169,-1.55273 8.15912,-2.40729c3.36841,-0.85355 7.35931,-1.98898 8.87021,-2.52182c1.50992,-0.53384 3.48697,-0.97809 4.39328,-0.98901c2.9053,-0.03384 0.18228,-0.99698 -6.82648,-2.41431c-7.16809,-1.45013 -15.77936,-1.72897 -19.77029,-0.64136c-1.3804,0.37643 -6.7468,2.18317 -11.9249,4.01581c-5.17813,1.8316 -12.57928,4.08551 -16.44669,5.00882c-6.21991,1.48395 -8.03857,1.65427 -15.73257,1.47302l-8.69992,-0.20517l-3.12341,-2.61646c-2.45609,-2.05768 -3.35144,-3.34253 -4.1951,-6.0177c-1.38538,-4.39529 -1.35254,-5.51483 0.29681,-10.13019c1.79776,-5.02673 4.98889,-8.79752 11.33331,-13.38802c8.50769,-6.15619 8.64914,-6.18408 41.90207,-8.30057c5.35043,-0.34061 12.41193,-0.79379 15.69073,-1.00693c19.34299,-1.2579 46.53336,6.04263 57.95532,15.56129l3.03775,2.53177l-1.39639,-2.75186c-6.09042,-12.00761 -13.47266,-20.7683 -20.48041,-24.30406c-2.13239,-1.07666 -4.03174,-2.2081 -4.22195,-2.51483c-0.31973,-0.51794 -5.03568,-2.08362 -12.61313,-4.18912c-1.72604,-0.48007 -5.68011,-1.18427 -8.78662,-1.56668c-3.10645,-0.38147 -7.20193,-0.94522 -9.10028,-1.25296c-4.57852,-0.741 -21.05014,-2.28778 -33.81168,-3.17517c-10.22577,-0.71216 -13.91589,-1.45517 -22.37079,-4.50885c-9.47281,-3.4202 -15.91882,-7.24478 -21.36887,-12.67889c-2.50488,-2.49692 -3.56064,-4.22293 -4.99887,-8.16904c-2.34155,-6.42709 -2.3475,-10.30743 -0.02289,-15.0593c1.73203,-3.53973 7.44302,-9.62518 11.83231,-12.60736c1.27985,-0.87 2.32764,-1.85425 2.32764,-2.18698c0,-0.33276 0.35452,-0.60495 0.78683,-0.60495c0.43323,0 2.76282,-0.95035 5.1781,-2.112c5.79364,-2.78607 19.36389,-6.96851 26.04498,-8.02663c9.14014,-1.44786 32.6394,-1.00447 51.78021,0.97694c14.64792,1.51637 23.87872,2.57343 33.26389,3.80934c3.42621,0.45099 12.09525,2.21947 20.26431,4.13365c2.86142,0.67029 5.50778,1.21869 5.88327,1.21869c1.77682,0 -1.59659,-2.31351 -7.92007,-5.4306c-8.28757,-4.08475 -16.08215,-8.34396 -17.58508,-9.60817c-1.83362,-1.54329 -10.30249,-5.90462 -18.23648,-9.39273c-3.40826,-1.49817 -20.39279,-6.01245 -26.02606,-6.91751c-1.89835,-0.30507 -8.81845,-1.76788 -15.37701,-3.25069l-11.9249,-2.69604l-23.53711,-0.02429c-15.72858,-0.01624 -24.78506,0.2229 -27.30194,0.72089c-2.07065,0.40984 -5.88425,1.05734 -8.47281,1.4389c-5.96198,0.87845 -18.1767,2.9258 -25.1058,4.20784c-12.31531,2.2789 -35.37936,4.5882 -45.84119,4.59007c-15.2455,0.00272 -29.41837,-2.49591 -35.05264,-6.17967c-3.15828,-2.06517 -4.10344,-7.82027 -2.02582,-12.33398c1.28081,-2.78386 7.73779,-9.24561 11.78745,-11.79633c1.43822,-0.90584 2.77782,-1.91098 2.97702,-2.23369c0.3745,-0.60635 9.13713,-4.10675 15.74751,-6.29114c5.11339,-1.68959 13.61409,-3.15886 23.53709,-4.0683c1.20816,-0.11066 -0.48706,-0.23753 -3.76685,-0.28175c-16.35703,-0.22063 -38.61528,4.22404 -53.12677,10.60922c-3.84848,1.69305 -7.4111,3.07838 -7.91806,3.07838c-0.50696,0 -1.59457,0.50905 -2.41826,1.13124c-0.82269,0.62218 -5.45103,3.0464 -10.28354,5.38728c-4.8325,2.34087 -9.21088,4.52026 -9.72876,4.84306c-0.51793,0.32289 -1.67027,0.93483 -2.56068,1.35982c-3.01984,1.4408 -10.79848,6.41187 -13.06831,8.35143c-1.242,1.06152 -4.0945,3.02023 -6.33745,4.35274c-2.24396,1.33243 -4.92712,3.0542 -5.96297,3.8261c-3.95503,2.94751 -8.03261,4.013 -15.35907,4.013c-3.76283,0 -7.5645,-0.27538 -8.44994,-0.61203c-2.09454,-0.79648 -3.76781,-3.61812 -5.1313,-8.65718c-1.29179,-4.77077 -0.71613,-8.94055 1.96806,-14.25523c1.51389,-2.99811 2.34157,-3.77826 12.16794,-11.46626c0.99298,-0.77678 2.08261,-1.41222 2.42224,-1.41222c0.33961,0 1.00493,-0.46759 1.47803,-1.0392c1.05774,-1.27597 10.41302,-5.86476 11.9568,-5.86476c0.61452,0 2.23001,-0.4447 3.58853,-0.98811c1.35751,-0.5435 4.39926,-1.21249 6.75975,-1.4866c3.0457,-0.35396 3.56163,-0.5208 1.77882,-0.57527c-3.15727,-0.09662 -18.09106,1.63919 -21.02524,2.44394c-1.20813,0.33138 -5.16219,1.29388 -8.78658,2.13907c-10.12915,2.36168 -21.40768,6.57599 -24.03309,8.98001c-0.76292,0.69867 -5.05861,3.16801 -9.54551,5.48756c-4.48791,2.31964 -8.86626,4.5862 -9.72879,5.03699c-0.86252,0.45068 -3.67916,1.13654 -6.25875,1.52408c-4.76778,0.7164 -8.84335,2.58983 -11.39606,5.23796c-1.72604,1.79108 -8.7059,12.31586 -8.7059,13.12767c0,0.85884 -4.33322,7.99625 -6.01723,9.91124c-0.75884,0.86302 -2.39534,3.17439 -3.63654,5.13646c-1.24119,1.96201 -2.52183,3.73119 -2.84592,3.93147c-0.324,0.2002 -0.92687,1.4193 -1.33981,2.709c-0.41294,1.28967 -1.24897,2.90973 -1.85791,3.60016c-0.60894,0.69043 -1.69776,2.4324 -2.41974,3.8717c-1.77396,3.53476 -4.85702,8.13022 -7.57167,11.28546c-1.23253,1.43225 -4.07686,4.93112 -6.32062,7.77567c-2.24385,2.84357 -6.33914,7.75076 -9.1007,10.90308c-15.37292,17.55322 -16.67507,19.4187 -18.83705,26.98517c-0.78095,2.733 -0.94539,4.76581 -0.62667,7.7428c0.38913,3.63333 0.72458,4.37036 3.35786,7.37527c2.13101,2.43216 3.94818,3.76181 6.69122,4.89624c3.03386,1.25494 3.80317,1.86349 3.95794,3.12939c0.16245,1.32962 -0.56293,2.1055 -4.70732,5.03764c-8.8772,6.2807 -12.13487,11.00565 -13.38434,19.4118c-0.87726,5.90118 -0.49092,30.89838 0.61851,40.02161c0.31483,2.58954 0.85147,7.10834 1.19259,10.04248c0.85475,7.35138 4.20485,22.03717 6.18546,27.11469c2.62621,6.73383 4.46699,8.17206 14.51418,11.34125l8.56925,2.70313l0,2.48596c0,2.2868 -0.17579,2.54276 -2.19674,3.19815l-2.19674,0.71109l3.13815,0.2749c1.72604,0.15042 5.82133,0.73004 9.1008,1.28683c16.42796,2.79172 21.2057,2.99991 26.03474,1.13043c1.73261,-0.67032 7.24589,-1.98401 12.2507,-2.92026c8.18401,-1.52881 9.52859,-1.62741 13.34917,-0.97705c5.78667,0.98505 19.64281,0.88846 30.27193,-0.21213c12.44585,-1.28885 14.54735,-1.24295 15.39395,0.34067c1.28781,2.40527 0.5199,3.87735 -2.52782,4.84445c-5.8972,1.87042 -15.4009,5.37228 -15.9726,5.88525c-0.3496,0.31372 -0.02091,0.53488 0.79279,0.53488c0.76494,0 3.80666,0.97406 6.75875,2.16522c4.15128,1.67328 6.27272,3.00986 9.35529,5.89426c3.34253,3.1254 4.78271,3.98587 8.90112,5.31357c2.70309,0.87149 7.31551,1.90234 10.24966,2.28973c2.93417,0.38849 6.88823,0.98004 8.78659,1.3147c7.92703,1.3974 20.62283,1.27591 28.87157,-0.27686l0,0z" class="color"/>
    <path id="path2160" d="m83.83825,349.37561c-3.97,-1.19815 -11.17196,-3.74091 -16.00478,-5.65021c-4.83282,-1.91028 -11.04636,-4.26779 -13.80803,-5.24084c-10.47905,-3.69012 -25.222,-9.75769 -27.93317,-11.49664c-4.21371,-2.70313 -8.34854,-8.11829 -10.2689,-13.44882c-1.83351,-5.08844 -1.97195,-6.72885 -0.96491,-11.42392c0.51831,-2.41724 1.04319,-3.34253 2.12931,-3.75583c2.64145,-1.004 4.13593,-0.04886 5.78608,3.69907c1.87842,4.26682 7.47446,12.63702 9.43914,14.11908c1.35374,1.02087 1.44856,1.01892 1.83749,-0.05579c0.22559,-0.62247 1.05445,-2.61545 1.84187,-4.42813c1.24269,-2.85944 1.66409,-3.29272 3.19223,-3.28079c0.9683,0.00797 2.96086,0.55878 4.42795,1.22406c3.21932,1.46216 3.36433,2.53079 1.14369,8.43002l-1.52376,4.04868l1.93121,0.67328c1.06222,0.37051 1.98749,0.67328 2.0561,0.67328c0.18217,0 1.90971,-4.24387 3.1294,-7.68796c1.22844,-3.46909 2.24444,-3.728 6.86243,-1.74899c3.51632,1.50793 3.63723,2.49197 0.993,8.08142c-1.03534,2.1882 -1.88242,4.17914 -1.88242,4.42413c0,0.39941 3.61453,1.95215 4.54507,1.95215c0.20696,0 0.56761,-0.9173 0.80147,-2.03979c0.23376,-1.12146 1.15564,-3.69409 2.04854,-5.7149l1.62345,-3.67618l2.41866,0.3237c3.27131,0.43921 5.50899,1.99789 5.50899,3.8385c0,0.81873 -1.07516,3.62836 -2.38917,6.2428l-2.38927,4.75385l1.85522,0.64639c2.7035,0.94321 2.81037,0.88644 3.55406,-1.87543c1.13174,-4.20309 2.95161,-7.94296 4.07507,-8.3732c0.58365,-0.22412 2.30571,0.1424 3.82658,0.8157c3.06065,1.35349 3.30069,2.11646 1.91328,6.07846c-0.46911,1.33759 -1.04877,3.75787 -1.2888,5.3783l-0.43624,2.94617l2.59254,0.77686c3.03378,0.9093 3.0527,0.89038 4.69308,-4.37936c2.25391,-7.24576 2.58258,-7.47784 7.2408,-5.10141c2.75887,1.40729 3.00489,2.34549 1.59756,6.09442c-0.48803,1.30176 -1.05774,3.14331 -1.26689,4.09244l-0.37946,1.72607l4.24886,-0.00098c5.1851,-0.00101 13.89299,-1.47104 16.29132,-2.75089c0.97107,-0.51794 5.15422,-4.36145 9.29652,-8.54163c5.51078,-5.56152 8.71088,-8.24774 11.9249,-10.00958c4.27078,-2.34058 5.01678,-2.6384 8.61627,-3.43912l1.71111,-0.38049l-1.22307,-2.34558c-1.60355,-3.07755 -1.08762,-4.85239 1.73997,-5.97983c3.30966,-1.32074 4.45703,-0.71814 6.38129,3.34949l1.70711,3.61142l2.30171,-1.3157c1.26689,-0.72308 2.30272,-1.51886 2.30272,-1.76788c0,-0.24799 -0.56473,-1.76981 -1.25594,-3.38034c-1.77583,-4.14426 -1.6384,-5.7319 0.59659,-6.88824c3.98494,-2.05966 5.88826,-0.99496 7.5416,4.22098c0.78882,2.48703 1.86748,2.96909 3.15927,1.41232c0.43027,-0.51791 1.15135,-0.94223 1.60254,-0.94223c0.59859,0 0.41832,-0.98999 -0.67131,-3.67017c-1.73201,-4.26282 -1.48799,-6.05167 1.00098,-7.33844c3.51483,-1.81766 4.82356,-1.2868 6.5705,2.66125c0.86951,1.96808 1.6673,3.66425 1.77286,3.76886c0.14841,0.14838 3.87538,-1.4631 4.62933,-2.00098c0.08566,-0.06171 -0.30278,-1.4541 -0.86151,-3.09454c-1.242,-3.64526 -0.53387,-5.7926 2.09753,-6.35532c10.01762,-2.14041 17.22755,-5.77774 23.80602,-12.00961c2.3047,-2.1832 4.35742,-3.97992 4.56061,-3.99091c0.20219,-0.01196 2.33659,-2.26987 4.74089,-5.01776c4.66818,-5.33447 6.6711,-6.3504 10.18694,-5.16415c1.73203,0.58459 1.7589,0.67029 1.74097,5.57944c-0.01593,4.38034 -0.27788,5.51682 -2.15829,9.35535c-1.85452,3.78571 -3.92018,6.14819 -15.48355,17.70563c-11.53947,11.53448 -13.60316,13.33719 -15.2585,13.33719c-1.05376,0 -1.91528,-0.25995 -1.91528,-0.57864c0,-0.31873 -0.71112,-1.42627 -1.58162,-2.46011l-1.58162,-1.87943l-2.8495,1.59256c-2.14337,1.19818 -2.74095,1.8476 -2.41029,2.61652c2.84254,6.61325 2.76385,7.41409 -0.98602,9.96677c-3.50586,2.38742 -5.06059,1.94318 -7.14319,-2.04077c-0.99101,-1.89835 -2.01588,-3.45105 -2.27684,-3.45105c-0.75992,0 -5.25977,1.95309 -6.1263,2.65927c-0.61848,0.50394 -0.30974,1.50888 1.41231,4.58749c2.94115,5.2608 2.86147,6.17212 -0.743,8.45789c-4.45503,2.82565 -5.85541,2.56168 -7.90611,-1.48798c-0.93423,-1.8476 -1.70413,-3.75391 -1.70912,-4.23694c-0.0249,-2.21906 -0.95215,-2.52979 -3.80765,-1.27783c-5.26675,2.30966 -5.22992,2.21509 -3.08954,7.93103c1.03482,2.76184 1.88141,5.52869 1.88341,6.15015c0.00198,1.29681 -4.38832,3.54279 -6.9689,3.56464c-1.43523,0.01199 -1.95114,-0.6394 -4.21899,-5.32153c-1.42128,-2.93414 -2.6981,-5.3345 -2.83856,-5.3345c-0.14041,0 -1.87642,0.9761 -3.85744,2.16824c-1.98102,1.19327 -3.86542,2.25793 -4.18811,2.3645c-0.32172,0.1076 0.15536,1.81271 1.05974,3.78967c2.3007,5.02576 1.99594,6.18909 -1.89438,7.22592c-1.72603,0.46011 -5.6801,1.55472 -8.78657,2.43222c-13.58225,3.83752 -18.33109,4.61835 -27.60471,4.5387c-8.12025,-0.0697 -9.35528,-0.24405 -16.01642,-2.25494l0,0z" fill="black"/>
    <path id="path2158" d="m115.23167,345.17853c5.27174,-1.20709 16.46661,-4.23886 18.24046,-4.94003c0.2012,-0.0787 -0.38046,-1.78683 -1.29279,-3.79575l-1.65732,-3.65228l-4.29169,4.40723c-3.6692,3.76685 -4.93809,4.63434 -8.74972,5.9809c-2.45111,0.86554 -6.64819,1.90732 -9.3254,2.31372c-5.27673,0.80072 -15.66784,0.47806 -16.9397,-0.52692c-0.43327,-0.34161 -2.41228,-0.77988 -4.39827,-0.97504c-3.78873,-0.37054 -10.51062,-3.04077 -10.51062,-4.1752c0,-0.36349 -1.00396,-0.66232 -2.2317,-0.66232c-2.61237,0 -10.94876,-3.69608 -10.94876,-4.85443c0,-0.43719 -0.59101,-0.79376 -1.3134,-0.79376c-1.6376,0 -10.52597,-3.11945 -10.97953,-3.85352c-0.18356,-0.29681 -1.55354,-0.53983 -3.04433,-0.53983c-1.52884,0 -3.02142,-0.37543 -3.4239,-0.85953c-0.39231,-0.47308 -1.95053,-1.33258 -3.46254,-1.91031c-1.54846,-0.59058 -2.88099,-1.55368 -3.0509,-2.20309c-0.16603,-0.63446 0.48056,-3.16422 1.4368,-5.62234c0.95624,-2.45804 1.52028,-4.46793 1.25344,-4.46793c-0.3941,0 -2.49055,5.1582 -3.50715,8.62921c-0.54242,1.85248 -4.86648,0.37146 -9.09493,-3.11447c-1.05863,-0.87247 -5.8789,-7.71591 -7.62337,-10.82336c-0.84977,-1.51389 -1.07028,-1.64938 -1.0633,-0.65436c0.02878,4.1214 5.74075,12.02054 11.2361,15.53836c1.89854,1.21609 5.99393,3.12238 9.1007,4.2359c3.10678,1.11453 7.62575,2.81665 10.04221,3.78278c15.1297,6.05157 27.93845,10.80939 34.20618,12.70673c6.66811,2.01886 7.8872,2.19019 16.01642,2.25989c7.22986,0.06277 9.9708,-0.1922 15.377,-1.43024l0,0z" fill="white"/>
    <path id="path2156" d="m151.35103,328.56653c-1.72902,-3.41223 -2.09853,-6.65521 -0.82664,-7.2478c0.43126,-0.20117 -0.62747,-0.19815 -2.35352,0.00699c-3.53674,0.42032 -9.90508,3.69809 -12.27254,6.31552l-1.5358,1.69818l2.51088,-1.47308c4.6393,-2.72101 8.4559,-4.40424 9.98972,-4.40424c1.27486,0 1.85355,0.71811 3.5517,4.40131c1.11549,2.4212 2.14534,4.2847 2.28876,4.14227c0.14243,-0.14246 -0.46613,-1.69019 -1.35255,-3.43915l0,0z" fill="white"/>
    <path id="path2154" d="m169.58452,322.41931c-0.53087,-0.98004 -0.97606,-1.58264 -0.99001,-1.34061c-0.04283,0.746 1.41728,3.66022 1.69516,3.38336c0.14345,-0.1434 -0.17427,-1.06271 -0.70515,-2.04276l0,0z" fill="black"/>
    <path id="path2152" d="m167.38638,316.69443c-0.36055,-0.67432 -0.46312,-1.41934 -0.22609,-1.65634c0.23605,-0.23608 -0.0488,-0.24603 -0.63345,-0.02094c-0.99599,0.38147 -0.99498,0.49799 0.01894,1.85452c1.26888,1.69617 1.78581,1.58762 0.84061,-0.17725l0,0z" fill="white"/>
    <path id="path2150" d="m185.59314,312.625c-0.61987,-0.61523 -0.69193,-0.54312 -0.35132,0.35138c0.23567,0.61899 0.58661,0.96729 0.77986,0.77408c0.19325,-0.19327 0.00041,-0.69968 -0.42854,-1.12546z" fill="black"/>
    <path id="path2148" d="m213.12,290.98108c11.78149,-11.9299 14.10315,-15.0274 14.86606,-19.83405l0.41333,-2.60254l-3.39729,3.69116c-1.86847,2.03082 -3.6234,4.07855 -3.89929,4.55063c-0.27687,0.47208 -0.72507,0.85858 -0.99696,0.85858c-0.2729,0 -2.38141,1.78677 -4.68611,3.96997c-5.46298,5.17508 -10.57137,8.13821 -18.29326,10.61319c-3.45209,1.10553 -6.37729,2.07263 -6.49979,2.14832c-0.1225,0.07574 0.26793,1.42429 0.86751,2.99493c1.0667,2.79175 1.14339,2.84857 3.36143,2.49496c1.89438,-0.30182 2.52383,-0.09262 3.79271,1.26089c0.83664,0.8924 1.81967,1.62347 2.18521,1.62347c0.36452,0 5.89421,-5.29663 12.28645,-11.76953l0,0z" fill="white"/>
    <path id="path2146" d="m95.02216,283.21243c-3.77478,-1.66635 -4.40623,-3.2529 -5.83448,-14.66794c-0.60456,-4.8335 -1.31071,-9.49365 -1.57066,-10.35617l-0.47111,-1.56973l-1.18323,2.0946c-1.30872,2.31866 -8.57741,13.4328 -11.35382,17.36298c-4.91708,6.95892 -16.79448,7.03461 -18.09254,0.1145c-0.5698,-3.03674 1.21579,-7.01169 3.67737,-8.18597c3.0988,-1.47903 6.19701,-5.15817 10.38135,-12.32729c4.63998,-7.94894 7.68372,-11.28052 12.68156,-13.88205c4.30664,-2.24191 7.78362,-2.29175 12.13806,-0.17728c3.88633,1.8884 4.5656,3.38434 6.946,15.31429c2.84154,14.23956 2.72601,13.80829 3.6931,13.80829c2.63438,0 3.61344,4.5686 2.07265,9.67401c-0.58863,1.95111 -1.19221,2.61938 -2.93318,3.24786c-3.24094,1.16934 -6.84042,1.00995 -10.15107,-0.4501l0,0z" fill="black"/>
    <path id="path2144" d="m103.5418,278.53525c0.73802,-1.92526 0.36452,-3.20709 -1.13343,-3.88931c-1.82564,-0.83167 -1.63641,-0.21118 -4.44408,-14.57523c-2.08658,-10.67796 -2.41824,-11.74965 -4.12835,-13.3372c-2.24395,-2.08365 -4.67814,-2.22406 -8.11927,-0.46814c-3.67419,1.87442 -7.08443,5.82452 -11.37414,13.17784c-4.04499,6.93304 -8.55062,12.22073 -10.92136,12.81534c-1.70921,0.42929 -2.46316,2.08954 -1.48421,3.2688c0.39342,0.47412 1.69756,0.86255 2.89802,0.86255c1.65173,0 2.66346,-0.50397 4.15963,-2.07269c2.48866,-2.60742 6.08198,-7.71588 10.20237,-14.5025c4.82453,-7.94493 5.59943,-8.78157 8.13918,-8.78157c4.28771,0 4.6622,0.95514 6.86233,17.51137c0.55078,4.14233 1.13343,7.98483 1.29678,8.53964c0.65635,2.23892 7.28563,3.43411 8.04655,1.45111l0,0z" fill="white"/>
    <path id="path2142" d="m146.82626,255.4493c-6.67207,-3.67413 -7.04059,-3.98486 -8.04057,-6.7637c-1.11848,-3.11044 -1.39835,-6.99078 -0.66928,-9.28656c1.44617,-4.55762 11.6042,-16.82117 24.57689,-29.67236c9.88118,-9.78854 17.28334,-15.93475 22.81503,-18.94461c3.65526,-1.98999 11.94482,-3.728 15.95964,-3.3465c3.60646,0.34262 4.75981,1.51987 4.75981,4.86136c0,2.8067 -1.11949,3.85349 -7.67009,7.16812c-11.37712,5.75879 -15.15388,12.60016 -20.27922,36.72992c-3.18616,15.00351 -5.91814,19.47147 -13.37309,21.87279c-7.12328,2.29477 -9.88513,1.89438 -18.07912,-2.61845l0,0z" fill="black"/>
    <path id="path2140" d="m163.30484,253.5898c1.07367,-0.40536 2.97202,-1.63837 4.21799,-2.74097c2.69514,-2.38531 4.09949,-6.15912 6.28966,-16.89685c4.97893,-24.42151 9.50865,-32.51089 21.63177,-38.62823c5.88725,-2.97198 5.6552,-3.69308 -0.7699,-2.39337c-7.05556,1.42728 -14.00652,6.49283 -28.21523,20.56512c-10.54947,10.44788 -16.67577,17.39282 -21.03719,23.84982c-2.85449,4.22498 -3.04472,4.89029 -2.37344,8.28955c0.39742,2.00888 0.95815,2.47702 6.54462,5.47095c6.52072,3.49295 9.57141,4.04572 13.71172,2.48398l0,0z" fill="white"/>
    <path id="path2138" d="m41.1151,244.31023c-1.83142,-0.51395 -2.54763,-1.23602 -3.92268,-3.95105c-2.10203,-4.15131 -2.1082,-6.50079 -0.03556,-13.70575c2.90768,-10.10626 8.4327,-19.75238 17.17605,-29.98611c5.30063,-6.20496 10.96508,-13.80634 12.43326,-16.6857c0.7226,-1.41727 1.51202,-4.07159 1.75443,-5.89923c0.53445,-4.02835 1.95881,-5.64633 4.97076,-5.64633c3.45766,0 4.69468,2.56577 4.68969,9.72791c-0.00299,6.37131 -1.69815,12.03745 -7.16033,23.93549c-2.72701,5.94003 -2.92649,6.72986 -3.01464,11.9249c-0.05199,3.06067 0.13744,8.39612 0.42081,11.85818c0.4696,5.73688 0.39899,6.52274 -0.79609,8.86523c-1.77345,3.47604 -4.13643,5.32758 -9.95398,7.79758c-5.34913,2.27185 -12.16693,2.99792 -16.56172,1.76489l0,0z" fill="black" />
    <path id="path2134" d="m55.95497,237.87617c2.42263,-1.16132 5.20581,-3.06363 6.18516,-4.22696c1.78032,-2.11646 1.78053,-2.11743 1.26181,-8.08838c-0.76701,-8.83139 -0.51672,-15.8959 0.6959,-19.63483c0.58574,-1.80573 2.41546,-6.1243 4.066,-9.59531c3.5986,-7.56952 5.00961,-12.07333 4.98969,-15.92679l-0.01494,-2.86746l-1.50583,3.66226c-1.83212,4.45602 -3.38226,6.72983 -10.47955,15.36804c-11.55073,14.05927 -16.62995,22.30502 -19.33665,31.39438c-1.60473,5.38828 -1.61219,7.40219 -0.03684,9.98575c1.20663,1.97903 1.37068,2.03979 5.50719,2.03979c3.54789,0 5.00263,-0.35458 8.66805,-2.1105l0,0z" fill="white"/>
   </g>
  </g>
 </g>
</svg>