<svg width="50" height="50" xmlns="http://www.w3.org/2000/svg">
 <g>
  <title>Layer 1</title>
  <g>
   <g id="layer1">
    <g fill="#ffffff" id="g6397">
     <path d="m84.026,102.86501c-81.22,85.28699 -77.91901,220.41901 7.369,301.637c85.28699,81.22098 220.41798,77.92001 301.63802,-7.367c81.21896,-85.2869 77.91797,-220.4189 -7.36902,-301.638c-85.28799,-81.22 -220.418,-77.91899 -301.638,7.368l0,0l0,0l0,0zm7.623,21.492l132.341,126.02999l-125.99901,132.31001c-67.787,-71.67999 -70.528,-183.42401 -6.342,-258.34l0,0zm14.215,-14.928c71.69299,-67.767 183.437,-70.48399 258.34102,-6.278l-125.99902,132.30901l-132.342,-126.03101l0,0l0,0zm7.022,287.452l125.99899,-132.30798l132.343,126.02899c-71.68399,67.755 -183.436,70.45599 -258.342,6.27899l0,0l0,0l0,0zm140.215,-147.23599l126.00002,-132.31001c67.75699,71.684 70.51599,183.434 6.34198,258.34l-132.342,-126.03l0,0l0,0l0,0z" fill="#ffffff" id="path3545" stroke="#000000" stroke-miterlimit="4" stroke-width="2.93546"/>
     <path d="m112.93257,93.97636c0,2.18015 -1.76741,3.94758 -3.94759,3.94758c-2.18019,0 -3.94757,-1.76743 -3.94757,-3.94758c0,-2.18022 1.76738,-3.94759 3.94757,-3.94759c2.18018,0 3.94759,1.76736 3.94759,3.94759z" fill="#ffffff" id="path3574" stroke="#000000" stroke-miterlimit="4" stroke-width="0.84285"/>
     <path d="m80.0742,127.58321c0,2.18014 -1.76741,3.94753 -3.94757,3.94753c-2.18019,0 -3.94759,-1.76741 -3.94759,-3.94753c0,-2.18022 1.7674,-3.94757 3.94759,-3.94757c2.18018,0 3.94757,1.76735 3.94757,3.94757z" fill="#ffffff" id="path3576" stroke="#000000" stroke-miterlimit="4" stroke-width="0.84285"/>
     <path d="m405.23035,372.76117c0,2.18015 -1.7674,3.9476 -3.94754,3.9476c-2.18018,0 -3.9476,-1.76746 -3.9476,-3.9476c0,-2.18021 1.76746,-3.94757 3.9476,-3.94757c2.18015,0 3.94754,1.7674 3.94754,3.94757z" fill="#ffffff" id="path3578" stroke="#000000" stroke-miterlimit="4" stroke-width="0.84285"/>
     <path d="m372.37207,406.36801c0,2.18024 -1.76746,3.9476 -3.9476,3.9476c-2.18018,0 -3.94754,-1.76736 -3.94754,-3.9476c0,-2.18015 1.76736,-3.94754 3.94754,-3.94754c2.18015,0 3.9476,1.76743 3.9476,3.94754z" fill="#ffffff" id="path3580" stroke="#000000" stroke-miterlimit="4" stroke-width="0.84285"/>
     <path d="m111.07128,411.13065c0,-2.18021 1.76743,-3.94754 3.94758,-3.94754c2.18018,0 3.94761,1.76733 3.94761,3.94754c0,2.18024 -1.76743,3.94763 -3.94761,3.94763c-2.18015,0 -3.94758,-1.7674 -3.94758,-3.94763z" fill="#ffffff" id="path3582" stroke="#000000" stroke-miterlimit="4" stroke-width="0.84285"/>
     <path d="m77.97815,379.29968c0,-2.18024 1.76743,-3.94754 3.94757,-3.94754c2.18024,0 3.9476,1.7673 3.9476,3.94754c0,2.18021 -1.76736,3.9476 -3.9476,3.9476c-2.18015,0 -3.94757,-1.7674 -3.94757,-3.9476z" fill="#ffffff" id="path3584" stroke="#000000" stroke-miterlimit="4" stroke-width="0.84285"/>
     <path d="m390.51794,119.35532c0,-2.18019 1.76733,-3.94759 3.9476,-3.94759c2.18024,0 3.94754,1.7674 3.94754,3.94759c0,2.18018 -1.7673,3.94757 -3.94754,3.94757c-2.18027,0 -3.9476,-1.76739 -3.9476,-3.94757z" fill="#ffffff" id="path3592" stroke="#000000" stroke-miterlimit="4" stroke-width="0.84285"/>
     <path d="m356.39731,87.01068c0,-2.18021 1.76746,-3.9476 3.9476,-3.9476c2.18021,0 3.94754,1.76741 3.94754,3.9476c0,2.18016 -1.76733,3.9476 -3.94754,3.9476c-2.18015,0 -3.9476,-1.76744 -3.9476,-3.9476z" fill="#ffffff" id="path3594" stroke="#000000" stroke-miterlimit="4" stroke-width="0.84285"/>
     <path d="m50.96945,337.15945c0,-2.18024 1.7674,-3.94754 3.94759,-3.94754c2.18019,0 3.94757,1.7673 3.94757,3.94754c0,2.18021 -1.76738,3.9476 -3.94757,3.9476c-2.18019,0 -3.94759,-1.7674 -3.94759,-3.9476z" fill="#ffffff" id="path3596" stroke="#000000" stroke-miterlimit="4" stroke-width="0.84285"/>
     <path d="m46.12918,172.79668c0,-2.18022 1.7674,-3.94754 3.94757,-3.94754c2.18019,0 3.94757,1.76732 3.94757,3.94754c0,2.18016 -1.76738,3.9476 -3.94757,3.9476c-2.18018,0 -3.94757,-1.76747 -3.94757,-3.9476z" fill="#ffffff" id="path3598" stroke="#000000" stroke-miterlimit="4" stroke-width="0.84285"/>
     <path d="m34.53142,285.79047c0,-2.18021 1.7674,-3.94754 3.94757,-3.94754c2.18019,0 3.94759,1.76733 3.94759,3.94754c0,2.18024 -1.7674,3.94754 -3.94759,3.94754c-2.18018,0 -3.94757,-1.7673 -3.94757,-3.94754z" fill="#ffffff" id="path3600" stroke="#000000" stroke-miterlimit="4" stroke-width="0.84285"/>
     <path d="m32.77327,224.67917c0,-2.18022 1.7674,-3.9476 3.94757,-3.9476c2.18019,0 3.94759,1.76738 3.94759,3.9476c0,2.18016 -1.7674,3.94754 -3.94759,3.94754c-2.18018,0 -3.94757,-1.76738 -3.94757,-3.94754z" fill="#ffffff" id="path3602" stroke="#000000" stroke-miterlimit="4" stroke-width="0.84285"/>
     <path d="m150.10681,62.87202c2.18019,0 3.94762,1.7674 3.94762,3.94757c0,2.18018 -1.76743,3.94759 -3.94762,3.94759c-2.18018,0 -3.94757,-1.76741 -3.94757,-3.94759c0,-2.18018 1.7674,-3.94757 3.94757,-3.94757z" fill="#ffffff" id="path3604" stroke="#000000" stroke-miterlimit="4" stroke-width="0.84285"/>
     <path d="m314.46954,58.03175c2.18024,0 3.94757,1.7674 3.94757,3.94757c0,2.18018 -1.76733,3.94759 -3.94757,3.94759c-2.18015,0 -3.94754,-1.76741 -3.94754,-3.94759c0,-2.18018 1.7674,-3.94757 3.94754,-3.94757z" fill="#ffffff" id="path3606" stroke="#000000" stroke-miterlimit="4" stroke-width="0.84285"/>
     <path d="m201.47581,46.43404c2.18019,0 3.94757,1.76738 3.94757,3.94756c0,2.18019 -1.76738,3.94757 -3.94757,3.94757c-2.18022,0 -3.94763,-1.76736 -3.94763,-3.94757c0,-2.18018 1.76741,-3.94756 3.94763,-3.94756z" fill="#ffffff" id="path3608" stroke="#000000" stroke-miterlimit="4" stroke-width="0.84285"/>
     <path d="m262.58713,44.6758c2.18018,0 3.94757,1.7674 3.94757,3.94759c0,2.18021 -1.7674,3.94757 -3.94757,3.94757c-2.18024,0 -3.94763,-1.76736 -3.94763,-3.94757c0,-2.18019 1.7674,-3.94759 3.94763,-3.94759z" fill="#ffffff" id="path3610" stroke="#000000" stroke-miterlimit="4" stroke-width="0.84285"/>
     <path d="m425.42133,159.95441c0,2.18022 -1.7674,3.94763 -3.9476,3.94763c-2.18015,0 -3.94754,-1.76741 -3.94754,-3.94763c0,-2.18016 1.7674,-3.94754 3.94754,-3.94754c2.18021,0 3.9476,1.76741 3.9476,3.94754z" fill="#ffffff" id="path3622" stroke="#000000" stroke-miterlimit="4" stroke-width="0.84285"/>
     <path d="m431.8027,326.3718c0,2.18024 -1.76733,3.9476 -3.94754,3.9476c-2.18018,0 -3.9476,-1.76736 -3.9476,-3.9476c0,-2.18015 1.76746,-3.94754 3.9476,-3.94754c2.18021,0 3.94754,1.7674 3.94754,3.94754z" fill="#ffffff" id="path3624" stroke="#000000" stroke-miterlimit="4" stroke-width="0.84285"/>
     <path d="m441.85934,211.3233c0,2.18018 -1.76736,3.94757 -3.94757,3.94757c-2.18018,0 -3.9476,-1.76741 -3.9476,-3.94757c0,-2.18021 1.76743,-3.9476 3.9476,-3.9476c2.18021,0 3.94757,1.76741 3.94757,3.9476z" fill="#ffffff" id="path3626" stroke="#000000" stroke-miterlimit="4" stroke-width="0.84285"/>
     <path d="m443.61752,272.43463c0,2.18021 -1.76733,3.9476 -3.94754,3.9476c-2.18021,0 -3.9476,-1.7674 -3.9476,-3.9476c0,-2.18021 1.7674,-3.94754 3.9476,-3.94754c2.18021,0 3.94754,1.76733 3.94754,3.94754z" fill="#ffffff" id="path3628" stroke="#000000" stroke-miterlimit="4" stroke-width="0.84285"/>
     <path d="m325.25702,437.32401c-2.18018,0 -3.94757,-1.7674 -3.94757,-3.94754c0,-2.18024 1.7674,-3.94754 3.94757,-3.94754c2.18021,0 3.94757,1.7673 3.94757,3.94754c0,2.18015 -1.76736,3.94754 -3.94757,3.94754z" fill="#ffffff" id="path3640" stroke="#000000" stroke-miterlimit="4" stroke-width="0.84285"/>
     <path d="m160.89432,441.13696c-2.18019,0 -3.94757,-1.7674 -3.94757,-3.9476c0,-2.18015 1.76738,-3.94754 3.94757,-3.94754c2.18019,0 3.94757,1.7674 3.94757,3.94754c0,2.18021 -1.7674,3.9476 -3.94757,3.9476z" fill="#ffffff" id="path3642" stroke="#000000" stroke-miterlimit="4" stroke-width="0.84285"/>
     <path d="m273.88803,452.73477c-2.18018,0 -3.94757,-1.76733 -3.94757,-3.94751c0,-2.18015 1.7674,-3.9476 3.94757,-3.9476c2.18021,0 3.9476,1.76749 3.9476,3.9476c0,2.18018 -1.7674,3.94751 -3.9476,3.94751z" fill="#ffffff" id="path3644" stroke="#000000" stroke-miterlimit="4" stroke-width="0.84285"/>
     <path d="m212.77673,454.49292c-2.18016,0 -3.9476,-1.76749 -3.9476,-3.94766c0,-2.18015 1.76744,-3.94754 3.9476,-3.94754c2.18022,0 3.94757,1.7674 3.94757,3.94754c0,2.18021 -1.76735,3.94766 -3.94757,3.94766z" fill="#ffffff" id="path3646" stroke="#000000" stroke-miterlimit="4" stroke-width="0.84285"/>
     <path d="m121.12777,141.46161c0,-2.18022 1.7674,-3.94763 3.94759,-3.94763c2.18015,0 3.94756,1.76741 3.94756,3.94763c0,2.18015 -1.76741,3.94754 -3.94756,3.94754c-2.18018,0 -3.94759,-1.7674 -3.94759,-3.94754z" fill="#ffffff" id="path3660" stroke="#000000" stroke-miterlimit="4" stroke-width="0.84285"/>
     <path d="m205.07613,221.06558c0,-2.18022 1.76741,-3.94762 3.94757,-3.94762c2.18019,0 3.94757,1.7674 3.94757,3.94762c0,2.18016 -1.76738,3.94754 -3.94757,3.94754c-2.18018,0 -3.94757,-1.7674 -3.94757,-3.94754z" fill="#ffffff" id="path3662" stroke="#000000" stroke-miterlimit="4" stroke-width="0.84285"/>
     <path d="m162.73651,181.52921c0,-2.18016 1.7674,-3.94754 3.94759,-3.94754c2.18019,0 3.94757,1.7674 3.94757,3.94754c0,2.18022 -1.7674,3.94762 -3.94757,3.94762c-2.18019,0 -3.94759,-1.7674 -3.94759,-3.94762z" fill="#ffffff" id="path3664" stroke="#000000" stroke-miterlimit="4" stroke-width="0.84285"/>
     <path d="m266.50168,279.90088c0,-2.18024 1.7674,-3.9476 3.9476,-3.9476c2.18018,0 3.94757,1.76736 3.94757,3.9476c0,2.18021 -1.7674,3.94754 -3.94757,3.94754c-2.18021,0 -3.9476,-1.76733 -3.9476,-3.94754z" fill="#ffffff" id="path3666" stroke="#000000" stroke-miterlimit="4" stroke-width="0.84285"/>
     <path d="m353.01855,362.58704c0,-2.18015 1.7674,-3.94754 3.9476,-3.94754c2.18015,0 3.94754,1.7674 3.94754,3.94754c0,2.18021 -1.7674,3.9476 -3.94754,3.9476c-2.18024,0 -3.9476,-1.7674 -3.9476,-3.9476z" fill="#ffffff" id="path3668" stroke="#000000" stroke-miterlimit="4" stroke-width="0.84285"/>
     <path d="m308.62424,319.96854c0,-2.18021 1.7673,-3.9476 3.94757,-3.9476c2.18015,0 3.94757,1.7674 3.94757,3.9476c0,2.18015 -1.76743,3.94754 -3.94757,3.94754c-2.18027,0 -3.94757,-1.7674 -3.94757,-3.94754z" fill="#ffffff" id="path3670" stroke="#000000" stroke-miterlimit="4" stroke-width="0.84285"/>
     <path d="m348.50131,130.97556c2.18015,0 3.94751,1.76738 3.94751,3.94754c0,2.18022 -1.76736,3.9476 -3.94751,3.9476c-2.18021,0 -3.94763,-1.76738 -3.94763,-3.9476c0,-2.18016 1.76743,-3.94754 3.94763,-3.94754z" fill="#ffffff" id="path3672" stroke="#000000" stroke-miterlimit="4" stroke-width="0.84285"/>
     <path d="m267.35605,215.95125c2.18021,0 3.9476,1.76741 3.9476,3.94762c0,2.18016 -1.7674,3.94754 -3.9476,3.94754c-2.18015,0 -3.94757,-1.7674 -3.94757,-3.94754c0,-2.18021 1.76743,-3.94762 3.94757,-3.94762z" fill="#ffffff" id="path3674" stroke="#000000" stroke-miterlimit="4" stroke-width="0.84285"/>
     <path d="m308.9472,172.07053c2.18024,0 3.94763,1.76741 3.94763,3.94763c0,2.18015 -1.7674,3.94754 -3.94763,3.94754c-2.18015,0 -3.94751,-1.76741 -3.94751,-3.94754c0,-2.18022 1.76736,-3.94763 3.94751,-3.94763z" fill="#ffffff" id="path3676" stroke="#000000" stroke-miterlimit="4" stroke-width="0.84285"/>
     <path d="m211.08943,274.80844c2.18015,0 3.94757,1.7673 3.94757,3.94754c0,2.18015 -1.76743,3.94754 -3.94757,3.94754c-2.18022,0 -3.94759,-1.7674 -3.94759,-3.94754c0,-2.18024 1.76735,-3.94754 3.94759,-3.94754z" fill="#ffffff" id="path3678" stroke="#000000" stroke-miterlimit="4" stroke-width="0.84285"/>
     <path d="m127.3759,362.86633c2.18018,0 3.94759,1.76736 3.94759,3.9476c0,2.18021 -1.76741,3.94754 -3.94759,3.94754c-2.18019,0 -3.94757,-1.76733 -3.94757,-3.94754c0,-2.18024 1.76738,-3.9476 3.94757,-3.9476z" fill="#ffffff" id="path3680" stroke="#000000" stroke-miterlimit="4" stroke-width="0.84285"/>
     <path d="m171.02179,317.44464c2.18015,0 3.94757,1.7674 3.94757,3.94754c0,2.18024 -1.76743,3.9476 -3.94757,3.9476c-2.18022,0 -3.94757,-1.76736 -3.94757,-3.9476c0,-2.18015 1.76735,-3.94754 3.94757,-3.94754z" fill="#ffffff" id="path3682" stroke="#000000" stroke-miterlimit="4" stroke-width="0.84285"/>
    </g>
    <g id="g6951">
     <path d="m64.20399,264.80002l292.69301,129.44601l12.14902,-40.05502l-292.84502,-148.1095l-66.52901,1.44991l54.532,57.2686l0,0l0,0z" fill="#000000" fill-rule="evenodd" id="path6953" stroke="#000000" stroke-width="0.43923635pt"/>
     <path d="m62.55499,262.65472l292.41199,128.82928l6.31403,-18.86401l-348.761,-164.59117l50.03499,54.6259l0,0l0,0z" fill="url(#linearGradient6995)" fill-rule="evenodd" id="path6955"/>
     <path d="m458.79678,444.56015l22.19537,4.61343l10.99765,-32.56125l-17.46667,-13.0282l-15.72635,40.97601z" fill="#000000" fill-rule="evenodd" id="path6957" stroke="#000000" stroke-width="0.40986047pt"/>
     <path d="m460.34692,444.38382l18.64499,2.70355l11.01309,-29.71109l-14.93622,-13.22931l-14.72186,40.23685z" fill="#000000" fill-rule="evenodd" id="path6959"/>
     <path d="m356.36581,392.93613l24.38126,10.30841l2.25491,2.42722l3.79465,2.12543l2.36157,-0.99432l6.4595,2.77237l2.31604,2.89008l3.83273,1.73685l2.41324,-0.77713l6.92892,2.64426l-0.00812,0.0235l1.65442,2.98505l4.08527,1.77515l2.47937,-1.15176l5.97229,2.99161l2.49634,3.14105l3.24261,1.62054l2.4787,-1.1525l5.79263,2.2189l1.73978,3.02322l4.18536,2.14893l2.29608,-1.48282l-0.00296,-0.08246l0.92288,0.4129l4.33182,-11.46613l1.36667,13.40161l2.21445,3.08884l3.52371,1.67276l2.47949,-1.1525l-3.3096,-33.53351l0.97516,-2.58243l-1.42703,-0.72864l-1.61459,-3.0174l-3.89029,-1.76486l-2.39771,0.27823l-7.42868,-3.27356l-1.53146,-3.09171l-3.76001,-1.37616l-2.35574,0.33041l-6.13785,-2.87827l-1.78836,-3.44424l-3.59732,-2.03275l-3.04462,0.99942l-5.55859,-3.04312l-2.52289,-3.25073l-3.3522,-1.5903l-2.92169,0.64981l-6.55295,-3.54065l-2.29022,-2.98209l-3.52374,-1.67282l-2.52133,0.35477l-6.87674,-3.0947l-2.10776,-3.30151l-3.52298,-1.67276l-2.68918,0.73593l-7.28076,-3.69373l-12.96295,37.06906l-0.00153,-0.00076l0,0z" fill="#000000" fill-rule="evenodd" id="path6961" stroke="#000000" stroke-width="0.50385809pt"/>
     <path d="m356.1051,391.85428l92.55994,40.84433l11.5993,-30.58481l-90.7056,-46.10715l-13.45364,35.84763z" fill="#000000" fill-rule="evenodd" id="path6963"/>
     <path d="m389.24152,406.34579l-4.05069,-42.36444l-2.12509,-3.33591l-3.53448,-1.67746l-2.7356,0.73871l4.22842,43.03076l2.21286,3.08655l3.53445,1.67752l2.47012,-1.15573z" fill="#000000" fill-rule="evenodd" id="path6965" stroke="#000000" stroke-width="0.40986047pt"/>
     <path d="m462.58099,438.23206l-3.59799,-36.62201l-2.12601,-3.33499l-3.534,-1.67801l-2.73599,0.73901l3.77701,37.28796l2.21198,3.08704l3.535,1.67801l2.47,-1.15701l0,0l0,0z" fill="#000000" fill-rule="evenodd" id="path6967" stroke="#000000" stroke-width="0.40986047pt"/>
     <path d="m438.04697,454.47968l24.31549,7.5928l23.5766,-69.18054l-20.43893,-12.16083l-27.45316,73.74857z" fill="#000000" fill-rule="evenodd" id="path6969" stroke="#000000" stroke-width="0.40986047pt"/>
     <path d="m447.73727,432.35391l-3.86612,-38.20435l-2.12531,-3.33557l-3.53433,-1.6774l-2.73648,0.73886l4.0452,38.86954l2.21298,3.08643l3.53452,1.67746l2.46954,-1.15497l0,0z" fill="#000000" fill-rule="evenodd" id="path6971" stroke="#000000" stroke-width="0.40986047pt"/>
     <path d="m433.73199,426.43604l-4.04599,-40.03403l-2.125,-3.336l-3.53403,-1.67801l-2.73596,0.73901l4.22397,40.70099l2.21301,3.08701l3.534,1.677l2.47,-1.15598l0,0z" fill="#000000" fill-rule="evenodd" id="path6973" stroke="#000000" stroke-width="0.40986047pt"/>
     <path d="m419.5498,419.85291l-4.22412,-40.70105l-2.12509,-3.33591l-3.53452,-1.67746l-2.73563,0.73877l4.40192,41.36731l2.21289,3.08661l3.53455,1.67746l2.47,-1.15573z" fill="#000000" fill-rule="evenodd" id="path6975" stroke="#000000" stroke-width="0.40986047pt"/>
     <path d="m404.17499,413.14001l-3.961,-41.44901l-2.12497,-3.336l-3.53403,-1.677l-2.73599,0.73901l4.13901,42.11499l2.21201,3.086l3.535,1.67801l2.46997,-1.15601l0,0z" fill="#000000" fill-rule="evenodd" id="path6977" stroke="#000000" stroke-width="0.40986047pt"/>
     <path d="m465.88223,381.55237l18.6618,11.92557l-10.88116,33.9328l-19.8884,-7.91647l12.10776,-37.94189z" fill="#000000" fill-rule="evenodd" id="path6979"/>
     <path d="m80.5004,209.03806l286.65161,146.04001l-6.314,18.86499l-348.20682,-166.245l67.8692,1.34l0,0z" fill="#000000" fill-rule="evenodd" id="path6981"/>
     <path d="m12.159,208.47012l50.062,54.63901l292.411,128.82889l5.871,-17.54001l0.44403,-1.32397l5.87198,-17.54202l-286.653,-146.0399l-67.895,-1.3521l69.64601,33.2511l-69.75801,-32.9211l0,0l0,0l0,0l0,0.00011z" fill="#000000" fill-rule="evenodd" id="path6983"/>
     <path d="m345.323,421.07803l28.80701,12.371l4.508,-50.48401l25.42801,-41.20599l-27.43103,-13.51801l-14.27499,46.617l-17.03699,46.22l0,0z" fill="#000000" fill-rule="evenodd" id="path6985" stroke="#000000" stroke-width="0.40986047pt"/>
     <path d="m378.23801,329.79501l24.021,12.16501l-24.42001,40.05499l-15.26199,-6.974l15.66101,-45.246l0,0z" fill="#000000" fill-rule="evenodd" id="path6987"/>
     <path d="m347.12332,420.41769l24.48492,10.84915l6.35901,-49.54733l-15.31631,-6.91519l-15.52762,45.61337z" fill="#000000" fill-rule="evenodd" id="path6989"/>
     <path d="m439.91827,453.69519l20.51617,6.66269l13.46158,-33.44241l-19.99231,-7.84888l-13.98544,34.6286z" fill="#000000" fill-rule="evenodd" id="path6991"/>
     <path d="m14.47009,209.22507l346.2829,165.69598l0.91602,-2.73801l-346.7272,-163.26198l-0.47171,0.304l0,0l0,0z" fill="#000000" fill-rule="evenodd" id="path6993"/>
    </g>
    <g id="g6999">
     <path d="m69.4082,261.6781l292.69284,129.44611l12.14908,-40.05475l-292.84521,-148.10982l-66.52899,1.4498l54.53229,57.26866l0,0z" fill="#000000" fill-rule="evenodd" id="path7001" stroke="#000000" stroke-width="0.43923635pt"/>
     <path d="m67.7589,259.53305l292.41209,128.82901l6.314,-18.86401l-348.7607,-164.59099l50.03461,54.62599l0,0l0,0z" fill="url(#linearGradient7043)" fill-rule="evenodd" id="path7003"/>
     <path d="m464.00101,441.43802l22.19501,4.61401l10.99799,-32.56201l-17.46701,-13.02798l-15.72598,40.97598l0,0z" fill="#000000" fill-rule="evenodd" id="path7005" stroke="#000000" stroke-width="0.40986047pt"/>
     <path d="m465.55084,441.26193l18.64496,2.70355l11.01309,-29.71109l-14.93619,-13.22928l-14.72186,40.23682z" fill="#000000" fill-rule="evenodd" id="path7007"/>
     <path d="m361.57001,389.81403l24.38098,10.30899l2.255,2.427l3.79401,2.125l2.362,-0.99399l6.45999,2.77197l2.31601,2.89001l3.832,1.737l2.414,-0.77701l6.92899,2.64401l-0.00897,0.02399l1.655,2.98499l4.08499,1.77502l2.47998,-1.15201l5.97202,2.992l2.496,3.14099l3.24298,1.62003l2.478,-1.15204l5.793,2.21902l1.74002,3.02301l4.185,2.14899l2.29599,-1.483l-0.00299,-0.082l0.923,0.41299l4.332,-11.46698l1.367,13.40201l2.21399,3.08896l3.52402,1.673l2.47897,-1.15298l-3.30798,-33.53302l0.974,-2.58298l-1.427,-0.728l-1.61499,-3.01801l-3.89001,-1.76498l-2.39801,0.27899l-7.42798,-3.27402l-1.53201,-3.09198l-3.75998,-1.37601l-2.35602,0.33099l-6.13699,-2.879l-1.789,-3.444l-3.59698,-2.03299l-3.04501,1l-5.55798,-3.04303l-2.52301,-3.25098l-3.35202,-1.59l-2.922,0.64902l-6.55301,-3.54001l-2.28998,-2.98199l-3.52399,-1.673l-2.52103,0.35498l-6.87701,-3.095l-2.108,-3.30197l-3.52298,-1.67203l-2.689,0.73599l-7.28101,-3.69397l-12.96301,37.06897l-0.00098,-0.00098l0,0l0,0l0,0z" fill="#000000" fill-rule="evenodd" id="path7009" stroke="#000000" stroke-width="0.50385809pt"/>
     <path d="m361.30899,388.73239l92.56003,40.84433l11.59921,-30.58475l-90.7056,-46.10718l-13.45364,35.8476z" fill="#000000" fill-rule="evenodd" id="path7011"/>
     <path d="m394.44534,403.22391l-4.05066,-42.36444l-2.12503,-3.33591l-3.53448,-1.67746l-2.73563,0.73871l4.22842,43.03076l2.21283,3.08655l3.53455,1.67746l2.47,-1.15567z" fill="#000000" fill-rule="evenodd" id="path7013" stroke="#000000" stroke-width="0.40986047pt"/>
     <path d="m467.785,435.11102l-3.599,-36.62299l-2.125,-3.33502l-3.53403,-1.67798l-2.73599,0.73898l3.77701,37.28799l2.21201,3.08801l3.534,1.677l2.47101,-1.15601l0,0l0,0z" fill="#000000" fill-rule="evenodd" id="path7015" stroke="#000000" stroke-width="0.40986047pt"/>
     <path d="m443.25101,451.35806l24.315,7.59299l23.577,-69.181l-20.439,-12.16098l-27.453,73.74899l0,0z" fill="#000000" fill-rule="evenodd" id="path7017" stroke="#000000" stroke-width="0.40986047pt"/>
     <path d="m452.94098,429.23199l-3.86597,-38.20398l-2.125,-3.336l-3.535,-1.677l-2.73599,0.73801l4.04498,38.87l2.21301,3.08701l3.535,1.677l2.46896,-1.15503l0,0l0,0z" fill="#000000" fill-rule="evenodd" id="path7019" stroke="#000000" stroke-width="0.40986047pt"/>
     <path d="m438.936,423.31506l-4.04599,-40.035l-2.125,-3.336l-3.535,-1.67801l-2.73502,0.73901l4.224,40.70099l2.21301,3.08701l3.534,1.677l2.47,-1.155l0,0z" fill="#000000" fill-rule="evenodd" id="path7021" stroke="#000000" stroke-width="0.40986047pt"/>
     <path d="m424.75372,416.73102l-4.22418,-40.70105l-2.12506,-3.33591l-3.53448,-1.67746l-2.73566,0.73871l4.40195,41.36737l2.21292,3.08661l3.53455,1.6774l2.46997,-1.15567z" fill="#000000" fill-rule="evenodd" id="path7023" stroke="#000000" stroke-width="0.40986047pt"/>
     <path d="m409.379,410.01801l-3.961,-41.44897l-2.125,-3.336l-3.534,-1.677l-2.73599,0.73898l4.13898,42.11502l2.21201,3.086l3.535,1.67798l2.47,-1.15601l0,0z" fill="#000000" fill-rule="evenodd" id="path7025" stroke="#000000" stroke-width="0.40986047pt"/>
     <path d="m471.086,378.42999l18.66199,11.92603l-10.88098,33.93298l-19.88901,-7.91699l12.108,-37.94202l0,0z" fill="#000000" fill-rule="evenodd" id="path7027"/>
     <path d="m85.70399,205.91602l286.65202,146.04001l-6.314,18.86499l-348.20702,-166.245l67.86899,1.34l0,0l0,0z" fill="#000000" fill-rule="evenodd" id="path7029"/>
     <path d="m17.36301,205.34802l50.062,54.63998l292.411,128.828l5.871,-17.53998l0.444,-1.32401l5.871,-17.54199l-286.65201,-146.04002l-67.89499,-1.35199l69.646,33.25099l-69.758,-32.92099l0,0l0,0l0,0l0,0z" fill="#000000" fill-rule="evenodd" id="path7031"/>
     <path d="m350.52701,417.95703l28.80698,12.37l4.508,-50.483l25.42804,-41.207l-27.43103,-13.51801l-14.27499,46.617l-17.03699,46.22101l0,0z" fill="#000000" fill-rule="evenodd" id="path7033" stroke="#000000" stroke-width="0.40986047pt"/>
     <path d="m383.44202,326.673l24.021,12.16501l-24.42001,40.05499l-15.26199,-6.97397l15.66101,-45.24603l0,0z" fill="#000000" fill-rule="evenodd" id="path7035"/>
     <path d="m352.327,417.29602l24.48502,10.849l6.35901,-49.547l-15.31604,-6.91599l-15.52798,45.61398l0,0z" fill="#000000" fill-rule="evenodd" id="path7037"/>
     <path d="m445.12213,450.57327l20.5162,6.66266l13.46158,-33.44238l-19.99228,-7.84885l-13.9855,34.62857z" fill="#000000" fill-rule="evenodd" id="path7039"/>
     <path d="m19.674,206.10402l346.283,165.69499l0.91602,-2.73798l-346.72702,-163.26202l-0.472,0.30501l0,0l0,0l0,0z" fill="#000000" fill-rule="evenodd" id="path7041"/>
    </g>
    <g id="g8049">
     <path d="m68.26199,264.40311l290.49899,128.47592l12.05801,-39.75601l-290.651,-146.99899l-66.03,1.439l54.12399,56.84009l0,0l0,0l0,0z" fill="#000000" fill-rule="evenodd" id="path8051" stroke="#000000" stroke-width="0.43923635pt"/>
     <path d="m66.62482,262.27347l290.22086,127.8638l6.2666,-18.72397l-346.14679,-163.35646l49.65933,54.21663l0,0z" fill="url(#linearGradient8093)" fill-rule="evenodd" id="path8053"/>
     <path d="m459.897,442.815l22.02899,4.57901l10.91501,-32.31699l-17.33502,-12.93103l-15.60898,40.66901l0,0z" fill="#000000" fill-rule="evenodd" id="path8055" stroke="#000000" stroke-width="0.40986047pt"/>
     <path d="m461.43573,442.64044l18.50519,2.68326l10.9306,-29.48843l-14.82428,-13.13013l-14.61151,39.9353z" fill="#ffffff" fill-rule="evenodd" id="path8057"/>
     <path d="m358.23376,391.57803l24.19891,10.23135l2.23761,2.40927l3.76605,2.10913l2.34381,-0.98672l6.41116,2.75128l2.29855,2.86862l3.80414,1.72412l2.39563,-0.77142l6.87656,2.62424l-0.00757,0.02359l1.64175,2.96268l4.0549,1.76193l2.46045,-1.1438l5.92798,2.96973l2.47708,3.11716l3.21838,1.6087l2.46024,-1.14386l5.74936,2.20193l1.7265,3.00113l4.15427,2.13245l2.27896,-1.47168l-0.00336,-0.08142l0.91647,0.40909l4.29892,-11.37976l1.35654,13.30084l2.19821,3.06601l3.49731,1.65985l2.46021,-1.14386l-3.284,-33.28189l0.96753,-2.56281l-1.41675,-0.7236l-1.60254,-2.99475l-3.86084,-1.75125l-2.37936,0.27628l-7.37314,-3.24933l-1.52008,-3.06818l-3.73184,-1.36655l-2.3381,0.32861l-6.09192,-2.85721l-1.77527,-3.41846l-3.56992,-2.01764l-3.02206,0.99252l-5.51654,-3.02075l-2.50421,-3.22629l-3.3269,-1.57858l-2.9003,0.64554l-6.50366,-3.51434l-2.27319,-2.96005l-3.49704,-1.65976l-2.50278,0.35184l-6.82507,-3.07184l-2.09158,-3.2767l-3.49698,-1.65967l-2.66852,0.73044l-7.22672,-3.66611l-12.86578,36.79065l-0.00146,-0.0007z" fill="#000000" fill-rule="evenodd" id="path8059" stroke="#000000" stroke-width="0.50385809pt"/>
     <path d="m357.97507,390.50455l91.86636,40.53827l11.51233,-30.35565l-90.02585,-45.76154l-13.35284,35.57892z" fill="#c5c5c5" fill-rule="evenodd" id="path8061"/>
     <path d="m390.86316,404.88745l-4.02029,-42.04694l-2.10913,-3.31091l-3.508,-1.66486l-2.71518,0.73312l4.19678,42.70828l2.19629,3.06342l3.50793,1.66492l2.4516,-1.14703z" fill="#ffffff" fill-rule="evenodd" id="path8063" stroke="#000000" stroke-width="0.40986047pt"/>
     <path d="m463.65298,436.535l-3.57199,-36.34799l-2.10901,-3.31l-3.508,-1.66498l-2.715,0.73398l3.74802,37.00702l2.19598,3.06497l3.508,1.66501l2.452,-1.14801l0,0l0,0z" fill="#ffffff" fill-rule="evenodd" id="path8065" stroke="#000000" stroke-width="0.40986047pt"/>
     <path d="m439.30301,452.66107l24.133,7.535l23.39999,-68.66202l-20.28601,-12.069l-27.24698,73.19601l0,0z" fill="#000000" fill-rule="evenodd" id="path8067" stroke="#000000" stroke-width="0.40986047pt"/>
     <path d="m448.92102,430.70102l-3.83801,-37.918l-2.10901,-3.311l-3.508,-1.66498l-2.716,0.73398l4.01498,38.578l2.19601,3.06299l3.509,1.66501l2.45102,-1.146l0,0l0,0z" fill="#ffffff" fill-rule="evenodd" id="path8069" stroke="#000000" stroke-width="0.40986047pt"/>
     <path d="m435.021,424.828l-4.01599,-39.73499l-2.10901,-3.311l-3.508,-1.66501l-2.716,0.73303l4.19302,40.396l2.19598,3.06396l3.508,1.66504l2.452,-1.14703l0,0z" fill="#ffffff" fill-rule="evenodd" id="path8071" stroke="#000000" stroke-width="0.40986047pt"/>
     <path d="m420.944,418.29303l-4.19202,-40.396l-2.10898,-3.31104l-3.50803,-1.664l-2.715,0.73303l4.36801,41.05698l2.19699,3.06302l3.508,1.66498l2.45102,-1.14697l0,0z" fill="#ffffff" fill-rule="evenodd" id="path8073" stroke="#000000" stroke-width="0.40986047pt"/>
     <path d="m405.68472,411.63092l-3.93097,-41.13831l-2.10913,-3.31085l-3.50793,-1.66492l-2.71521,0.73318l4.10745,41.79959l2.19629,3.06345l3.508,1.66489l2.45151,-1.14703z" fill="#ffffff" fill-rule="evenodd" id="path8075" stroke="#000000" stroke-width="0.40986047pt"/>
     <path d="m466.92947,380.27985l18.52191,11.83621l-10.79953,33.67841l-19.73941,-7.85706l12.01703,-37.65756z" fill="#ffffff" fill-rule="evenodd" id="path8077"/>
     <path d="m84.436,209.05801l284.50299,144.94601l-6.26599,18.72299l-345.59801,-164.99901l67.36101,1.33l0,0l0,0z" fill="url(#linearGradient8099)" fill-rule="evenodd" id="path8079"/>
     <path d="m16.60699,208.49402l49.686,54.23059l290.22,127.8634l5.827,-17.409l0.44101,-1.314l5.827,-17.41l-284.504,-144.9462l-67.38701,-1.3416l69.125,33.00139l-69.235,-32.67459l0,0l0,0l0,0z" fill="#ffffff" fill-rule="evenodd" id="path8081"/>
     <path d="m347.27374,419.5097l28.59076,12.27774l4.47464,-50.10513l25.23764,-40.89755l-27.22519,-13.41663l-14.16873,46.26773l-16.90912,45.87384z" fill="#000000" fill-rule="evenodd" id="path8083" stroke="#000000" stroke-width="0.40986047pt"/>
     <path d="m379.94202,328.91003l23.841,12.07397l-24.237,39.75403l-15.14801,-6.92102l15.54401,-44.90698l0,0z" fill="#ffffff" fill-rule="evenodd" id="path8085"/>
     <path d="m349.0607,418.85388l24.30133,10.76785l6.3114,-49.17599l-15.2016,-6.86334l-15.41113,45.27148z" fill="#ffffff" fill-rule="evenodd" id="path8087"/>
     <path d="m441.16013,451.88196l20.36243,6.61288l13.36069,-33.19186l-19.84244,-7.79004l-13.88068,34.36902z" fill="#ffffff" fill-rule="evenodd" id="path8089"/>
     <path d="m18.90044,209.24467l343.68709,164.45296l0.90961,-2.71637l-344.12856,-162.03906l-0.46814,0.30247l0,0z" fill="#000000" fill-rule="evenodd" id="path8091"/>
    </g>
    <path d="m91.493,128.31111c-10.474,8.30602 -16.291,21.5959 -23.092,32.942c-6.077,12.74789 -12.54401,25.7099 -15.287,39.5869c3.55,5.79601 13.222,2.381 19.097,3.485c15.008,-2.198 26.634,9.7171 39.892,14.82405c31.013,15.76801 62.02701,31.53305 93.041,47.29796c5.98201,-3.4299 15.48801,-10.5939 16.54099,-17.28401c-43.24698,-39.541 -84.76399,-81.4489 -128.47198,-120.62c-0.567,0.9771 -1.149,-0.577 -1.72,-0.2319l0,0l0,0z" fill="#000000" id="path4172"/>
    <path d="m48.14301,249.62802c-4.18901,5.81209 -0.408,14.534 -0.49701,21.26608c4.504,39.95291 21.474,79.32892 49.37601,108.18192c6.495,-0.28 10.03699,-8.892 15.101,-12.51001c17.181,-18.48898 35.19099,-36.40799 50.925,-56.07098c-1.271,-6.1889 -11.46201,-6.17392 -16.077,-9.80389c-27.71201,-13.186 -57.11401,-23.50711 -83.68102,-38.56503c-5.45499,-3.14908 -8.528,-12.20299 -15.14699,-12.49799l0,0l0,0l0,-0.00009z" fill="#000000" id="path4174"/>
    <path d="m377.06,120.92301c-40.36099,42.40681 -80.70898,84.85151 -121.08459,127.2178c1.49899,7.81741 12.2757,12.61792 17.3219,19.23862c26.97879,24.61578 51.86169,51.85068 80.90271,73.96759c5.32397,1.854 11.37299,8.707 16.82001,5.94699c3.099,-5.59299 3.37799,-12.66699 6.55096,-18.02698c3.48001,0.92398 4.70401,-4.47473 8.08502,-1.487c8.047,1.965 15.55298,11.05499 24.02197,8.08398c7.46902,-9.79999 9.86804,-22.87421 13.98502,-34.38281c8.888,-34.78598 9.005,-72.54323 -1.13699,-107.12518c-8.82202,-26.38879 -22.034,-52.08099 -41.38199,-72.333c-0.87201,-1.106 -2.82501,-2.46301 -4.08401,-1.10001l0,0z" fill="#000000" id="path4176"/>
    <path class="color" d="m187.534,320.06702c-23.737,25.569 -49.07199,50.20001 -71.849,76.32098c16.95201,17.52002 40.903,28.27103 64.009,36.37201c31.306,11.423 65.62,10.561 98.08301,5.41302c25.61798,-6.52002 51.85397,-15.47101 72.37997,-32.70602c4.009,-3.77197 9.05801,-13.73398 0.19702,-14.81598c-53.513,-23.70801 -107.015,-47.43503 -160.589,-71.00201l-1.46199,0.27399l-0.76901,0.14401l0,0l0,0l0,0l0,0z" fill="#800000" id="path4178"/>
    <path class="color" d="m229.39838,277.43332l9.29282,-9.85071l33.0817,31.03799l-42.37451,-21.18729l0,0z" fill="#800000" id="path4198" stroke="#000000" stroke-width="1px"/>
    <path class="color" d="m233.269,57.70801c-45.80099,1.028 -90.856,19.50101 -124.487,50.367c-0.716,5.888 8.176,9.09 11.343,13.812c38.834,37.06501 77.679,74.118 116.528,111.16802c5.32201,0.54602 8.13699,-7.02898 12.29201,-9.93399c37.54199,-39.38004 74.89801,-78.93704 112.45801,-118.29903c0.90198,-4.877 -6.29501,-6.923 -9.33401,-10.03699c-34.341,-24.64801 -76.37399,-38.388 -118.79999,-37.07701l0,0l-0.00002,0z" fill="#800000" id="path4968"/>
   </g>
  </g>
 </g>
</svg>