<svg xmlns="http://www.w3.org/2000/svg" width="50" height="50">
 
 <g>
  <title>Layer 1</title>
  <g id="svg_1">
   <g id="layer2" display="inline">
    <path id="path2386" d="m139.04977,257.27313c-4.42538,7.19641 -21.78439,35.34152 -25.5467,45.81732c-1.5307,4.26208 -1.86306,10.85974 -12.45963,15.72217c-10.59655,4.86246 -16.26391,1.44586 -16.62434,6.46869c-0.36043,5.02286 -7.28126,33.87961 -7.74669,34.6832c-0.46542,0.80359 4.99791,21.94308 7.75729,25.28513c2.75935,3.34207 11.03027,8.73157 13.60117,6.03806c3.36996,-3.53076 4.30219,-9.61969 2.43094,-12.17905c-1.87125,-2.55936 -4.67933,-8.67599 -4.81659,-9.82864c-0.13726,-1.15265 -0.26541,-14.98013 3.05527,-16.54459c3.32069,-1.56448 49.57622,-15.41956 58.22702,-19.93335c8.65077,-4.51385 49.98251,-40.67154 62.85255,-45.29031c12.87006,-4.61884 49.75929,-4.29541 69.74043,-6.69202c33.70023,-4.05856 58.38538,-20.72025 65.785,-27.40094c10.99539,-9.92703 26.17624,1.23407 36.95242,-2.31708c10.77606,-3.55112 28.33105,-8.27295 39.2767,-13.7381c10.94565,-5.46513 24.74741,-16.78804 30.33115,-18.78563c5.58368,-1.99762 12.9118,-1.91173 18.55872,-2.39717c5.64691,-0.48543 10.66107,-10.99565 11.08472,-14.50633c0.42365,-3.5107 -2.14441,-12.51007 -3.97339,-14.91084c-1.82901,-2.40073 -10.14746,-3.92924 -11.18701,-5.24995c-1.41058,-1.7921 -11.79669,7.06963 -13.50977,7.01648c-1.71307,-0.05318 -5.70575,2.08786 -6.32983,2.9337c-0.62405,0.84586 -4.70694,7.20045 -8.58801,8.57446c-3.8811,1.37401 -7.44449,0.11501 -9.62305,0.86542c-2.17847,0.75041 -27.72766,2.46812 -31.05884,3.35579c-3.33112,0.88768 -0.95175,0.25365 -5.36145,0.91905c-3.66837,-5.47826 -11.65039,-13.78564 -12.21893,-14.77347c7.58905,-10.09209 7.87689,-8.53362 9.15726,-13.29193c3.73251,1.89351 9.19943,2.64525 10.23526,5.25735c1.03586,2.61209 0.83405,7.59267 5.74097,5.60553c4.90698,-1.98717 10.60751,-6.73413 10.96747,-9.20851c0.35999,-2.47438 0.37088,-4.34608 -0.8136,-3.69066c-1.18445,0.65541 -11.65076,-2.52275 -14.33929,-4.17891c-2.61395,-1.61021 -4.50586,-4.57732 -3.63821,-7.69664c0.86771,-3.11934 2.08926,-3.18826 4.26773,-3.93869c2.1785,-0.7504 5.68842,-0.08279 7.57135,0.15143c2.37195,0.29507 5.85034,3.82227 14.87097,0.98372c5.8967,-1.85548 5.71552,-3.56583 5.32159,-6.65555c-0.7941,-6.22795 -13.47717,-15.14958 -15.38019,-17.19081c-1.90308,-2.04121 -5.48938,-6.98378 -7.23117,-8.43367c-6.07065,-5.05305 -11.79471,-8.4861 -21.63412,-7.68494c-2.1348,-6.73637 -5.20013,-14.41405 -10.24432,-13.57954c-5.04419,0.8345 -8.87299,5.59236 -7.28766,10.2666c-5.63647,1.16222 -16.69888,9.37669 -19.87183,12.77057c-3.17291,3.39388 -22.36893,21.2509 -25.76373,23.17487c-3.39471,1.92398 -12.61646,5.57059 -16.02209,9.36624c-3.40564,3.79568 -13.57083,21.11501 -31.15784,29.70903c-17.58704,8.59401 -40.86229,12.41791 -51.31023,14.01282c-10.44794,1.59489 -86.01567,12.55798 -86.01567,12.55798c0,0 -19.08649,-3.40836 -33.53233,2.30994c-14.44585,5.71828 -57.87884,24.4276 -73.2742,17.65715c-15.39536,-6.77045 -20.63823,-18.79462 -12.84106,-39.90007c7.79715,-21.10542 -12.61508,-2.07483 -13.0705,1.95399c-0.45541,4.02884 -6.29635,25.46243 0.83957,36.30261c7.13591,10.84015 25.56518,23.25797 57.35351,16.31607c31.78834,-6.94189 44.60567,-12.39612 53.38235,-11.3371c-6.27187,6.42822 -23.32339,36.79535 -34.88215,41.23462c-11.55878,4.43927 -18.58104,8.689 -24.09065,10.32712c-5.50965,1.63806 -12.9673,16.36716 -14.79762,21.61176c-1.83032,5.24466 -3.52338,11.642 1.46631,20.16595c4.98969,8.52396 9.40182,11.50223 14.82008,7.73502c7.48008,-5.20084 -3.97945,-17.41937 1.05476,-21.47916c5.03419,-4.05969 18.69783,-11.43835 30.46795,-15.0845c11.77011,-3.64612 12.56326,-3.85751 12.56326,-3.85751m357.42432,-118.23511c1.78378,-6.12511 -4.70178,-17.4158 -7.09763,-19.25116c-2.3959,-1.83534 -11.22473,-0.69124 -12.10907,-1.88611c-0.88437,-1.19489 -9.56619,11.63608 -11.23297,12.03522c-1.66669,0.39912 -4.97723,1.56375 -5.35693,2.54393c-0.37964,0.98019 -2.64801,8.18472 -6.03125,10.53088c-3.38324,2.34621 -6.9433,2.48441 -9.05679,3.36528c-6.92834,2.88766 -22.33408,6.05197 -22.33408,6.05197" stroke-dashoffset="0" stroke-miterlimit="4" marker-end="none" marker-mid="none" marker-start="none" stroke-linecap="round" stroke-width="8" stroke="#000000" fill-rule="evenodd" class="color" transform="scale(.10)" fill="saddlebrown"></path>
    <g id="g2434">
     <path id="path2829" d="m385.40109,174.94937l-4.72696,0.23758l1.12109,-5.63058c0,0 -4.72861,0.29512 -4.72861,0.29512l0.78928,-4.84767l-4.44049,0.44566c0,0 1.90054,-5.4814 1.90054,-5.4814l-4.04257,-0.68921l1.73401,-3.47008l-1.22528,-3.77884l0.80682,-6.63776" stroke-linejoin="round" stroke-linecap="round" stroke-width="4" stroke="#000000" fill-rule="evenodd" class="color" transform="scale(.10)" fill="saddlebrown"></path>
     <path id="path3149" d="m484.17163,185.75963c-1.31329,3.11908 -5.17111,6.32024 -6.64856,6.56647" stroke-dashoffset="0" stroke-miterlimit="4" marker-end="none" marker-mid="none" marker-start="none" stroke-linecap="round" stroke-width="4" stroke="#000000" fill-rule="evenodd" class="color" transform="scale(.10)" fill="saddlebrown"></path>
     <path d="m491.59851,193.60577c-2.3327,2.4519 -7.07404,4.07959 -8.54297,3.7867" id="path3151" stroke-dashoffset="0" stroke-miterlimit="4" marker-end="none" marker-mid="none" marker-start="none" stroke-linecap="round" stroke-width="4" stroke="#000000" fill-rule="evenodd" class="color" transform="scale(.10)" fill="saddlebrown"></path>
     <path id="path3153" d="m491.36823,207.28281c-3.29898,0.75479 -8.15021,-0.50833 -9.21271,-1.56407" stroke-dashoffset="0" stroke-miterlimit="4" marker-end="none" marker-mid="none" marker-start="none" stroke-linecap="round" stroke-width="4" stroke="#000000" fill-rule="evenodd" class="color" transform="scale(.10)" fill="saddlebrown"></path>
     <path id="path3155" d="m419.28687,139.09679c-2.48376,-2.01398 -3.32593,-3.60739 -5.58148,-3.20113c-1.42914,0.2574 -2.9549,2.58553 -2.9549,2.58553" stroke-dashoffset="0" stroke-miterlimit="4" marker-end="none" marker-mid="none" marker-start="none" stroke-linecap="round" stroke-width="4" stroke="#000000" fill-rule="evenodd" class="color" transform="scale(.10)" fill="saddlebrown"></path>
   </g>
   <g id="g2448">
     <path id="path3136" d="m421.77969,161.35501c-6.09402,-0.98669 -11.54965,-0.23218 -11.6658,2.61177c-0.11609,2.84396 4.87506,7.42912 7.25525,7.89348c2.37946,0.46428 4.17828,0.6384 4.17828,-0.17418c0,-0.81252 1.36221,-6.48055 3.19235,-5.92003c0.77457,0.23718 -0.29001,7.08083 -0.5806,8.2415c-0.28998,1.16122 -10.2146,-0.28996 -11.72351,-1.5089c-1.50958,-1.2188 -8.7641,-8.18364 -7.42908,-11.14365c1.33438,-2.96001 5.90979,-4.89529 7.70929,-4.25682c1.79889,0.63846 8.7739,2.86391 10.92105,3.32819c2.14798,0.46436 4.12131,1.91533 5.33957,1.79927c1.21893,-0.11612 -0.84,6.34668 -2.40729,5.82455c-0.55139,-0.18358 -1.02771,-5.08005 -0.15436,-5.25417c0.28442,-0.05673 -4.63516,-1.38297 -4.63516,-1.44102l0,0z" stroke-dashoffset="0" stroke-miterlimit="4" marker-end="none" marker-mid="none" marker-start="none" stroke-linecap="round" stroke-width="4" fill-rule="evenodd" fill="#000000" transform="scale(.10)"></path>
     <g id="g2441">
      <path id="path3139" d="m458.86136,177.04881a4.89544,6.23442 0 1 1-9.79089,7.32567a4.89544,6.23442 0 1 19.79089,-7.32567z" stroke-dashoffset="0" stroke-miterlimit="4" stroke-linejoin="bevel" stroke-linecap="round" stroke-width="4" fill-rule="nonzero" fill="#000000" transform="scale(.10)"></path>
      <path d="m459.68109,167.97473a2.10361,1.79453 0 1 1-4.20718,3.14789a2.10361,1.79453 0 1 14.20718,-3.14789z" id="path3141" stroke-dashoffset="0" stroke-miterlimit="4" stroke-linejoin="bevel" stroke-linecap="round" stroke-width="4" fill-rule="nonzero" fill="#000000" transform="scale(.10)"></path>
      <path id="path3143" d="m464.11346,171.75043a2.10361,1.79453 0 1 1-4.20721,3.1479a2.10361,1.79453 0 1 14.20721,-3.1479z" stroke-dashoffset="0" stroke-miterlimit="4" stroke-linejoin="bevel" stroke-linecap="round" stroke-width="4" fill-rule="nonzero" fill="#000000" transform="scale(.10)"></path>
      <path d="m467.56482,178.56648a2.51799,2.18044 0 1 1-5.03595,1.49959a2.51799,2.18044 0 1 15.03595,-1.49959z" id="path3145" stroke-dashoffset="0" stroke-miterlimit="4" stroke-linejoin="bevel" stroke-linecap="round" stroke-width="4" fill-rule="nonzero" fill="#000000" transform="scale(.10)"></path>
      <path id="path3147" d="m467.89316,183.57339a2.51799,2.18044 0 1 1-5.03598,1.49959a2.51799,2.18044 0 1 15.03598,-1.49959z" stroke-dashoffset="0" stroke-miterlimit="4" stroke-linejoin="bevel" stroke-linecap="round" stroke-width="4" fill-rule="nonzero" fill="#000000" transform="scale(.10)"></path>
    </g>
    <path d="m417.27487,140.14719a2.32364,1.71489 0 1 1-4.64731,-0.79875a2.32364,1.71489 0 1 14.64731,0.79875z" id="path3157" stroke-dashoffset="0" stroke-miterlimit="4" stroke-linejoin="bevel" stroke-linecap="round" stroke-width="4" fill-rule="nonzero" fill="#000000" transform="scale(.10)"></path>
  </g>
</g>
<g id="layer3" display="inline">
  <g id="g2458">
   <path d="m23.02593,209.88084c-0.11085,-5.96497 -6.81499,-2.45433 -8.15958,-2.39925c-5.87531,0.24077 3.81705,-15.15012 12.26125,-17.09196c4.4725,-1.0285 -0.91463,13.05032 -4.10167,19.49121z" id="path2614" stroke-width="2" stroke="#000000" fill="#000000" transform="scale(.10)"></path>
   <path d="m402.60022,204.57523c3.73785,12.02835 8.02112,31.5029 1.73651,36.91226c-2.67053,2.29858 0.11658,-19.06137 -4.96356,-25.63979c-2.18018,-2.82318 0.39465,-20.38716 3.22705,-11.27248z" id="path2667" stroke-width="2" stroke="#000000" fill="#000000" transform="scale(.10)"></path>
   <path d="m146.56796,239.45572c-1.22163,4.06277 -6.55609,8.41373 -4.79414,4.90927c5.1022,-10.14801 -0.40413,-24.30214 2.39886,-23.96989c5.26375,0.62395 3.50856,15.35802 2.39528,19.06062z" id="path2665" stroke-width="2" stroke="#000000" fill="#000000" transform="scale(.10)"></path>
   <path d="m24.15487,225.12473c-2.38086,3.76379 -4.80817,7.38391 -8.39612,9.95291c0,0 -2.2818,-7.59895 -2.2818,-7.59895c0.69435,-1.13248 2.49538,-1.55103 8.99827,-6.69044l1.67965,4.33649z" id="path2663" stroke-width="2" stroke="#000000" fill="#000000" transform="scale(.10)"></path>
   <path d="m131.64838,330.07993c0.49675,-6.50055 2.1716,-13.96527 2.06078,-21.40778c-0.07712,-5.18024 -5.67929,-16.52954 -2.50954,-14.70721c3.42459,1.96884 6.60522,7.17014 7.16776,13.69406c0.54623,6.33521 -1.44426,13.87924 -1.00551,18.85864c0.06377,0.72339 -5.84285,5.2551 -5.71349,3.56229z" id="path2661" stroke-width="2" stroke="#000000" fill="#000000" transform="scale(.10)"></path>
   <path d="m373.0929,214.55313c-2.33417,2.70273 -21.00223,-19.12605 -12.05765,-4.27477c2.59009,4.3004 2.36642,13.50974 -2.56528,4.81712c-7.92383,-13.96677 -14.05762,-29.75598 -25.60153,-41.15536c-3.85797,-3.80965 -14.5928,-16.15065 -12.65988,-15.57646c2.97592,0.88409 17.25049,12.72977 17.4888,13.67184c0.41953,1.65846 11.38165,17.02484 17.70529,23.56337c5.38635,5.56935 20.12943,16.13005 17.69025,18.95425z" id="path2659" stroke-width="2" stroke="#000000" fill="#000000" transform="scale(.10)"></path>
   <path d="m262.66003,283.66696c-6.4523,-4.74573 -6.04565,-19.81332 -7.52237,-28.71237c-1.24321,-7.49185 -4.74452,-30.71098 -0.27719,-26.59102c6.56427,6.05388 3.35715,24.97459 7.67239,36.68346c1.28064,3.47479 8.09018,16.34787 2.26349,18.01038c0,0 -1.50601,0.39294 -2.13632,0.60953c0,0 0,0.00003 0,0.00003z" id="path2657" stroke-width="2" stroke="#000000" fill="#000000" transform="scale(.10)"></path>
   <path d="m314.42783,274.06403c-4.41562,-10.10938 -10.84921,-20.77094 -11.05014,-32.12936c-0.0993,-5.61417 1.19083,-17.43095 5.00836,-5.11169c3.38879,10.93561 10.08124,21.26184 9.46112,32.58179c-0.11789,2.15155 -2.29279,7.23846 -3.41934,4.65927zm-3.6893,-22.99963c-6.64536,-16.08881 1.12756,13.36417 2.76505,12.08902c1.51364,-1.17877 -1.77765,-9.6983 -2.76505,-12.08902z" id="path2655" stroke-width="2" stroke="#000000" fill="#000000" transform="scale(.10)"></path>
   <path d="m312.24356,215.74033c-6.11783,-10.02295 -12.66696,-21.22629 -13.08133,-31.41304c-0.26682,-6.55734 6.28064,8.30023 6.36407,9.32578c0.37033,4.55135 10.31747,18.19156 13.50952,26.18446c3.10437,7.77328 10.99298,22.21158 2.41113,27.02765c0.19177,1.8927 -3.10376,-21.54564 -9.2034,-31.12485z" id="path2651" stroke-width="2" stroke="#000000" fill="#000000" transform="scale(.10)"></path>
   <path d="m181.10184,298.81683c-6.46391,-10.22989 -3.40927,-20.87213 -4.86324,-30.33157c-1.28082,-8.3782 -6.69615,-28.36932 -6.9138,-27.39651c-1.33228,5.95212 3.01015,25.35916 2.71185,30.22864c-0.15855,2.58459 2.16321,10.5303 -3.01642,3.50455c-5.16222,-16.54013 -2.49696,-34.93405 -7.01045,-51.81839c-3.50243,-8.46858 5.795,-11.32437 6.29286,-3.75487c0.68492,10.42111 6.79977,28.36238 9.15002,36.27956c2.25223,7.58688 4.79372,16.37396 3.6582,23.27036c-1.02562,6.22614 1.14594,17.11102 3.38147,20.64963c2.63116,4.16373 -1.1216,2.96008 -3.3905,-0.63138l0,0z" id="path2649" stroke-width="2" stroke="#000000" fill="#000000" transform="scale(.10)"></path>
   <path d="m392.9295,246.8175c-0.12473,-9.17285 -1.64185,-17.67804 -3.8403,-26.87636c-2.25455,-9.43303 -8.42667,-9.70628 -4.29077,-0.06337c4.09689,9.55206 7.4856,39.79077 8.16302,30.12338c0,0 0.06528,-0.68707 0.06882,-0.98251c0.00803,-0.66098 -0.10077,-2.20114 -0.10077,-2.20114c0,0 0,0 0,0z" id="path2647" stroke-width="2" stroke="#000000" fill="#000000" transform="scale(.10)"></path>
   <path d="m42.16984,240.16809c1.66674,2.89542 0.36276,8.68137 0.33884,12.29922c0,0 6.53101,0.58826 6.53101,0.58826c0,0 1.49728,-10.00668 0.37799,-11.81943c-0.28064,-0.45407 -7.24784,-1.06805 -7.24784,-1.06805l0,0z" id="path2645" stroke-width="2" stroke="#000000" fill="#000000" transform="scale(.10)"></path>
   <path d="m209.59976,208.05009c6.08005,0.71587 2.67053,10.36087 3.70111,15.81584c1.67659,8.87444 3.90492,18.81137 5.50191,26.86377c1.85464,9.35132 7.75899,19.06961 7.95689,27.05197c0.05396,2.17465 -8.90425,-14.61667 -10.3127,-20.4935c-3.735,-15.58463 -8.85553,-31.39171 -7.87794,-47.47864c0.04945,-0.81384 -0.6398,-1.95615 1.03073,-1.75945z" id="path2643" stroke-width="2" stroke="#000000" fill="#000000" transform="scale(.10)"></path>
   <path d="m242.70023,282.25305c-10.34879,-5.23593 -2.63257,-28.07657 -8.0013,-41.29019c-3.99408,-9.82867 -13.0537,-23.62289 -12.46544,-31.68889l4.20474,-1.15913c-1.00826,6.1552 4.60178,18.82018 6.22472,21.46873c5.44872,8.89204 -1.20433,-15.70572 -4.43282,-23.27731c6.7184,-8.74742 11.12758,17.33003 10.89046,24.01785c-0.39006,11.00032 3.31125,21.73991 2.81406,32.81883c-0.26283,5.85687 4.38275,20.94028 0.76558,19.11011l0,0z" id="path2641" stroke-width="2" stroke="#000000" fill="#000000" transform="scale(.10)"></path>
   <path d="m110.73062,263.04889c3.59706,7.21432 0.23486,15.92816 -1.84951,23.45615c-1.22913,4.43933 -7.7078,16.40302 -4.9024,5.10913c2.12644,-8.56067 3.73068,-17.26645 3.3057,-26.27335c-0.04073,-0.86255 2.33305,-4.52457 3.44621,-2.29193z" id="path2639" stroke-width="2" stroke="#000000" fill="#000000" transform="scale(.10)"></path>
   <path d="m148.64043,324.63495c-0.31291,-0.87961 5.42368,-7.0939 0.41234,-26.92581c-2.71185,-10.73331 -10.85153,-21.23578 -12.89514,-31.09573c-2.10272,-10.14578 7.81078,7.42557 10.3905,12.66428c6.94997,14.112 9.37532,30.46857 8.51726,37.48807c-0.17104,1.39835 -4.25063,13.97571 -6.42496,7.8692l0,0z" id="path2637" stroke-width="2" stroke="#000000" fill="#000000" transform="scale(.10)"></path>
   <path d="m206.81337,280.68201c-6.23676,-6.15228 -7.69522,-13.53418 -11.84244,-21.17795c-3.42123,-6.30582 -7.13988,-17.18201 -6.88095,-20.85916c0.50285,-7.14111 -6.61273,-32.25597 0.1402,-26.46222c7.49249,6.42825 2.5799,29.65634 8.53891,41.39932c2.28477,4.50241 4.56705,6.67456 7.37228,12.67651c0.86659,1.85413 8.04686,19.72552 2.672,14.42349z" id="path2635" stroke-width="2" stroke="#000000" fill="#000000" transform="scale(.10)"></path>
   <path d="m281.33423,259.80737c-5.01416,-14.58899 -10.935,-29.18634 -20.76505,-41.15947c-5.01762,-6.11206 -2.55402,-21.23927 1.30447,-17.04564c1.59094,1.73 0.0264,6.39088 2.17017,11.50098c3.04974,7.2719 9.85159,15.83923 11.73041,21.47638c2.28979,6.87067 7.02301,15.18628 7.42975,23.85794c0.05005,1.0708 -1.08752,3.64566 -1.86975,1.36981l0,0z" id="path2633" stroke-width="2" stroke="#000000" fill="#000000" transform="scale(.10)"></path>
   <path d="m344.17593,252.2749c-10.97012,-23.09525 -13.103,-35.48306 0.78967,-11.62555c4.87021,8.36349 5.82111,27.15073 -0.78967,11.62555z" id="path2631" stroke-width="2" stroke="#000000" fill="#000000" transform="scale(.10)"></path>
   <path d="m294.24744,245.22324c-4.40155,-9.72092 -6.021,-22.33583 -13.22681,-31.66942c-3.57825,-4.63516 -12.21515,-17.39403 -2.26477,-17.96072c1.98105,3.39398 6.26434,15.96857 7.82263,15.77527c1.54919,-0.19193 -3.78125,-16.2328 -0.51733,-18.4294c2.70978,-1.82318 3.31259,-4.36536 3.33414,-0.73984c0.06125,10.36688 1.60422,25.43704 4.6185,35.50145c1.10767,3.69923 2.67084,22.90672 0.23364,17.52266l0,0z" id="path2629" stroke-width="2" stroke="#000000" fill="#000000" transform="scale(.10)"></path>
   <path d="m337.1098,213.25899c-6.61621,-5.02455 -13.27133,-24.74936 -21.82684,-31.77789c-6.11694,-5.02455 -9.33148,-16.12285 -0.62024,-6.28937c7.32617,8.26901 18.78955,20.85751 20.95349,31.43925c0.3894,1.90454 3.27643,7.98184 1.49426,6.62801l-0.00067,0z" id="path2627" stroke-width="2" stroke="#000000" fill="#000000" transform="scale(.10)"></path>
   <path d="m377.73315,187.28583c-5.94452,-0.53333 -16.40039,-8.70848 -21.12521,-16.83517c-3.91275,-6.72932 -16.29889,-32.05951 -10.92941,-30.23436c5.40213,1.83612 5.37988,15.51485 14.90118,29.05312c3.2612,4.63663 20.50848,18.3175 17.15344,18.01642l0,0z" id="path2625" stroke-width="2" stroke="#000000" fill="#000000" transform="scale(.10)"></path>
   <path d="m404.37793,153.75511c-7.7027,-1.40129 -18.02338,-9.94705 -15.52197,-17.61389c1.76971,-5.42416 2.60892,-1.57838 2.54977,1.33804c-0.0751,3.70717 1.93228,4.5793 4.06686,7.28664c2.49597,3.16571 13.6062,9.84439 8.90533,8.98921z" id="path2623" stroke-width="2" stroke="#000000" fill="#000000" transform="scale(.10)"></path>
   <path d="m361.29138,250.20557c-6.96155,-5.44574 -17.23102,-39.12349 -5.12775,-16.10275c1.54993,2.94806 8.38177,18.64825 5.12775,16.10275z" id="path2621" stroke-width="2" stroke="#000000" fill="#000000" transform="scale(.10)"></path>
   <path d="m414.93582,130.89906c-2.40909,2.11272 -8.73508,2.14024 -4.10135,-2.59264c1.39273,-5.75131 6.51709,-0.36403 4.10135,2.59264z" id="path2619" stroke-width="2" stroke="#000000" fill="#000000" transform="scale(.10)"></path>
   <path d="m408.73648,126.24309c-2.47879,1.80338 -10.0712,4.51775 -4.45847,-0.0455c2.50162,-3.91988 8.30878,-2.72488 4.45847,0.0455z" id="path2617" stroke-width="2" stroke="#000000" fill="#000000" transform="scale(.10)"></path>
   <path d="m93.1395,227.79167c2.73895,5.69347 2.17503,12.84578 5.14067,18.21941l-9.94967,3.53165c-1.61389,-8.89276 -1.26691,-10.18402 -2.449,-17.17709l7.258,-4.57396l0,0z" id="path2615" stroke-width="2" stroke="#000000" fill="#000000" transform="scale(.10)"></path>
   <path d="m120.08512,219.21637c0.59192,5.3584 -1.12537,17.78955 0.14812,21.19492c1.23463,3.30139 -5.0708,2.25916 -7.7198,2.42566c-2.63112,-6.07379 0.46821,-18.92302 -3.52215,-21.12083l11.09383,-2.49974z" id="path2613" stroke-width="2" stroke="#000000" fill="#000000" transform="scale(.10)"></path>
   <path d="m70.3573,236.18933c0.9265,5.43008 1.0479,11.2417 1.17299,17.07291l-6.38274,0.71707c-1.90132,-6.73175 2.44282,-14.58276 -3.20251,-15.42148l8.41225,-2.3685z" id="path2566" stroke-width="2" stroke="#000000" fill="#000000" transform="scale(.10)"></path>
   <path id="path2844" d="m378.7092,139.4937c-6.11157,-3.13429 -12.6019,-12.92656 -8.54846,-18.72076c2.86771,-4.09932 3.77042,-1.50679 3.61743,1.04523c-0.15289,2.55026 -1.36078,5.05766 -0.25781,7.87125c1.28976,3.28992 8.91861,11.71706 5.18884,9.80429z" stroke-width="2" stroke="#000000" fill="#000000" transform="scale(.10)"></path>
   <path id="path3161" d="m31.52956,235.44672c0.05368,4.7485 -1.14996,8.37332 -1.31767,12.95493c0,0 -6.17089,-4.9877 -6.17089,-4.9877c-0.40455,-1.75433 0.62463,-2.56442 3.65535,-10.59981l3.83322,2.63258l0,0z" stroke-width="2" stroke="#000000" fill="#000000" transform="scale(.10)"></path>
   <path id="path3163" d="m421.77643,229.09291c-5.06189,-7.24548 -5.0202,-42.45415 -0.18799,-16.89845c0.61877,3.27266 2.55405,20.28516 0.18799,16.89845z" stroke-width="2" stroke="#000000" fill="#000000" transform="scale(.10)"></path>
   <path id="path3265" d="m50.263,320.62866c2.20931,-2.15872 5.45432,-2.13141 6.25092,3.85193c0.79659,5.98334 9.44787,12.91174 7.11526,16.50116c-2.3326,3.58945 -2.37856,3.24429 -3.14554,2.76089c-0.76699,-0.48346 -10.10796,-10.8331 -11.12754,-14.09335c-1.01957,-3.26028 0.78954,-8.90594 0.90689,-9.02063z" stroke-dashoffset="0" stroke-miterlimit="4" marker-end="none" marker-mid="none" marker-start="none" stroke-linecap="round" stroke-width="2" stroke="#000000" fill-rule="evenodd" fill="#000000" transform="scale(.10)"></path>
   <path d="m79.43593,371.42493c2.86378,-4.29504 6.33611,-2.98181 7.05542,3.01129c0.71931,5.99313 7.50165,9.15414 5.5937,12.65665c-1.90795,3.50256 -1.94944,3.1568 -2.59244,2.64944c-0.64299,-0.50739 -8.51574,-11.13684 -9.39509,-14.42178c-0.87933,-3.28491 -0.745,-3.77051 -0.66159,-3.8956z" id="path3267" stroke-dashoffset="0" stroke-miterlimit="4" marker-end="none" marker-mid="none" marker-start="none" stroke-linecap="round" stroke-width="2" stroke="#000000" fill-rule="evenodd" fill="#000000" transform="scale(.10)"></path>
 </g>
</g>
</g>
</g>
</svg>