<svg width="50" height="50" xmlns="http://www.w3.org/2000/svg">
 <g>
  <title>Layer 1</title>
  <g id="svg_1">
   <path clip-rule="evenodd" stroke-miterlimit="10" d="m431.14197,17.67215l-16.54456,2.89443c0,0 -65.93341,56.39318 -79.75842,70.21821c-36.15848,3.19173 -98.90016,15.95869 -146.75871,54.25954c-47.84982,38.30083 -51.04156,41.49257 -51.04156,41.49257l-130.80873,63.83473c0,0 39.35018,70.21822 165.90036,54.25951c-13.82503,28.73441 -47.85857,114.91132 -47.85857,114.91132l124.42526,-47.87607l6.38351,105.32733l76.5667,-79.79346l41.4751,92.56039c0,0 94.64154,-81.92709 66.99149,-236.19727c34.03357,-42.55067 53.65619,-41.97354 43.01413,-107.93318c-12.75818,-1.06683 -29.99359,-1.50407 -29.99359,-1.50407c0,0 28.08728,-49.66866 4.83572,-97.35234c3.1655,-27.59759 -14.33221,-28.60321 -26.82813,-29.10164l0,0l0,0z" id="path3079" class="color" stroke-linejoin="round" stroke-linecap="round" stroke-width="10" stroke="#1f201f" fill-rule="evenodd" fill="#ffffff"/>
   <path clip-rule="evenodd" d="m414.59741,49.29221c0,0 22.06146,15.00553 36.95419,1.17176c-1.06683,-5.31665 7.08301,-9.79382 7.08301,-9.79382c0,0 3.10431,-20.04235 -12.04108,-23.14665c-9.88135,-2.01998 -26.16354,-2.01998 -31.48019,1.17176c-5.31662,3.19173 -19.65762,17.83001 -19.65762,17.83001l12.75824,6.38347c0,0 15.87994,-1.14553 14.48087,-2.93815c-1.39914,-1.79262 18.3634,-29.73125 14.23599,2.93815c0,2.79823 -22.3334,6.38348 -22.3334,6.38348z" id="path3091" fill-rule="evenodd" fill="#232123"/>
   <path clip-rule="evenodd" stroke-miterlimit="10" d="m450.88702,62.40893c0,0 3.25293,17.74255 -18.7482,32.98418c-12.49585,15.74884 -20.24347,31.48889 -20.24347,31.48889c0,0 -28.7431,9.75009 -32.99292,31.48888c2.24731,14.24478 4.50339,16.50085 4.50339,16.50085c0,0 7.24918,-2.75452 9.74139,-7.50276c2.50092,-4.74828 10.00369,-17.24413 49.49377,-15.74008c8.4996,-5.50027 9.75006,-7.50278 9.75006,-7.50278c0,0 -0.75201,-15.99362 1.49533,-25.49014c2.24734,-9.49651 11.75256,-25.4902 0.75201,-56.97907c-2.00247,0.49844 -3.75137,0.75202 -3.75137,0.75202z" id="path3093" stroke-opacity="0" stroke-linejoin="round" stroke-linecap="round" stroke-width="3" stroke="#000000" fill-rule="evenodd" fill="#000000"/>
   <path clip-rule="evenodd" d="m257.43283,146.38222c0,0 7.24915,-31.74249 26.9942,-23.24284c5.2467,-0.49844 12.24228,-2.50093 20.99551,-3.75139c-6.75076,5.2467 -11.25415,5.74512 -14.99677,13.49274c-7.24921,5.75386 -32.99295,13.50148 -32.99295,13.50148z" id="path3095" fill-rule="evenodd" fill="#292629"/>
   <path clip-rule="evenodd" d="m417.8941,74.40636c0,-1.24171 1.00562,-2.24733 2.24734,-2.24733c1.25046,0 2.25607,1.00562 2.25607,2.24733c0,1.24173 -1.00562,2.24734 -2.25607,2.24734c-1.24173,0 -2.24734,-1.00561 -2.24734,-2.24734z" id="path3099" fill-rule="evenodd" fill-opacity="0.99115" fill="#000000"/>
   <path clip-rule="evenodd" d="m420.89346,84.89973c0,-1.24171 1.00562,-2.24733 2.24731,-2.24733c1.25049,0 2.2561,1.00562 2.2561,2.24733c0,1.24173 -1.00562,2.24734 -2.2561,2.24734c-1.2417,0 -2.24731,-1.00562 -2.24731,-2.24734z" id="path3101" fill-rule="evenodd" fill-opacity="0.99115" fill="#000000"/>
   <path clip-rule="evenodd" stroke-miterlimit="10" d="m429.89154,149.38158l11.99744,0.7433c0,0 -1.97629,-13.86003 -16.4921,-18.73946c5.92874,8.74448 4.49466,17.99615 4.49466,17.99615z" id="path3103" stroke-linejoin="round" stroke-linecap="round" stroke="#ffffff" fill-rule="evenodd" fill="#ffffff"/>
   <path clip-rule="evenodd" d="m408.77359,67.03476c0,-1.24171 1.00562,-2.25607 2.24734,-2.25607c1.2417,0 2.24734,1.01437 2.24734,2.25607c0,1.24173 -1.00565,2.24733 -2.24734,2.24733c-1.24173,0 -2.24734,-1.0056 -2.24734,-2.24733z" id="path3105" fill-rule="evenodd" fill-opacity="0.99115" fill="#000000"/>
   <path clip-rule="evenodd" d="m423.89282,69.90295c0,-1.24173 1.00562,-2.24733 2.24731,-2.24733c1.25046,0 2.25607,1.0056 2.25607,2.24733c0,1.24171 -1.00562,2.25607 -2.25607,2.25607c-1.2417,0 -2.24731,-1.01436 -2.24731,-2.25607z" id="path3107" fill-rule="evenodd" fill-opacity="0.99115" fill="#000000"/>
   <path clip-rule="evenodd" d="m414.89474,63.90424c0,-1.24173 1.00562,-2.24733 2.24731,-2.24733c1.25049,0 2.25607,1.0056 2.25607,2.24733c0,1.25046 -1.00558,2.25607 -2.25607,2.25607c-1.2417,0 -2.24731,-1.00562 -2.24731,-2.25607z" id="path3109" fill-rule="evenodd" fill-opacity="0.99115" fill="#000000"/>
   <path clip-rule="evenodd" d="m410.40005,78.90102c0,-1.65271 1.33795,-2.99935 2.99939,-2.99935c1.65271,0 2.99936,1.34664 2.99936,2.99935c0,1.66145 -1.34665,2.99936 -2.99936,2.99936c-1.66144,0 -2.99939,-1.33791 -2.99939,-2.99936z" id="path3111" fill-rule="evenodd" fill-opacity="0.99115" fill="#000000"/>
   <path clip-rule="evenodd" d="m413.52185,90.65361c0,-1.66145 1.34665,-2.99935 2.99936,-2.99935c1.65271,0 2.99936,1.3379 2.99936,2.99935c0,1.65271 -1.34665,2.99062 -2.99936,2.99062c-1.65271,0 -2.99936,-1.33791 -2.99936,-2.99062z" id="path3113" fill-rule="evenodd" fill-opacity="0.99115" fill="#000000"/>
   <path clip-rule="evenodd" d="m401.90042,71.65185c0,-1.65272 1.34665,-2.99935 2.99936,-2.99935c1.65271,0 2.99936,1.34663 2.99936,2.99935c0,1.66145 -1.34665,2.99936 -2.99936,2.99936c-1.65271,0 -2.99936,-1.33791 -2.99936,-2.99936z" id="path3115" fill-rule="evenodd" fill-opacity="0.99115" fill="#000000"/>
   <path clip-rule="evenodd" d="m403.64935,84.52373c0,-1.44283 1.17175,-2.62334 2.62335,-2.62334c1.45154,0 2.62329,1.18052 2.62329,2.62334c0,1.45158 -1.17175,2.62335 -2.62329,2.62335c-1.4516,0 -2.62335,-1.17177 -2.62335,-2.62335z" id="path3117" fill-rule="evenodd" fill-opacity="0.99115" fill="#000000"/>
   <path clip-rule="evenodd" d="m398.40265,99.52052c0,-1.45158 1.17175,-2.62334 2.62335,-2.62334c1.45157,0 2.62335,1.17176 2.62335,2.62334c0,1.45158 -1.17178,2.62335 -2.62335,2.62335c-1.4516,0 -2.62335,-1.17176 -2.62335,-2.62335z" id="path3119" fill-rule="evenodd" fill-opacity="0.99115" fill="#000000"/>
   <path clip-rule="evenodd" d="m406.64868,94.77226c0,-1.45158 1.17175,-2.62334 2.62335,-2.62334c1.45157,0 2.62332,1.17176 2.62332,2.62334c0,1.45158 -1.17175,2.62335 -2.62332,2.62335c-1.4516,0 -2.62335,-1.17177 -2.62335,-2.62335z" id="path3121" fill-rule="evenodd" fill-opacity="0.99115" fill="#000000"/>
   <path clip-rule="evenodd" d="m395.27213,78.14901c0,-1.44285 1.18051,-2.62335 2.63208,-2.62335c1.44287,0 2.62335,1.1805 2.62335,2.62335c0,1.45158 -1.18048,2.63207 -2.62335,2.63207c-1.45157,0 -2.63208,-1.1805 -2.63208,-2.63207z" id="path3123" fill-rule="evenodd" fill-opacity="0.99115" fill="#000000"/>
   <path d="m151.89473,281.86575c-51.96321,1.51981 -81.25655,2.51666 -115.17719,-26.03497c33.68815,-20.44981 52.92171,-24.42769 91.12288,-37.35464l24.05431,63.38962z" id="path3135" stroke-width="1px" stroke="#000000" fill="#000000"/>
  </g>
 </g>
</svg>